<svg xmlns="http://www.w3.org/2000/svg" xmlns:xlink="http://www.w3.org/1999/xlink" width="500" zoomAndPan="magnify" viewBox="0 0 375 374.999991" height="500" preserveAspectRatio="xMidYMid meet" version="1.0"><defs><g/></defs><path fill="#040606" d="M 157.570312 158.207031 L 157.570312 127.476562 C 157.570312 118.257812 146.796875 113.644531 140.640625 119.792969 L 34.457031 215.058594 C 25.226562 222.738281 25.226562 238.105469 34.457031 245.789062 L 140.640625 344.125 C 146.796875 350.273438 157.570312 345.660156 157.570312 336.441406 L 157.570312 296.492188 C 157.570312 284.605469 167.355469 274.980469 179.261719 274.984375 C 263.800781 275.007812 306.855469 298.042969 331.460938 321.078125 C 339.15625 327.222656 349.925781 319.539062 346.847656 310.320312 C 312.996094 227.351562 243.746094 185.863281 179.113281 179.71875 C 166.800781 179.71875 157.570312 170.496094 157.570312 158.207031 " fill-opacity="1" fill-rule="nonzero"/><g fill="#000000" fill-opacity="1"><g transform="translate(92.285154, 80.001193)"><g><path d="M 4.546875 0.53125 C 3.023438 0.53125 2.265625 0.0976562 2.265625 -0.765625 C 2.265625 -1.441406 2.6875 -1.78125 3.53125 -1.78125 L 5.25 -1.609375 C 6.5 -1.609375 7.367188 -2.210938 7.859375 -3.421875 C 8.398438 -4.773438 8.671875 -7.328125 8.671875 -11.078125 L 8.671875 -35.75 C 8.671875 -39.664062 8.472656 -42.113281 8.078125 -43.09375 C 7.679688 -44.070312 7.25 -44.675781 6.78125 -44.90625 C 6.3125 -45.144531 5.726562 -45.265625 5.03125 -45.265625 L 3.53125 -45.078125 C 2.6875 -45.078125 2.265625 -45.414062 2.265625 -46.09375 C 2.265625 -46.957031 2.90625 -47.390625 4.1875 -47.390625 C 5.46875 -47.390625 6.585938 -47.296875 7.546875 -47.109375 C 8.503906 -46.921875 9.421875 -46.828125 10.296875 -46.828125 C 11.171875 -46.828125 11.96875 -46.875 12.6875 -46.96875 C 13.40625 -47.0625 14.160156 -47.15625 14.953125 -47.25 C 17.191406 -47.550781 19.148438 -47.703125 20.828125 -47.703125 C 22.503906 -47.703125 24.1875 -47.457031 25.875 -46.96875 C 27.570312 -46.476562 29.023438 -45.78125 30.234375 -44.875 C 32.796875 -42.988281 34.078125 -40.539062 34.078125 -37.53125 C 34.078125 -33.550781 32.390625 -30.175781 29.015625 -27.40625 C 31.921875 -26.582031 34.363281 -24.953125 36.34375 -22.515625 C 38.414062 -19.972656 39.453125 -17.140625 39.453125 -14.015625 C 39.453125 -9.585938 37.988281 -6 35.0625 -3.25 C 32.125 -0.5 28.273438 0.875 23.515625 0.875 C 22.023438 0.875 20.289062 0.769531 18.3125 0.5625 C 14.46875 0.1875 11.882812 0 10.5625 0 Z M 14.15625 -28.0625 C 16.757812 -27.8125 18.878906 -27.6875 20.515625 -27.6875 C 22.867188 -27.6875 24.3125 -27.71875 24.84375 -27.78125 C 25.382812 -27.851562 25.875 -28.085938 26.3125 -28.484375 C 26.757812 -28.878906 27.171875 -29.390625 27.546875 -30.015625 C 28.398438 -31.460938 28.828125 -33 28.828125 -34.625 C 28.828125 -36.257812 28.546875 -37.703125 27.984375 -38.953125 C 27.429688 -40.203125 26.675781 -41.269531 25.71875 -42.15625 C 23.757812 -43.925781 21.300781 -44.8125 18.34375 -44.8125 C 16.925781 -44.8125 15.585938 -44.566406 14.328125 -44.078125 C 14.253906 -42.910156 14.210938 -42.03125 14.203125 -41.4375 C 14.191406 -40.84375 14.179688 -40.3125 14.171875 -39.84375 C 14.160156 -39.375 14.15625 -38.953125 14.15625 -38.578125 Z M 30.453125 -20.953125 C 29.492188 -22.148438 28.304688 -23.113281 26.890625 -23.84375 C 25.484375 -24.582031 24.148438 -24.953125 22.890625 -24.953125 L 19.078125 -24.953125 C 17.773438 -24.953125 16.132812 -24.894531 14.15625 -24.78125 L 14.15625 -16.109375 C 14.15625 -10.890625 14.238281 -6.867188 14.40625 -4.046875 C 16.476562 -2.742188 19.144531 -2.09375 22.40625 -2.09375 C 27.601562 -2.09375 31.015625 -3.957031 32.640625 -7.6875 C 33.179688 -8.945312 33.453125 -10.410156 33.453125 -12.078125 C 33.453125 -13.742188 33.191406 -15.335938 32.671875 -16.859375 C 32.160156 -18.390625 31.421875 -19.753906 30.453125 -20.953125 Z M 30.453125 -20.953125 "/></g></g></g><g fill="#000000" fill-opacity="1"><g transform="translate(135.231989, 80.001193)"><g><path d="M 7.796875 0 C 6.609375 0 5.492188 0.0859375 4.453125 0.265625 C 3.421875 0.441406 2.300781 0.53125 1.09375 0.53125 C -0.101562 0.53125 -0.703125 0.140625 -0.703125 -0.640625 C -0.703125 -1.421875 -0.15625 -1.8125 0.9375 -1.8125 C 2.082031 -1.8125 2.898438 -2.023438 3.390625 -2.453125 C 4.179688 -3.171875 4.960938 -4.34375 5.734375 -5.96875 C 6.503906 -7.601562 7.21875 -9.128906 7.875 -10.546875 C 8.539062 -11.972656 9.304688 -13.632812 10.171875 -15.53125 C 11.035156 -17.4375 11.984375 -19.554688 13.015625 -21.890625 C 14.054688 -24.234375 15.144531 -26.722656 16.28125 -29.359375 C 19.269531 -36.273438 21.238281 -40.925781 22.1875 -43.3125 C 23.144531 -45.707031 23.675781 -47.03125 23.78125 -47.28125 C 23.882812 -47.539062 23.992188 -47.773438 24.109375 -47.984375 C 24.410156 -48.472656 24.664062 -48.71875 24.875 -48.71875 C 25.09375 -48.71875 25.269531 -48.6875 25.40625 -48.625 C 25.550781 -48.570312 25.703125 -48.460938 25.859375 -48.296875 C 26.210938 -47.859375 26.5625 -47.203125 26.90625 -46.328125 C 27.257812 -45.453125 27.734375 -44.269531 28.328125 -42.78125 C 28.921875 -41.289062 29.601562 -39.597656 30.375 -37.703125 C 31.144531 -35.816406 31.957031 -33.789062 32.8125 -31.625 C 33.675781 -29.457031 34.546875 -27.296875 35.421875 -25.140625 C 36.296875 -22.984375 37.144531 -20.890625 37.96875 -18.859375 C 38.800781 -16.835938 39.539062 -15.015625 40.1875 -13.390625 C 42.195312 -8.515625 43.476562 -5.597656 44.03125 -4.640625 C 44.59375 -3.691406 45.0625 -3.03125 45.4375 -2.65625 C 46.019531 -2.09375 46.878906 -1.8125 48.015625 -1.8125 C 49.160156 -1.8125 49.734375 -1.421875 49.734375 -0.640625 C 49.734375 0.140625 49 0.53125 47.53125 0.53125 C 46.90625 0.53125 46.363281 0.5 45.90625 0.4375 C 45.445312 0.375 44.988281 0.320312 44.53125 0.28125 C 43.175781 0.09375 41.972656 0 40.921875 0 L 34.1875 0.53125 C 32.664062 0.53125 31.90625 0.0976562 31.90625 -0.765625 C 31.90625 -1.460938 32.328125 -1.8125 33.171875 -1.8125 L 35.265625 -1.578125 C 36.148438 -1.578125 36.734375 -1.765625 37.015625 -2.140625 C 37.296875 -2.523438 37.4375 -3.007812 37.4375 -3.59375 C 37.4375 -4.695312 36.96875 -6.398438 36.03125 -8.703125 L 33.140625 -15.96875 L 13.734375 -15.96875 C 13.171875 -14.570312 12.648438 -13.289062 12.171875 -12.125 C 11.703125 -10.957031 11.269531 -9.828125 10.875 -8.734375 C 10.238281 -6.960938 9.921875 -5.570312 9.921875 -4.5625 C 9.921875 -3.550781 10.101562 -2.804688 10.46875 -2.328125 C 10.832031 -1.847656 11.515625 -1.609375 12.515625 -1.609375 L 14.609375 -1.78125 C 15.453125 -1.78125 15.875 -1.441406 15.875 -0.765625 C 15.875 0.0976562 15.113281 0.53125 13.59375 0.53125 Z M 31.9375 -18.9375 L 23.625 -39.765625 C 22.019531 -35.691406 19.144531 -28.75 15 -18.9375 Z M 31.9375 -18.9375 "/></g></g></g><g fill="#000000" fill-opacity="1"><g transform="translate(184.608618, 80.001193)"><g><path d="M 47.8125 -36.734375 C 47.8125 -35.828125 47.5 -35.375 46.875 -35.375 C 46.3125 -35.375 45.847656 -35.9375 45.484375 -37.0625 C 45.128906 -38.195312 44.445312 -39.265625 43.4375 -40.265625 C 42.4375 -41.265625 41.238281 -42.101562 39.84375 -42.78125 C 36.925781 -44.195312 33.796875 -44.90625 30.453125 -44.90625 C 27.109375 -44.90625 24.21875 -44.457031 21.78125 -43.5625 C 19.351562 -42.664062 17.265625 -41.378906 15.515625 -39.703125 C 11.878906 -36.140625 10.0625 -31.328125 10.0625 -25.265625 C 10.0625 -18.554688 12.113281 -13.023438 16.21875 -8.671875 C 20.289062 -4.335938 25.507812 -2.171875 31.875 -2.171875 C 38.957031 -2.171875 44.429688 -5.421875 48.296875 -11.921875 C 48.554688 -12.335938 48.828125 -12.566406 49.109375 -12.609375 C 49.359375 -12.609375 49.613281 -12.328125 49.875 -11.765625 C 50.132812 -11.210938 50.265625 -10.585938 50.265625 -9.890625 C 50.265625 -8.722656 49.269531 -7.207031 47.28125 -5.34375 C 45.300781 -3.476562 42.894531 -1.972656 40.0625 -0.828125 C 37.238281 0.304688 33.941406 0.875 30.171875 0.875 C 26.410156 0.875 22.847656 0.265625 19.484375 -0.953125 C 16.117188 -2.179688 13.257812 -3.851562 10.90625 -5.96875 C 5.96875 -10.394531 3.5 -15.929688 3.5 -22.578125 C 3.5 -30.078125 5.988281 -36.132812 10.96875 -40.75 C 15.957031 -45.382812 22.519531 -47.703125 30.65625 -47.703125 C 36.519531 -47.703125 41.375 -46.921875 45.21875 -45.359375 C 45.96875 -45.035156 46.457031 -44.722656 46.6875 -44.421875 C 47.15625 -43.765625 47.429688 -42.789062 47.515625 -41.5 C 47.597656 -40.207031 47.648438 -39.316406 47.671875 -38.828125 C 47.765625 -37.679688 47.8125 -36.984375 47.8125 -36.734375 Z M 47.8125 -36.734375 "/></g></g></g><g fill="#000000" fill-opacity="1"><g transform="translate(236.606082, 80.001193)"><g><path d="M 4.640625 0.53125 C 3.128906 0.53125 2.375 0.0976562 2.375 -0.765625 C 2.375 -1.441406 2.796875 -1.78125 3.640625 -1.78125 L 5.34375 -1.609375 C 6.695312 -1.609375 7.59375 -2.238281 8.03125 -3.5 C 8.519531 -4.84375 8.765625 -7.367188 8.765625 -11.078125 L 8.765625 -35.75 C 8.765625 -39.53125 8.570312 -41.921875 8.1875 -42.921875 C 7.8125 -43.921875 7.398438 -44.550781 6.953125 -44.8125 C 6.515625 -45.082031 5.976562 -45.21875 5.34375 -45.21875 L 3.640625 -45.078125 C 2.796875 -45.078125 2.375 -45.414062 2.375 -46.09375 C 2.375 -46.957031 3.015625 -47.390625 4.296875 -47.390625 C 5.578125 -47.390625 6.796875 -47.296875 7.953125 -47.109375 C 9.109375 -46.921875 10.304688 -46.828125 11.546875 -46.828125 C 12.796875 -46.828125 13.984375 -46.921875 15.109375 -47.109375 C 16.242188 -47.296875 17.445312 -47.390625 18.71875 -47.390625 C 19.988281 -47.390625 20.625 -46.957031 20.625 -46.09375 C 20.625 -45.414062 20.203125 -45.078125 19.359375 -45.078125 L 17.6875 -45.21875 C 16.40625 -45.21875 15.519531 -44.59375 15.03125 -43.34375 C 14.519531 -42.0625 14.265625 -39.53125 14.265625 -35.75 L 14.265625 -24.671875 L 24.1875 -36.453125 C 28.007812 -40.972656 30.023438 -43.429688 30.234375 -43.828125 C 30.441406 -44.222656 30.546875 -44.5 30.546875 -44.65625 C 30.546875 -44.820312 30.429688 -44.953125 30.203125 -45.046875 C 29.984375 -45.140625 29.738281 -45.222656 29.46875 -45.296875 C 28.738281 -45.429688 28.375 -45.710938 28.375 -46.140625 C 28.375 -46.804688 28.898438 -47.140625 29.953125 -47.140625 C 30.273438 -47.140625 30.644531 -47.125 31.0625 -47.09375 C 31.488281 -47.0625 31.910156 -47.023438 32.328125 -46.984375 C 32.742188 -46.953125 33.144531 -46.914062 33.53125 -46.875 C 33.914062 -46.84375 34.25 -46.828125 34.53125 -46.828125 C 34.8125 -46.828125 35.171875 -46.859375 35.609375 -46.921875 C 36.054688 -46.984375 36.5 -47.039062 36.9375 -47.09375 C 37.382812 -47.15625 37.800781 -47.210938 38.1875 -47.265625 C 38.570312 -47.328125 38.859375 -47.359375 39.046875 -47.359375 C 40.410156 -47.359375 41.09375 -46.984375 41.09375 -46.234375 C 41.09375 -45.816406 40.945312 -45.566406 40.65625 -45.484375 C 40.375 -45.398438 40.054688 -45.3125 39.703125 -45.21875 C 39.347656 -45.125 38.867188 -44.9375 38.265625 -44.65625 C 37.660156 -44.382812 36.929688 -43.972656 36.078125 -43.421875 C 35.234375 -42.878906 34.285156 -42.164062 33.234375 -41.28125 C 30.910156 -39.300781 28.382812 -36.65625 25.65625 -33.34375 L 21.28125 -28.09375 L 39.046875 -5.875 C 41.296875 -3.613281 43.191406 -2.390625 44.734375 -2.203125 C 45.546875 -2.085938 46.066406 -1.9375 46.296875 -1.75 C 46.535156 -1.5625 46.65625 -1.328125 46.65625 -1.046875 C 46.65625 -0.347656 45.898438 0 44.390625 0 L 37.296875 0 C 36.035156 0.0390625 34.601562 -1.003906 33 -3.140625 L 17.609375 -23.703125 L 14.265625 -19.71875 L 14.265625 -11.078125 C 14.265625 -7.304688 14.453125 -4.914062 14.828125 -3.90625 C 15.210938 -2.90625 15.625 -2.269531 16.0625 -2 C 16.507812 -1.738281 17.050781 -1.609375 17.6875 -1.609375 L 19.359375 -1.78125 C 20.203125 -1.78125 20.625 -1.441406 20.625 -0.765625 C 20.625 0.0976562 19.878906 0.53125 18.390625 0.53125 C 17.617188 0.53125 16.800781 0.457031 15.9375 0.3125 C 13.144531 -0.125 10.75 -0.195312 8.75 0.09375 C 6.757812 0.382812 5.390625 0.53125 4.640625 0.53125 Z M 4.640625 0.53125 "/></g></g></g></svg>