<svg xmlns="http://www.w3.org/2000/svg" xmlns:xlink="http://www.w3.org/1999/xlink" width="500" zoomAndPan="magnify" viewBox="0 0 375 374.999991" height="500" preserveAspectRatio="xMidYMid meet" version="1.0"><defs><g/><clipPath id="4c1b9ff3f5"><path d="M 76.777344 73 L 298.027344 73 L 298.027344 302 L 76.777344 302 Z M 76.777344 73 " clip-rule="nonzero"/></clipPath><clipPath id="3c24b982d4"><path d="M 157.707031 96.097656 L 216.957031 96.097656 L 216.957031 162.097656 L 157.707031 162.097656 Z M 157.707031 96.097656 " clip-rule="nonzero"/></clipPath></defs><g clip-path="url(#4c1b9ff3f5)"><path fill="#3d3b3a" d="M 159.660156 76.703125 C 161.453125 76.253906 163.257812 75.847656 165.070312 75.484375 C 166.882812 75.121094 168.703125 74.804688 170.535156 74.53125 C 172.363281 74.257812 174.199219 74.027344 176.039062 73.84375 C 177.878906 73.65625 179.722656 73.519531 181.566406 73.421875 C 183.414062 73.328125 185.261719 73.277344 187.113281 73.273438 C 188.960938 73.265625 190.808594 73.304688 192.65625 73.390625 C 194.503906 73.476562 196.347656 73.605469 198.191406 73.777344 C 200.03125 73.953125 201.867188 74.171875 203.699219 74.433594 C 205.527344 74.699219 207.351562 75.007812 209.167969 75.359375 C 210.980469 75.710938 212.789062 76.105469 214.585938 76.546875 C 216.378906 76.984375 218.164062 77.46875 219.9375 77.996094 C 221.710938 78.519531 223.46875 79.089844 225.214844 79.703125 C 226.960938 80.3125 228.6875 80.96875 230.402344 81.664062 C 232.117188 82.359375 233.8125 83.097656 235.488281 83.875 C 237.167969 84.652344 238.824219 85.472656 240.460938 86.328125 C 242.101562 87.1875 243.714844 88.085938 245.308594 89.023438 C 246.90625 89.960938 248.476562 90.9375 250.023438 91.949219 C 251.570312 92.964844 253.089844 94.015625 254.585938 95.101562 C 256.082031 96.191406 257.550781 97.3125 258.992188 98.472656 C 260.433594 99.628906 261.84375 100.824219 263.226562 102.050781 C 264.609375 103.277344 265.964844 104.539062 267.285156 105.832031 C 268.605469 107.125 269.898438 108.449219 271.152344 109.804688 C 272.410156 111.164062 273.636719 112.546875 274.824219 113.964844 C 276.015625 115.378906 277.171875 116.820312 278.292969 118.292969 C 279.410156 119.765625 280.496094 121.261719 281.542969 122.789062 C 282.589844 124.3125 283.597656 125.859375 284.570312 127.433594 C 285.542969 129.007812 286.476562 130.601562 287.371094 132.222656 C 288.265625 133.839844 289.121094 135.480469 289.9375 137.140625 C 290.75 138.800781 291.523438 140.476562 292.257812 142.175781 C 292.992188 143.875 293.683594 145.589844 294.332031 147.320312 C 294.984375 149.050781 295.589844 150.796875 296.15625 152.558594 C 296.722656 154.320312 297.242188 156.09375 297.722656 157.878906 C 297.898438 158.539062 298.074219 159.210938 298.242188 159.894531 L 296.496094 160.503906 C 296.316406 159.785156 296.136719 159.070312 295.941406 158.351562 C 295.46875 156.582031 294.949219 154.824219 294.390625 153.078125 C 293.832031 151.335938 293.226562 149.605469 292.582031 147.886719 C 291.9375 146.171875 291.25 144.472656 290.523438 142.792969 C 289.792969 141.109375 289.023438 139.445312 288.214844 137.800781 C 287.40625 136.15625 286.554688 134.535156 285.667969 132.929688 C 284.777344 131.328125 283.851562 129.75 282.882812 128.191406 C 281.917969 126.632812 280.914062 125.101562 279.871094 123.59375 C 278.828125 122.085938 277.75 120.601562 276.636719 119.148438 C 275.523438 117.691406 274.375 116.265625 273.191406 114.867188 C 272.007812 113.464844 270.789062 112.097656 269.539062 110.757812 C 268.285156 109.417969 267.003906 108.109375 265.6875 106.832031 C 264.371094 105.554688 263.027344 104.3125 261.652344 103.101562 C 260.273438 101.890625 258.871094 100.714844 257.4375 99.574219 C 256.003906 98.429688 254.542969 97.324219 253.054688 96.253906 C 251.566406 95.183594 250.054688 94.148438 248.515625 93.152344 C 246.976562 92.15625 245.414062 91.199219 243.828125 90.277344 C 242.242188 89.359375 240.636719 88.480469 239.007812 87.636719 C 237.378906 86.796875 235.730469 85.996094 234.0625 85.234375 C 232.398438 84.472656 230.710938 83.753906 229.007812 83.078125 C 227.304688 82.398438 225.585938 81.761719 223.851562 81.167969 C 222.117188 80.574219 220.371094 80.023438 218.609375 79.515625 C 216.847656 79.007812 215.078125 78.542969 213.292969 78.121094 C 211.507812 77.699219 209.714844 77.320312 207.914062 76.988281 C 206.113281 76.652344 204.300781 76.363281 202.484375 76.121094 C 200.667969 75.875 198.847656 75.675781 197.023438 75.519531 C 195.195312 75.363281 193.367188 75.25 191.535156 75.183594 C 189.703125 75.117188 187.871094 75.097656 186.039062 75.121094 C 184.207031 75.144531 182.375 75.210938 180.546875 75.324219 C 178.714844 75.4375 176.890625 75.59375 175.070312 75.796875 C 173.246094 76 171.429688 76.246094 169.621094 76.539062 C 167.8125 76.828125 166.011719 77.164062 164.21875 77.542969 C 162.425781 77.921875 160.640625 78.347656 158.867188 78.8125 C 159.144531 78.117188 159.414062 77.417969 159.660156 76.707031 Z M 78.523438 214.730469 C 78.671875 215.320312 78.820312 215.902344 78.976562 216.488281 C 79.453125 218.265625 79.972656 220.027344 80.535156 221.777344 C 81.097656 223.527344 81.703125 225.261719 82.347656 226.980469 C 82.996094 228.699219 83.683594 230.402344 84.414062 232.089844 C 85.148438 233.773438 85.917969 235.441406 86.730469 237.089844 C 87.542969 238.738281 88.394531 240.363281 89.289062 241.972656 C 90.179688 243.578125 91.113281 245.160156 92.082031 246.722656 C 93.054688 248.28125 94.0625 249.816406 95.105469 251.328125 C 96.152344 252.839844 97.234375 254.324219 98.351562 255.78125 C 99.472656 257.238281 100.625 258.667969 101.8125 260.070312 C 103.003906 261.472656 104.222656 262.84375 105.480469 264.183594 C 106.734375 265.527344 108.023438 266.835938 109.34375 268.113281 C 110.664062 269.390625 112.015625 270.636719 113.398438 271.847656 C 114.777344 273.058594 116.1875 274.238281 117.628906 275.378906 C 119.066406 276.523438 120.53125 277.628906 122.027344 278.699219 C 123.519531 279.769531 125.039062 280.804688 126.582031 281.800781 C 128.125 282.796875 129.695312 283.753906 131.285156 284.671875 C 132.875 285.59375 134.488281 286.472656 136.125 287.3125 C 137.757812 288.152344 139.410156 288.949219 141.085938 289.710938 C 142.757812 290.46875 144.449219 291.1875 146.160156 291.863281 C 147.867188 292.539062 149.589844 293.171875 151.332031 293.761719 C 153.070312 294.351562 154.824219 294.902344 156.589844 295.40625 C 158.359375 295.910156 160.136719 296.375 161.925781 296.792969 C 163.714844 297.207031 165.511719 297.582031 167.320312 297.914062 C 169.128906 298.242188 170.945312 298.527344 172.765625 298.765625 C 174.585938 299.007812 176.414062 299.203125 178.246094 299.355469 C 180.078125 299.503906 181.910156 299.609375 183.746094 299.671875 C 185.582031 299.734375 187.421875 299.75 189.257812 299.71875 C 191.09375 299.691406 192.929688 299.617188 194.765625 299.496094 C 196.597656 299.375 198.425781 299.210938 200.253906 299.003906 C 202.078125 298.792969 203.898438 298.539062 205.710938 298.242188 C 207.523438 297.941406 209.328125 297.601562 211.125 297.214844 C 212.921875 296.828125 214.707031 296.394531 216.480469 295.921875 C 216.195312 296.617188 215.917969 297.320312 215.660156 298.03125 C 213.863281 298.488281 212.058594 298.902344 210.242188 299.273438 C 208.425781 299.640625 206.601562 299.964844 204.769531 300.246094 C 202.9375 300.527344 201.101562 300.765625 199.257812 300.953125 C 197.414062 301.144531 195.566406 301.292969 193.714844 301.394531 C 191.863281 301.496094 190.011719 301.550781 188.15625 301.5625 C 186.304688 301.574219 184.453125 301.539062 182.597656 301.460938 C 180.746094 301.378906 178.898438 301.257812 177.054688 301.085938 C 175.207031 300.917969 173.367188 300.703125 171.53125 300.445312 C 169.695312 300.1875 167.867188 299.882812 166.046875 299.535156 C 164.226562 299.1875 162.414062 298.792969 160.613281 298.359375 C 158.8125 297.921875 157.023438 297.441406 155.246094 296.917969 C 153.464844 296.394531 151.703125 295.828125 149.953125 295.21875 C 148.199219 294.609375 146.464844 293.960938 144.746094 293.265625 C 143.027344 292.570312 141.328125 291.835938 139.644531 291.058594 C 137.960938 290.285156 136.296875 289.46875 134.65625 288.609375 C 133.011719 287.75 131.390625 286.855469 129.789062 285.917969 C 128.191406 284.980469 126.613281 284.007812 125.0625 282.992188 C 123.511719 281.980469 121.984375 280.929688 120.484375 279.84375 C 118.984375 278.753906 117.507812 277.632812 116.0625 276.472656 C 114.617188 275.3125 113.199219 274.117188 111.8125 272.890625 C 110.421875 271.660156 109.066406 270.398438 107.738281 269.105469 C 106.414062 267.8125 105.117188 266.484375 103.855469 265.128906 C 102.59375 263.769531 101.367188 262.382812 100.171875 260.964844 C 98.976562 259.546875 97.816406 258.101562 96.695312 256.628906 C 95.570312 255.15625 94.480469 253.65625 93.429688 252.128906 C 92.378906 250.601562 91.367188 249.050781 90.390625 247.472656 C 89.414062 245.898438 88.480469 244.296875 87.582031 242.675781 C 86.683594 241.054688 85.828125 239.414062 85.007812 237.75 C 84.191406 236.085938 83.414062 234.402344 82.679688 232.703125 C 81.941406 231 81.25 229.28125 80.597656 227.546875 C 79.945312 225.8125 79.335938 224.0625 78.769531 222.296875 C 78.203125 220.53125 77.679688 218.753906 77.199219 216.964844 C 77.054688 216.425781 76.917969 215.882812 76.777344 215.34375 Z M 78.523438 214.730469 " fill-opacity="1" fill-rule="evenodd"/></g><g clip-path="url(#3c24b982d4)"><path fill="#000000" d="M 216.484375 115.613281 C 215.511719 112.199219 213.835938 109.191406 211.433594 106.597656 C 208.4375 103.355469 204.917969 100.949219 200.65625 99.714844 C 200.054688 99.542969 199.445312 99.289062 198.914062 98.957031 C 196.3125 97.324219 193.511719 96.621094 190.460938 96.972656 C 190.300781 96.988281 190.128906 96.957031 189.96875 96.910156 C 188.175781 96.375 186.347656 96.101562 184.476562 96.152344 C 178.617188 96.316406 173.601562 98.382812 169.613281 102.828125 C 168.820312 103.707031 167.921875 104.507812 166.992188 105.246094 C 165.332031 106.5625 163.722656 107.917969 162.453125 109.632812 C 160.226562 112.636719 158.867188 115.925781 159.195312 119.769531 C 159.214844 119.980469 159.113281 120.210938 159.039062 120.429688 C 158.714844 121.402344 158.34375 122.359375 158.070312 123.34375 C 157.800781 124.324219 157.707031 125.34375 157.921875 126.359375 C 158.148438 127.433594 158.996094 127.90625 160.015625 127.546875 C 160.289062 127.453125 160.550781 127.324219 160.816406 127.207031 C 161.5625 126.886719 161.984375 127.023438 162.371094 127.730469 C 162.472656 127.917969 162.5625 128.121094 162.609375 128.324219 C 162.796875 129.226562 163.050781 130.121094 163.125 131.03125 C 163.25 132.621094 163.261719 134.21875 163.316406 135.816406 C 163.351562 136.855469 163.707031 137.761719 164.402344 138.53125 C 167.394531 141.855469 170.140625 145.386719 172.824219 148.960938 C 173.742188 150.179688 174.164062 151.484375 174.054688 153.027344 C 173.859375 155.847656 173.765625 158.675781 173.625 161.503906 C 173.613281 161.695312 173.597656 161.886719 173.578125 162.097656 C 173.933594 162.097656 174.234375 162.097656 174.585938 162.097656 C 174.773438 158.542969 174.957031 155.003906 175.144531 151.464844 C 175.703125 152.40625 175.277344 153.492188 175.648438 154.457031 C 175.808594 153.699219 175.953125 152.945312 175.984375 152.1875 C 176.003906 151.796875 175.878906 151.355469 175.699219 151.007812 C 175.378906 150.398438 175.011719 149.804688 174.578125 149.273438 C 172.132812 146.289062 169.660156 143.320312 167.203125 140.351562 C 167.148438 140.28125 167.101562 140.203125 166.984375 140.027344 C 167.769531 140.640625 168.449219 141.175781 169.132812 141.714844 C 169.171875 141.667969 169.210938 141.621094 169.246094 141.574219 C 169.132812 141.421875 169.035156 141.253906 168.898438 141.125 C 167.777344 140.085938 166.683594 139.011719 165.519531 138.023438 C 164.554688 137.207031 164.078125 136.230469 164.15625 134.96875 C 164.164062 134.785156 164.148438 134.601562 164.15625 134.417969 C 164.265625 132.210938 164.222656 130.019531 163.503906 127.902344 C 163.398438 127.59375 163.511719 127.363281 163.765625 127.140625 C 164.3125 126.664062 164.921875 126.605469 165.601562 126.699219 C 165.957031 126.75 166.113281 126.851562 166.113281 127.265625 C 166.113281 129.265625 166.164062 131.261719 166.167969 133.261719 C 166.171875 134.265625 166.457031 135.132812 167.1875 135.835938 C 168.492188 137.082031 169.796875 138.328125 171.101562 139.574219 C 171.175781 139.644531 171.289062 139.675781 171.382812 139.722656 C 171.347656 139.496094 171.257812 139.34375 171.136719 139.21875 C 170.121094 138.175781 169.15625 137.082031 168.066406 136.125 C 167.011719 135.195312 166.535156 134.148438 166.648438 132.730469 C 166.796875 130.878906 166.820312 129.011719 166.898438 127.15625 C 166.902344 127.0625 166.941406 126.96875 166.964844 126.878906 C 167.019531 126.875 167.074219 126.871094 167.128906 126.863281 C 167.578125 127.804688 167.164062 128.914062 167.503906 129.875 C 167.5625 129.875 167.625 129.875 167.683594 129.875 C 167.742188 128.929688 167.804688 127.984375 167.867188 127 C 168.683594 127.082031 169.453125 127.15625 170.222656 127.25 C 171 127.339844 171.769531 127.445312 172.683594 127.5625 C 171.660156 128.003906 170.828125 128.472656 170.585938 129.582031 C 171.527344 128.328125 172.785156 128.050781 174.222656 128.269531 C 175.671875 128.488281 176.726562 129.210938 177.289062 130.621094 C 176.269531 130.742188 175.285156 130.863281 174.261719 130.988281 C 174.601562 131.339844 175 131.429688 175.460938 131.417969 C 176.398438 131.394531 177.34375 131.339844 178.277344 131.40625 C 179.039062 131.457031 179.777344 131.71875 180.484375 132.1875 C 180.328125 132.246094 180.234375 132.296875 180.132812 132.316406 C 178.933594 132.496094 177.714844 132.570312 176.542969 132.253906 C 175.433594 131.957031 174.375 131.472656 173.296875 131.078125 C 173.128906 131.011719 172.953125 130.972656 172.78125 130.921875 C 172.765625 130.96875 172.75 131.019531 172.738281 131.070312 C 174.886719 133.128906 177.59375 133.429688 180.449219 133.410156 C 180.015625 134.171875 179.621094 134.863281 179.222656 135.558594 C 179.257812 135.582031 179.289062 135.609375 179.324219 135.636719 C 179.414062 135.570312 179.535156 135.527344 179.597656 135.4375 C 180.125 134.691406 180.757812 133.988281 181.136719 133.171875 C 181.964844 131.394531 181.9375 129.460938 181.804688 127.558594 C 181.59375 124.535156 181.382812 121.511719 181.609375 118.480469 C 181.671875 117.621094 181.910156 116.769531 182.152344 115.9375 C 182.320312 115.355469 182.808594 115.03125 183.398438 114.898438 C 184.386719 114.675781 185.441406 115.050781 185.917969 115.957031 C 186.257812 116.605469 186.546875 117.351562 186.59375 118.074219 C 186.726562 120.035156 186.757812 122.003906 186.746094 123.96875 C 186.738281 125.25 186.746094 126.519531 187.042969 127.769531 C 187.859375 131.199219 188.65625 134.636719 189.519531 138.058594 C 190.207031 140.773438 190.363281 143.480469 189.722656 146.21875 C 189.351562 147.804688 188.976562 149.386719 188.996094 151.03125 C 189.035156 153.917969 189.085938 156.8125 189.128906 159.699219 C 189.136719 160.492188 189.128906 161.285156 189.128906 162.09375 C 189.660156 162.09375 190.066406 162.09375 190.550781 162.09375 C 190.503906 160.460938 190.464844 158.878906 190.40625 157.300781 C 190.273438 153.609375 190.269531 149.925781 191.082031 146.289062 C 191.578125 144.058594 191.632812 141.800781 191.179688 139.558594 C 190.714844 137.273438 190.179688 135.003906 189.679688 132.730469 C 189.617188 132.457031 189.59375 132.175781 189.542969 131.8125 C 189.855469 131.925781 190.0625 132.023438 190.28125 132.070312 C 190.902344 132.195312 191.53125 132.394531 192.15625 132.382812 C 193.789062 132.359375 194.65625 130.882812 193.949219 129.394531 C 193.804688 129.09375 193.597656 128.820312 193.421875 128.539062 C 193.332031 128.398438 193.246094 128.261719 193.144531 128.105469 C 193.25 128.03125 193.316406 127.964844 193.394531 127.933594 C 194.652344 127.382812 195.902344 126.832031 197.171875 126.308594 C 197.390625 126.214844 197.679688 126.234375 197.921875 126.273438 C 199.238281 126.5 200.542969 126.804688 201.871094 126.984375 C 203.644531 127.226562 204.839844 126.28125 204.941406 124.601562 C 204.96875 124.125 204.828125 123.640625 204.753906 123.082031 C 205.722656 122.660156 206.734375 122.210938 207.757812 121.789062 C 210.160156 120.785156 212.566406 119.796875 214.96875 118.804688 C 216.5625 118.160156 216.957031 117.277344 216.484375 115.613281 Z M 175.367188 127.859375 C 176.382812 127.878906 176.804688 128.160156 177.082031 129.007812 C 176.5 128.621094 175.902344 128.214844 175.367188 127.859375 Z M 178.011719 129.265625 C 177.738281 128.886719 177.5 128.472656 177.195312 127.996094 C 177.933594 128.066406 178.613281 128.132812 179.414062 128.210938 C 179.183594 128.625 179.027344 128.957031 178.832031 129.257812 C 178.550781 129.707031 178.332031 129.710938 178.011719 129.265625 Z M 180.28125 130.347656 C 179.890625 130.773438 179.417969 130.511719 178.855469 130.429688 C 179.214844 129.683594 179.515625 129.039062 179.847656 128.410156 C 179.886719 128.335938 180.097656 128.277344 180.175781 128.316406 C 180.386719 128.421875 180.710938 128.5625 180.738281 128.734375 C 180.835938 129.316406 180.699219 129.902344 180.28125 130.347656 Z M 180.582031 117.808594 C 180.203125 117.714844 179.785156 117.621094 179.269531 117.5 C 179.253906 116.984375 178.765625 116.894531 178.273438 116.820312 C 177.941406 116.769531 177.835938 116.585938 178.039062 116.316406 C 178.460938 115.746094 178.886719 115.164062 179.375 114.644531 C 179.515625 114.496094 179.859375 114.511719 180.109375 114.503906 C 180.375 114.496094 180.640625 114.542969 181.046875 114.582031 C 180.902344 114.859375 180.695312 115.113281 180.636719 115.402344 C 180.546875 115.8125 180.332031 115.898438 179.964844 115.914062 C 179.835938 115.917969 179.71875 116.132812 179.59375 116.25 C 179.621094 116.285156 179.644531 116.324219 179.671875 116.359375 C 179.875 116.359375 180.082031 116.359375 180.289062 116.359375 C 180.226562 116.675781 180.167969 116.957031 180.113281 117.242188 C 180.1875 117.265625 180.261719 117.289062 180.332031 117.3125 C 180.617188 116.675781 180.898438 116.039062 181.179688 115.402344 C 181.191406 115.40625 181.199219 115.410156 181.207031 115.414062 C 181 116.203125 180.796875 116.992188 180.582031 117.808594 Z M 183.507812 114.039062 C 183.160156 114.171875 182.796875 114.261719 182.398438 114.296875 C 182.828125 114.0625 183.261719 113.828125 183.695312 113.597656 C 183.742188 113.636719 183.792969 113.683594 183.839844 113.726562 C 183.730469 113.832031 183.640625 113.984375 183.507812 114.039062 Z M 184.542969 114.035156 C 184.203125 113.953125 184.082031 113.816406 184.199219 113.46875 C 185.078125 113.417969 185.613281 113.949219 186.09375 114.507812 C 185.585938 114.351562 185.074219 114.160156 184.542969 114.035156 Z M 192.742188 130.160156 C 192.695312 130.699219 192.265625 131.105469 191.699219 131.117188 C 190.726562 131.148438 189.875 130.75 189.007812 130.386719 C 189.21875 129.835938 189.328125 129.792969 189.796875 129.984375 C 190.324219 130.203125 190.820312 130.519531 191.417969 130.464844 C 191.4375 130.421875 191.464844 130.378906 191.484375 130.335938 C 191.039062 130.082031 190.597656 129.828125 190.085938 129.53125 C 190.65625 129.265625 191.191406 129.015625 191.722656 128.773438 C 191.773438 128.75 191.84375 128.765625 191.898438 128.777344 C 192.292969 128.886719 192.785156 129.699219 192.742188 130.160156 Z M 202.203125 125.753906 C 201.332031 125.738281 200.464844 125.5625 199.597656 125.398438 C 200.378906 124.757812 201.273438 124.757812 202.210938 124.941406 C 202.191406 124.886719 202.175781 124.828125 202.152344 124.769531 C 201.964844 124.683594 201.773438 124.59375 201.488281 124.464844 C 202.09375 124.214844 202.613281 123.988281 203.148438 123.800781 C 203.21875 123.777344 203.410156 123.914062 203.445312 124.015625 C 203.742188 124.886719 203.152344 125.773438 202.203125 125.753906 Z M 210.8125 118.277344 C 210.636719 117.570312 210.472656 116.929688 210.3125 116.289062 C 209.867188 114.53125 209.355469 112.796875 208.335938 111.265625 C 207.769531 110.417969 207.101562 109.664062 206.261719 109.082031 C 206.113281 108.984375 205.957031 108.898438 205.722656 108.875 C 205.808594 109.003906 205.871094 109.160156 205.980469 109.265625 C 208.375 111.5625 209.402344 114.539062 210.121094 117.675781 C 210.191406 117.976562 210.269531 118.273438 210.367188 118.5625 C 210.5 118.949219 210.414062 119.210938 210.019531 119.363281 C 209.734375 119.46875 209.460938 119.609375 209.179688 119.730469 C 204.382812 121.796875 199.585938 123.867188 194.785156 125.925781 C 193.039062 126.675781 191.277344 127.402344 189.523438 128.136719 C 188.960938 128.375 188.246094 127.933594 188.136719 127.214844 C 188.027344 126.515625 187.957031 125.8125 187.933594 125.109375 C 187.882812 123.140625 187.890625 121.171875 187.820312 119.207031 C 187.792969 118.492188 187.621094 117.785156 187.507812 117.070312 C 187.484375 116.917969 187.414062 116.769531 187.417969 116.621094 C 187.453125 115.976562 187.285156 115.453125 186.683594 115.121094 C 186.605469 115.078125 186.578125 114.855469 186.605469 114.734375 C 186.691406 114.375 186.597656 114.105469 186.300781 113.894531 C 185.671875 113.445312 185.101562 112.878906 184.238281 112.925781 C 184.117188 112.933594 183.988281 112.832031 183.957031 112.816406 C 183.414062 113.125 182.957031 113.363281 182.523438 113.628906 C 181.976562 113.964844 181.46875 114.363281 180.753906 114.054688 C 180.5625 113.972656 180.300781 114.058594 180.074219 114.027344 C 179.683594 113.972656 179.371094 114.085938 179.082031 114.363281 C 178.941406 114.503906 178.730469 114.566406 178.617188 114.679688 C 178.316406 115.105469 178.023438 115.539062 177.722656 115.96875 C 177.207031 116.691406 177.429688 117.222656 178.328125 117.28125 C 178.835938 117.316406 178.847656 117.710938 179.0625 118.109375 C 177.648438 117.792969 176.300781 117.5 174.964844 117.183594 C 174.820312 117.148438 174.691406 117.003906 174.585938 116.882812 C 173.535156 115.695312 172.140625 115.371094 170.851562 116.03125 C 169.566406 116.683594 168.921875 118.089844 169.210938 119.601562 C 169.246094 119.78125 169.273438 119.960938 169.226562 120.25 C 169.050781 120.128906 168.808594 120.046875 168.71875 119.878906 C 168.53125 119.539062 168.296875 119.449219 167.941406 119.507812 C 167.765625 119.535156 167.574219 119.496094 167.390625 119.492188 C 167.03125 119.488281 166.777344 119.652344 166.535156 119.933594 C 166.253906 120.265625 165.878906 120.511719 165.570312 120.828125 C 165.40625 120.992188 165.289062 121.203125 165.183594 121.414062 C 165.054688 121.671875 164.984375 121.957031 164.851562 122.210938 C 164.492188 122.921875 164.785156 123.480469 165.589844 123.574219 C 165.695312 123.589844 165.800781 123.601562 165.921875 123.621094 C 165.941406 123.734375 165.953125 123.832031 165.972656 123.9375 C 166.058594 124.457031 166.273438 124.664062 166.792969 124.683594 C 167.195312 124.695312 167.609375 124.722656 168.003906 124.648438 C 168.195312 124.613281 168.425781 124.394531 168.503906 124.199219 C 168.683594 123.761719 168.90625 123.464844 169.378906 123.300781 C 169.933594 123.109375 170.050781 122.835938 169.96875 122.261719 C 169.894531 121.71875 169.796875 121.183594 169.695312 120.605469 C 169.859375 120.730469 170.039062 120.863281 170.21875 121 C 171.992188 122.363281 174.523438 121.5625 175.128906 119.425781 C 175.214844 119.125 175.222656 118.789062 175.195312 118.472656 C 175.167969 118.160156 175.054688 117.851562 174.96875 117.503906 C 176.847656 117.949219 178.703125 118.390625 180.570312 118.832031 C 180.570312 119.09375 180.582031 119.324219 180.566406 119.550781 C 180.527344 120.261719 179.988281 120.640625 179.351562 120.355469 C 178.3125 119.894531 176.648438 120.515625 176.125 121.265625 C 175.25 122.523438 175.210938 123.921875 176.054688 124.976562 C 177.152344 126.347656 178.980469 126.636719 180.429688 125.675781 C 180.492188 125.632812 180.554688 125.59375 180.699219 125.5 C 180.722656 126 180.746094 126.433594 180.773438 126.929688 C 180.125 126.929688 179.515625 126.984375 178.921875 126.925781 C 175.394531 126.558594 171.867188 126.167969 168.339844 125.78125 C 167.011719 125.632812 165.679688 125.460938 164.277344 125.296875 C 164.277344 124.910156 164.289062 124.546875 164.273438 124.183594 C 164.234375 123.199219 164.191406 122.21875 164.140625 121.234375 C 164.074219 119.902344 164.328125 118.644531 164.875 117.429688 C 166.441406 113.972656 168.515625 110.875 171.273438 108.261719 C 172.089844 107.492188 173.058594 106.988281 174.085938 106.578125 C 175.53125 106.003906 176.890625 105.265625 178.199219 104.40625 C 180.277344 103.035156 182.558594 102.242188 185.074219 102.25 C 185.222656 102.25 185.375 102.25 185.578125 102.25 C 185.644531 102.816406 185.710938 103.359375 185.78125 103.941406 C 184.847656 104.167969 183.992188 104.53125 183.496094 105.4375 C 183.160156 106.039062 183.0625 106.683594 183.152344 107.351562 C 183.339844 108.808594 184.460938 109.605469 186.695312 109.863281 C 186.777344 111.089844 186.855469 112.324219 186.9375 113.558594 C 187.3125 113.683594 187.371094 113.472656 187.351562 113.183594 C 187.289062 112.09375 187.222656 111.007812 187.160156 109.917969 C 187.15625 109.859375 187.160156 109.796875 187.160156 109.722656 C 188.421875 109.234375 189.035156 108.25 189.101562 106.9375 C 189.171875 105.441406 188.164062 104.226562 186.695312 103.988281 C 186.316406 103.929688 186.136719 103.808594 186.121094 103.40625 C 186.113281 103.074219 186.03125 102.742188 185.964844 102.308594 C 186.5625 102.429688 187.117188 102.496094 187.648438 102.648438 C 189.523438 103.203125 191.421875 103.421875 193.378906 103.308594 C 195.023438 103.214844 196.574219 103.679688 198.039062 104.421875 C 199.863281 105.34375 201.726562 106.152344 203.664062 106.808594 C 206.898438 107.902344 208.804688 110.339844 209.925781 113.484375 C 210.199219 114.25 210.464844 115.019531 210.738281 115.785156 C 210.816406 116.007812 210.929688 116.222656 211.117188 116.425781 C 211.117188 116.296875 211.136719 116.167969 211.113281 116.050781 C 210.738281 114.175781 210.285156 112.328125 209.269531 110.683594 C 207.867188 108.402344 205.835938 106.945312 203.339844 106.105469 C 202.632812 105.867188 201.933594 105.609375 201.222656 105.386719 C 200.882812 105.28125 200.867188 105.109375 200.957031 104.800781 C 201.265625 103.777344 202.113281 103.652344 202.972656 103.523438 C 203.265625 103.480469 203.558594 103.410156 203.835938 103.292969 C 202.714844 102.671875 200.570312 103.113281 200.394531 105.050781 C 200.117188 104.886719 199.859375 104.742188 199.609375 104.585938 C 197.972656 103.566406 196.234375 102.832031 194.296875 102.648438 C 193.875 102.609375 193.441406 102.582031 193.019531 102.613281 C 191.21875 102.746094 189.476562 102.441406 187.761719 101.917969 C 184.351562 100.875 181.121094 101.363281 178.035156 103.105469 C 176.136719 104.183594 174.222656 105.21875 172.292969 106.234375 C 170.4375 107.210938 169.007812 108.652344 167.730469 110.277344 C 165.890625 112.617188 164.355469 115.125 163.535156 118.03125 C 162.988281 119.964844 163.097656 121.925781 163.160156 123.894531 C 163.167969 124.230469 163.191406 124.574219 163.132812 124.902344 C 163.023438 125.519531 162.472656 125.859375 161.882812 125.714844 C 161.046875 125.503906 160.289062 125.625 159.601562 126.179688 C 159.4375 126.3125 159.203125 126.359375 159 126.4375 C 158.914062 126.21875 158.777344 126.003906 158.757812 125.777344 C 158.59375 124.144531 159.011719 122.613281 159.617188 121.078125 C 159.773438 121.410156 159.917969 121.710938 160.066406 122.007812 C 160.109375 121.996094 160.148438 121.984375 160.1875 121.976562 C 160.1875 121.578125 160.242188 121.171875 160.179688 120.78125 C 159.734375 118.011719 160.246094 115.402344 161.464844 112.917969 C 162.769531 110.261719 164.699219 108.136719 167.011719 106.335938 C 167.851562 105.679688 168.617188 104.929688 169.425781 104.234375 C 169.851562 103.867188 170.300781 103.523438 170.792969 103.125 C 170.839844 103.429688 170.847656 103.644531 170.910156 103.84375 C 170.9375 103.9375 171.066406 104.003906 171.144531 104.082031 C 171.210938 103.992188 171.277344 103.902344 171.34375 103.816406 C 171.351562 103.804688 171.347656 103.78125 171.347656 103.769531 C 171.144531 102.402344 172.003906 101.640625 172.957031 100.949219 C 176.953125 98.015625 181.453125 96.796875 186.355469 97.015625 C 187.144531 97.050781 187.929688 97.199219 188.714844 97.300781 C 188.871094 97.324219 189.023438 97.382812 189.238281 97.441406 C 188.746094 97.472656 188.300781 97.414062 187.917969 97.542969 C 187.519531 97.675781 187.167969 97.972656 186.828125 98.238281 C 186.757812 98.292969 186.824219 98.523438 186.828125 98.675781 C 186.957031 98.640625 187.140625 98.644531 187.203125 98.558594 C 187.617188 97.996094 188.203125 97.90625 188.800781 98.03125 C 189.285156 98.132812 189.667969 98.085938 190.160156 97.921875 C 190.9375 97.652344 191.820312 97.6875 192.660156 97.59375 C 192.671875 97.65625 192.675781 97.714844 192.6875 97.777344 C 191.984375 97.972656 191.285156 98.15625 190.589844 98.382812 C 190.375 98.449219 189.972656 98.386719 190.0625 98.765625 C 190.09375 98.875 190.542969 98.980469 190.765625 98.929688 C 191.566406 98.746094 192.351562 98.503906 193.136719 98.269531 C 193.984375 98.007812 194.8125 98.082031 195.652344 98.34375 C 197.464844 98.902344 198.957031 99.953125 200.195312 101.375 C 200.414062 101.628906 200.625 101.882812 200.914062 102.082031 C 201.105469 101.339844 200.425781 101.039062 200.195312 100.445312 C 200.554688 100.5625 200.882812 100.648438 201.191406 100.765625 C 206.984375 102.9375 211.363281 106.703125 214.070312 112.355469 C 214.671875 113.609375 214.984375 114.957031 215.203125 116.324219 C 215.238281 116.542969 215.1875 116.675781 214.945312 116.710938 C 213.839844 116.875 212.800781 117.230469 211.835938 117.816406 C 211.816406 117.78125 211.796875 117.746094 211.777344 117.710938 C 212.464844 117.296875 213.152344 116.882812 213.925781 116.414062 C 213.074219 116.121094 211.628906 117.03125 210.8125 118.277344 Z M 173.917969 118.648438 C 173.746094 118.558594 173.496094 118.507812 173.429688 118.367188 C 173.34375 118.1875 173.40625 117.933594 173.40625 117.710938 C 173.464844 117.675781 173.523438 117.636719 173.578125 117.597656 C 173.734375 117.789062 173.925781 117.964844 174.019531 118.179688 C 174.074219 118.296875 173.960938 118.488281 173.917969 118.648438 Z M 172.34375 119.980469 C 172.5 120.023438 172.632812 120.214844 172.726562 120.375 C 172.757812 120.429688 172.644531 120.664062 172.59375 120.664062 C 172.433594 120.664062 172.253906 120.625 172.109375 120.546875 C 171.972656 120.472656 171.871094 120.332031 171.628906 120.105469 C 171.957031 120.042969 172.167969 119.9375 172.34375 119.980469 Z M 171.496094 118.179688 C 171.335938 117.921875 171.175781 117.785156 171.171875 117.644531 C 171.171875 117.351562 171.3125 117.066406 171.652344 117.128906 C 171.839844 117.164062 171.996094 117.390625 172.164062 117.53125 C 171.972656 117.714844 171.785156 117.902344 171.496094 118.179688 Z M 170.96875 120.058594 C 170.492188 119.785156 170.304688 119.421875 170.375 118.960938 C 170.394531 118.816406 170.558594 118.695312 170.660156 118.566406 C 170.753906 118.667969 170.894531 118.761719 170.921875 118.878906 C 171.003906 119.246094 171.199219 119.621094 170.96875 120.058594 Z M 165.863281 123.1875 C 165.179688 123.042969 165.214844 122.902344 165.367188 122.238281 C 165.617188 121.164062 166.5625 120.777344 167.199219 120.09375 C 167.453125 119.828125 168.03125 119.90625 168.335938 120.179688 C 168.542969 120.359375 168.730469 120.566406 168.933594 120.75 C 169.21875 121.011719 169.378906 121.320312 169.347656 121.722656 C 169.332031 121.890625 169.351562 122.0625 169.390625 122.226562 C 169.484375 122.601562 169.351562 122.78125 169.003906 122.972656 C 168.667969 123.15625 168.394531 123.503906 168.183594 123.835938 C 168.039062 124.074219 167.941406 124.246094 167.621094 124.152344 C 167.398438 124.1875 167.15625 124.234375 166.917969 124.257812 C 166.609375 124.289062 166.402344 124.179688 166.429688 123.828125 C 166.457031 123.414062 166.222656 123.265625 165.863281 123.1875 Z M 177.410156 123.285156 C 177.359375 123.546875 177.164062 123.78125 177.03125 124.027344 C 176.875 123.8125 176.722656 123.597656 176.492188 123.277344 C 176.734375 123.078125 176.898438 122.847656 177.054688 122.851562 C 177.179688 122.851562 177.433594 123.15625 177.410156 123.285156 Z M 185.480469 105.679688 C 185.296875 105.851562 185.125 106.007812 184.9375 106.183594 C 184.664062 105.9375 184.632812 105.667969 184.875 105.464844 C 185.09375 105.285156 185.320312 105.390625 185.480469 105.679688 Z M 214.734375 117.710938 C 213.730469 118.128906 212.710938 118.503906 211.699219 118.894531 C 211.671875 118.835938 211.644531 118.773438 211.621094 118.71875 C 212.644531 117.863281 213.96875 117.667969 215.132812 117.109375 C 215.164062 117.140625 215.191406 117.171875 215.222656 117.203125 C 215.0625 117.371094 214.929688 117.628906 214.734375 117.710938 Z M 214.734375 117.710938 " fill-opacity="1" fill-rule="nonzero"/></g><path fill="#000000" d="M 176.792969 146.171875 C 177.113281 145.625 177.414062 145.109375 177.71875 144.59375 C 177.679688 144.570312 177.644531 144.550781 177.605469 144.527344 C 177.035156 144.894531 177.035156 144.890625 176.445312 144.480469 C 175.695312 143.953125 174.941406 143.433594 174.1875 142.917969 C 174.046875 142.820312 173.894531 142.742188 173.746094 142.652344 C 173.710938 142.707031 173.675781 142.761719 173.636719 142.816406 C 174.679688 143.640625 175.726562 144.464844 176.796875 145.3125 C 176.667969 145.460938 176.511719 145.640625 176.359375 145.8125 C 175.730469 145.378906 175.136719 144.96875 174.542969 144.554688 C 174.507812 144.601562 174.46875 144.644531 174.433594 144.691406 C 174.976562 145.203125 175.515625 145.714844 176.070312 146.238281 C 175.863281 146.480469 175.667969 146.710938 175.457031 146.964844 C 174.558594 146.015625 173.785156 145.007812 172.753906 144.257812 C 172.945312 144.621094 173.179688 144.933594 173.421875 145.246094 C 173.972656 145.945312 174.542969 146.625 175.070312 147.339844 C 175.328125 147.691406 175.390625 147.730469 175.691406 147.390625 C 175.976562 147.074219 176.25 146.75 176.539062 146.414062 C 176.667969 146.519531 176.773438 146.597656 176.875 146.675781 C 176.535156 147.300781 176.027344 147.804688 175.84375 148.480469 C 176.574219 148.105469 178.261719 145.644531 178.300781 144.972656 C 177.867188 145.488281 177.476562 145.953125 177.078125 146.421875 C 176.957031 146.328125 176.859375 146.234375 176.792969 146.171875 Z M 176.792969 146.171875 " fill-opacity="1" fill-rule="nonzero"/><path fill="#000000" d="M 185.871094 119.503906 C 185.816406 118.707031 185.773438 117.910156 185.699219 117.113281 C 185.664062 116.800781 185.585938 116.476562 185.464844 116.183594 C 185.199219 115.535156 184.648438 115.296875 183.996094 115.296875 C 183.351562 115.296875 182.816406 115.554688 182.605469 116.203125 C 182.417969 116.761719 182.308594 117.347656 182.230469 117.675781 C 182.277344 118.71875 182.320312 119.527344 183.21875 119.777344 C 183.914062 119.96875 184.644531 120.027344 185.367188 120.097656 C 185.738281 120.136719 185.902344 119.875 185.871094 119.503906 Z M 183.203125 119.425781 C 182.867188 119.289062 182.617188 119.03125 182.640625 118.660156 C 182.695312 117.933594 182.746094 117.195312 182.914062 116.488281 C 183.054688 115.882812 183.503906 115.660156 184.136719 115.710938 C 184.691406 115.75 184.972656 116.015625 185.113281 116.628906 C 185.144531 116.765625 185.152344 116.902344 185.160156 117.039062 C 185.21875 117.894531 185.269531 118.75 185.324219 119.675781 C 184.613281 119.738281 183.894531 119.714844 183.203125 119.425781 Z M 183.203125 119.425781 " fill-opacity="1" fill-rule="nonzero"/><path fill="#000000" d="M 186.425781 156.246094 C 186.53125 154.496094 186.511719 152.738281 186.769531 151.023438 C 187.035156 149.292969 187.574219 147.605469 188.023438 145.769531 C 186.445312 147.96875 185.390625 155.117188 186.425781 156.246094 Z M 186.425781 156.246094 " fill-opacity="1" fill-rule="nonzero"/><path fill="#000000" d="M 187.761719 155.988281 C 187.761719 155.117188 187.757812 154.242188 187.761719 153.371094 C 187.761719 152.464844 187.660156 151.542969 187.800781 150.660156 C 187.984375 149.503906 188.351562 148.371094 188.65625 147.234375 C 188.832031 146.578125 189.035156 145.929688 189.226562 145.277344 C 187.15625 148.625 186.878906 152.230469 187.761719 155.988281 Z M 187.761719 155.988281 " fill-opacity="1" fill-rule="nonzero"/><path fill="#000000" d="M 187.074219 132.167969 C 186.890625 131.546875 186.742188 130.917969 186.582031 130.292969 C 186.523438 130.308594 186.460938 130.320312 186.402344 130.332031 C 186.492188 131.101562 186.5625 131.871094 186.675781 132.632812 C 186.78125 133.351562 186.722656 134.035156 186.398438 134.695312 C 186.054688 135.394531 185.734375 136.105469 185.40625 136.816406 C 185.339844 136.960938 185.289062 137.113281 185.234375 137.261719 C 185.273438 137.28125 185.316406 137.308594 185.355469 137.328125 C 185.683594 136.839844 186.011719 136.347656 186.351562 135.863281 C 187.132812 134.738281 187.472656 133.53125 187.074219 132.167969 Z M 187.074219 132.167969 " fill-opacity="1" fill-rule="nonzero"/><path fill="#000000" d="M 188.234375 138.425781 C 188.234375 140.519531 188.234375 142.601562 188.234375 144.6875 C 189.0625 143.175781 188.886719 138.925781 188.234375 138.425781 Z M 188.234375 138.425781 " fill-opacity="1" fill-rule="nonzero"/><path fill="#000000" d="M 174.796875 148.640625 C 175.222656 149.53125 175.726562 150.394531 176.046875 151.320312 C 176.367188 152.253906 176.511719 153.25 176.761719 154.328125 C 177.226562 152.398438 176.378906 149.882812 174.796875 148.640625 Z M 174.796875 148.640625 " fill-opacity="1" fill-rule="nonzero"/><path fill="#000000" d="M 180.167969 136.589844 C 181.234375 136.019531 182.988281 133.457031 182.550781 132.539062 C 181.757812 133.882812 180.960938 135.234375 180.167969 136.589844 Z M 180.167969 136.589844 " fill-opacity="1" fill-rule="nonzero"/><path fill="#000000" d="M 184.832031 159.101562 C 185.148438 157.03125 185.113281 154.964844 184.972656 152.894531 C 184.636719 154.960938 184.625 157.03125 184.832031 159.101562 Z M 184.832031 159.101562 " fill-opacity="1" fill-rule="nonzero"/><path fill="#000000" d="M 187.664062 134.363281 C 186.855469 135.625 186.136719 136.925781 185.730469 138.371094 C 186.375 137.957031 187.84375 134.9375 187.664062 134.363281 Z M 187.664062 134.363281 " fill-opacity="1" fill-rule="nonzero"/><path fill="#000000" d="M 172.011719 138.488281 C 170.945312 137.269531 169.6875 136.296875 168.3125 135.46875 C 169.351562 136.710938 170.617188 137.679688 172.011719 138.488281 Z M 172.011719 138.488281 " fill-opacity="1" fill-rule="nonzero"/><path fill="#000000" d="M 181.789062 122.355469 C 181.886719 122.410156 181.980469 122.515625 182.074219 122.519531 C 182.773438 122.53125 183.472656 122.53125 184.175781 122.511719 C 184.304688 122.507812 184.433594 122.425781 184.566406 122.378906 C 184.554688 122.316406 184.542969 122.25 184.53125 122.1875 C 183.671875 122.046875 182.8125 122.046875 181.941406 122.167969 C 181.886719 122.179688 181.839844 122.289062 181.789062 122.355469 Z M 181.789062 122.355469 " fill-opacity="1" fill-rule="nonzero"/><path fill="#000000" d="M 182.195312 124.304688 C 183.15625 124.589844 184.121094 124.617188 185.085938 124.355469 C 184.128906 124.039062 183.164062 124.109375 182.195312 124.304688 Z M 182.195312 124.304688 " fill-opacity="1" fill-rule="nonzero"/><path fill="#000000" d="M 182.585938 123.417969 C 182.585938 123.480469 182.582031 123.539062 182.582031 123.597656 C 183.363281 123.597656 184.136719 123.597656 184.914062 123.597656 C 184.917969 123.535156 184.921875 123.476562 184.929688 123.417969 C 184.148438 123.28125 183.367188 123.324219 182.585938 123.417969 Z M 182.585938 123.417969 " fill-opacity="1" fill-rule="nonzero"/><path fill="#000000" d="M 188.140625 137.421875 C 188.207031 136.804688 187.964844 136.242188 187.621094 136.175781 C 187.492188 136.703125 187.71875 137.273438 188.140625 137.421875 Z M 188.140625 137.421875 " fill-opacity="1" fill-rule="nonzero"/><path fill="#000000" d="M 185.871094 124.847656 C 185.871094 123.882812 185.871094 122.921875 185.871094 121.957031 C 185.839844 121.957031 185.808594 121.957031 185.777344 121.957031 C 185.777344 122.921875 185.777344 123.882812 185.777344 124.847656 C 185.808594 124.847656 185.839844 124.847656 185.871094 124.847656 Z M 185.871094 124.847656 " fill-opacity="1" fill-rule="nonzero"/><path fill="#000000" d="M 195.074219 118.378906 C 195.074219 118.378906 195.074219 118.382812 195.074219 118.382812 C 194.714844 118.070312 194.355469 117.757812 194 117.445312 C 194.453125 117.296875 194.898438 117.144531 195.351562 116.996094 C 196.921875 118.40625 198.394531 118.546875 199.691406 117.398438 C 200.773438 116.445312 200.914062 114.628906 200.019531 113.316406 C 199.335938 112.320312 197.519531 111.847656 196.480469 112.394531 C 194.789062 113.28125 194.339844 114.652344 195.097656 116.664062 C 195.042969 116.6875 194.992188 116.714844 194.9375 116.726562 C 193.96875 116.917969 192.980469 117.035156 192.039062 117.324219 C 190.953125 117.65625 189.867188 117.738281 188.757812 117.757812 C 188.59375 117.761719 188.4375 117.902344 188.277344 117.980469 C 188.4375 118.066406 188.589844 118.21875 188.75 118.21875 C 189.320312 118.222656 189.890625 118.175781 190.507812 118.144531 C 189.914062 118.9375 189.601562 119.761719 189.804688 120.746094 C 190.011719 121.742188 190.613281 122.394531 191.371094 122.789062 C 191.070312 122.96875 190.730469 123.125 190.445312 123.351562 C 189.984375 123.714844 189.671875 124.171875 189.484375 124.773438 C 189.25 125.527344 189.445312 125.886719 190.253906 125.875 C 190.402344 125.875 190.601562 125.960938 190.683594 126.074219 C 191.007812 126.527344 191.238281 126.621094 191.765625 126.480469 C 191.917969 126.4375 192.09375 126.40625 192.25 126.441406 C 192.988281 126.597656 193.402344 126.257812 193.410156 125.492188 C 193.414062 125.261719 193.484375 125.023438 193.511719 124.789062 C 193.53125 124.648438 193.582031 124.46875 193.523438 124.367188 C 193.289062 123.984375 193.015625 123.628906 192.726562 123.222656 C 192.949219 123.183594 193.113281 123.148438 193.273438 123.121094 C 195.265625 122.824219 196.316406 120.734375 195.382812 118.945312 C 195.277344 118.753906 195.175781 118.566406 195.074219 118.378906 C 195.078125 118.378906 195.078125 118.378906 195.074219 118.378906 C 195.078125 118.378906 195.074219 118.378906 195.074219 118.378906 Z M 195.761719 114.769531 C 195.832031 114.65625 196.011719 114.613281 196.140625 114.539062 C 196.171875 114.671875 196.210938 114.804688 196.21875 114.9375 C 196.230469 115.226562 196.222656 115.515625 196.222656 115.84375 C 195.757812 115.621094 195.546875 115.148438 195.761719 114.769531 Z M 191.710938 118.496094 C 191.984375 118.347656 192.191406 118.472656 192.1875 118.683594 C 192.140625 119.050781 192.144531 119.332031 192.058594 119.582031 C 192.027344 119.675781 191.75 119.796875 191.667969 119.75 C 191.28125 119.539062 191.324219 118.710938 191.710938 118.496094 Z M 193.023438 124.546875 C 192.78125 124.449219 192.570312 124.359375 192.351562 124.269531 C 192.417969 124.734375 192.417969 124.734375 192.992188 124.789062 C 192.992188 124.996094 193.011719 125.203125 192.988281 125.414062 C 192.925781 126.109375 192.914062 126.113281 192.226562 126.027344 C 192.121094 126.015625 192.007812 126.003906 191.914062 126.035156 C 191.472656 126.175781 191.109375 126.242188 190.890625 125.660156 C 190.835938 125.511719 190.449219 125.449219 190.207031 125.417969 C 189.808594 125.375 189.765625 125.226562 189.910156 124.875 C 190.207031 124.152344 190.191406 124.144531 191.230469 123.199219 C 191.230469 123.480469 191.285156 123.683594 191.21875 123.839844 C 191.152344 124.003906 190.96875 124.121094 190.789062 124.300781 C 191.125 124.328125 191.34375 124.347656 191.558594 124.367188 C 191.433594 124.539062 191.308594 124.703125 191.125 124.953125 C 191.363281 124.910156 191.539062 124.882812 191.785156 124.839844 C 191.902344 125.074219 192.03125 125.355469 192.164062 125.632812 C 192.246094 125.601562 192.324219 125.566406 192.402344 125.535156 C 192.164062 124.867188 191.925781 124.195312 191.6875 123.527344 C 192.523438 123.601562 192.9375 123.890625 193.023438 124.546875 Z M 193.023438 124.546875 " fill-opacity="1" fill-rule="nonzero"/><path fill="#000000" d="M 178.941406 106.175781 C 178.566406 106.53125 178.261719 106.964844 177.933594 107.367188 C 177.898438 107.410156 177.898438 107.480469 177.882812 107.542969 C 177.8125 107.78125 177.78125 108.046875 177.664062 108.261719 C 177.363281 108.824219 177.421875 109.066406 177.984375 109.34375 C 178.050781 109.375 178.097656 109.453125 178.152344 109.511719 C 178.082031 109.570312 178.023438 109.671875 177.945312 109.6875 C 177.695312 109.738281 177.433594 109.761719 177.179688 109.789062 C 176.390625 109.882812 175.644531 110.046875 175.226562 110.851562 C 174.753906 109.933594 174.230469 109.621094 173.207031 109.617188 C 173.023438 109.617188 172.839844 109.625 172.660156 109.59375 C 171.910156 109.46875 171.242188 110.167969 171.359375 110.953125 C 171.394531 111.183594 171.394531 111.4375 171.351562 111.667969 C 171.203125 112.480469 171.546875 113.046875 172.355469 113.222656 C 173.339844 113.441406 174.226562 113.269531 174.917969 112.359375 C 174.988281 112.664062 174.992188 112.914062 175.101562 113.101562 C 175.320312 113.472656 175.519531 113.941406 175.859375 114.144531 C 177.761719 115.269531 179.824219 114.058594 180.171875 112.308594 C 180.3125 111.605469 180.347656 110.753906 179.585938 110.222656 C 179.574219 110.210938 179.582031 110.164062 179.566406 110.003906 C 179.878906 110.027344 180.179688 110.011719 180.460938 110.085938 C 181.246094 110.285156 181.5625 110.113281 181.730469 109.300781 C 181.769531 109.105469 181.753906 108.90625 181.789062 108.710938 C 181.839844 108.429688 181.867188 108.136719 181.984375 107.882812 C 182.152344 107.503906 182.140625 107.144531 181.90625 106.839844 C 181.277344 106.019531 179.929688 105.242188 178.941406 106.175781 Z M 172.003906 111.113281 C 172.089844 111.636719 172.160156 112.074219 172.242188 112.589844 C 171.644531 112.257812 171.5625 111.621094 172.003906 111.113281 Z M 181.464844 107.789062 C 181.398438 108.210938 181.371094 108.644531 181.324219 109.066406 C 181.253906 109.734375 181.019531 109.847656 180.414062 109.578125 C 180.238281 109.496094 179.992188 109.585938 179.777344 109.566406 C 179.636719 109.558594 179.386719 109.519531 179.378906 109.460938 C 179.25 108.695312 178.710938 108.742188 178.160156 108.792969 C 178.113281 108.796875 178.074219 108.785156 177.945312 108.777344 C 178.292969 108.132812 178.246094 107.328125 178.984375 106.921875 C 179.082031 106.871094 179.167969 106.757812 179.210938 106.648438 C 179.378906 106.253906 179.851562 106.078125 180.226562 106.304688 C 180.308594 106.351562 180.367188 106.496094 180.367188 106.597656 C 180.375 106.839844 180.339844 107.085938 180.324219 107.328125 C 180.082031 107.296875 179.855469 107.25 179.625 107.246094 C 179.554688 107.246094 179.484375 107.367188 179.410156 107.429688 C 179.488281 107.480469 179.5625 107.558594 179.648438 107.578125 C 179.800781 107.605469 179.964844 107.597656 180.203125 107.613281 C 179.949219 107.773438 179.773438 107.882812 179.597656 107.992188 C 179.609375 108.03125 179.621094 108.070312 179.628906 108.113281 C 179.800781 108.132812 179.972656 108.152344 180.144531 108.171875 C 180.234375 108.316406 180.320312 108.46875 180.410156 108.621094 C 180.453125 108.613281 180.496094 108.605469 180.539062 108.59375 C 180.570312 108.316406 180.597656 108.039062 180.632812 107.726562 C 180.757812 107.734375 180.886719 107.738281 181.101562 107.746094 C 180.929688 107.347656 180.777344 106.980469 180.617188 106.613281 C 180.664062 106.589844 180.707031 106.566406 180.753906 106.542969 C 181.371094 106.820312 181.5625 107.179688 181.464844 107.789062 Z M 181.464844 107.789062 " fill-opacity="1" fill-rule="nonzero"/><path fill="#000000" d="M 202.070312 118.054688 C 202.074219 120.125 203.285156 121.207031 204.898438 121.191406 C 206.605469 121.179688 207.945312 119.992188 207.980469 118.265625 C 208.015625 116.476562 206.699219 115.183594 204.84375 115.164062 C 203.273438 115.148438 202.066406 116.390625 202.070312 118.054688 Z M 203.730469 117.707031 C 203.570312 117.664062 203.453125 117.464844 203.21875 117.246094 C 203.46875 117.003906 203.625 116.769531 203.835938 116.691406 C 203.9375 116.65625 204.234375 116.894531 204.28125 117.058594 C 204.363281 117.339844 203.980469 117.773438 203.730469 117.707031 Z M 203.730469 117.707031 " fill-opacity="1" fill-rule="nonzero"/><path fill="#000000" d="M 194.957031 109.953125 C 194.925781 110.230469 194.894531 110.503906 194.863281 110.8125 C 195.367188 110.765625 195.410156 110.410156 195.46875 110.113281 C 195.527344 109.796875 195.695312 109.679688 195.972656 109.746094 C 196.140625 109.785156 196.320312 109.875 196.449219 109.996094 C 196.960938 110.472656 197.574219 110.578125 198.230469 110.53125 C 199.183594 110.464844 199.714844 109.710938 199.472656 108.78125 C 199.371094 108.390625 199.199219 108.007812 199.421875 107.597656 C 199.4375 107.570312 199.40625 107.519531 199.398438 107.457031 C 199.320312 107.523438 199.253906 107.582031 199.164062 107.65625 C 199.011719 107.40625 198.875 107.171875 198.722656 106.945312 C 198.421875 106.484375 198.066406 106.382812 197.550781 106.554688 C 197.425781 106.597656 197.253906 106.59375 197.128906 106.542969 C 196.6875 106.363281 196.308594 106.457031 195.933594 106.730469 C 195.496094 107.058594 195.042969 107.363281 194.597656 107.679688 C 194.53125 107.730469 194.453125 107.792969 194.425781 107.867188 C 194.109375 108.746094 194.289062 109.433594 194.957031 109.953125 Z M 194.957031 109.953125 " fill-opacity="1" fill-rule="nonzero"/><path fill="#000000" d="M 204.539062 108.628906 C 204.449219 108.546875 204.289062 108.511719 204.164062 108.511719 C 203.605469 108.5 203.046875 108.523438 202.492188 108.503906 C 201.898438 108.488281 201.519531 108.78125 201.253906 109.28125 C 201.15625 109.457031 201.113281 109.675781 200.980469 109.808594 C 200.273438 110.488281 200.519531 111.355469 200.542969 112.148438 C 200.566406 112.785156 200.867188 112.914062 201.476562 112.753906 C 201.636719 112.710938 201.859375 112.734375 201.996094 112.820312 C 202.300781 113.015625 202.566406 113.265625 202.851562 113.496094 C 202.867188 113.46875 202.878906 113.441406 202.894531 113.410156 C 202.9375 113.617188 202.976562 113.824219 203.042969 114.121094 C 203.28125 113.941406 203.425781 113.832031 203.707031 113.628906 C 203.527344 113.515625 203.421875 113.449219 203.261719 113.351562 C 203.425781 113.386719 203.515625 113.402344 203.601562 113.425781 C 204.609375 113.714844 205.039062 113.566406 205.636719 112.734375 C 205.765625 112.554688 205.929688 112.398438 206.117188 112.191406 C 205.976562 112 205.820312 111.785156 205.667969 111.578125 C 206.273438 110.867188 206.273438 110.867188 205.761719 110.523438 C 206.121094 110.179688 205.859375 109.910156 205.628906 109.671875 C 205.28125 109.304688 204.914062 108.960938 204.539062 108.628906 Z M 204.980469 111.660156 C 205.289062 111.949219 205.460938 112.261719 205.144531 112.65625 C 204.832031 113.050781 204.292969 113.207031 203.890625 112.964844 C 203.558594 112.765625 203.261719 112.730469 202.902344 112.871094 C 202.78125 112.917969 202.484375 112.792969 202.445312 112.683594 C 202.296875 112.257812 201.992188 112.238281 201.640625 112.257812 C 201.429688 112.269531 201.222656 112.28125 200.984375 112.292969 C 200.929688 111.484375 200.777344 110.710938 201.320312 110.019531 C 201.488281 109.808594 201.566406 109.519531 201.742188 109.316406 C 201.867188 109.175781 202.117188 109.011719 202.257812 109.050781 C 202.496094 109.113281 202.570312 109.683594 202.429688 109.882812 C 202.316406 110.042969 202.191406 110.199219 202.097656 110.371094 C 202.066406 110.429688 202.113281 110.535156 202.144531 110.765625 C 202.390625 110.476562 202.5625 110.273438 202.753906 110.046875 C 202.980469 110.464844 203.308594 110.8125 202.96875 111.351562 C 203.414062 111.304688 203.53125 111.539062 203.566406 111.890625 C 203.574219 111.972656 203.746094 112.042969 203.84375 112.117188 C 203.882812 112.003906 203.984375 111.867188 203.953125 111.785156 C 203.613281 110.851562 203.253906 109.929688 202.886719 108.964844 C 203.441406 109.003906 204.089844 108.769531 204.554688 109.40625 C 204.605469 109.480469 204.675781 109.558594 204.753906 109.59375 C 205.429688 109.886719 205.253906 110.539062 205.335938 111.0625 C 205.355469 111.203125 205.085938 111.386719 204.933594 111.574219 C 204.941406 111.578125 204.949219 111.632812 204.980469 111.660156 Z M 204.980469 111.660156 " fill-opacity="1" fill-rule="nonzero"/><path fill="#000000" d="M 189.648438 112.226562 C 189.753906 112.238281 189.835938 112.398438 189.9375 112.488281 C 190.113281 112.636719 190.300781 112.917969 190.472656 112.910156 C 191.386719 112.855469 192.285156 112.695312 192.917969 111.90625 C 193.234375 111.519531 193.578125 111.148438 193.898438 110.765625 C 194.007812 110.636719 194.089844 110.480469 194.160156 110.375 C 194.070312 109.886719 194.03125 109.46875 193.90625 109.078125 C 193.78125 108.703125 193.660156 108.175781 193.382812 108.046875 C 192.980469 107.859375 192.625 107.3125 192.046875 107.625 C 191.933594 107.683594 191.777344 107.675781 191.640625 107.675781 C 190.5 107.683594 189.929688 108.632812 189.152344 109.234375 C 189.097656 109.277344 189.070312 109.367188 189.042969 109.4375 C 188.898438 109.789062 188.753906 110.144531 188.617188 110.5 C 188.316406 111.257812 188.847656 112.125 189.648438 112.226562 Z M 189.011719 110.707031 C 189.125 110.359375 189.203125 109.964844 189.414062 109.6875 C 189.792969 109.195312 190.210938 108.6875 190.714844 108.355469 C 191.460938 107.867188 192.636719 108.160156 193.117188 108.914062 C 193.320312 109.222656 193.320312 109.667969 193.414062 110.058594 C 193.328125 110.289062 193.273438 110.511719 193.167969 110.710938 C 193.0625 110.914062 192.878906 111.074219 192.78125 111.277344 C 192.347656 112.195312 191.488281 112.3125 190.644531 112.449219 C 190.542969 112.464844 190.332031 112.320312 190.296875 112.210938 C 190.199219 111.894531 190.007812 111.78125 189.699219 111.75 C 189.078125 111.6875 188.820312 111.292969 189.011719 110.707031 Z M 189.011719 110.707031 " fill-opacity="1" fill-rule="nonzero"/><path fill="#000000" d="M 201.453125 120.78125 C 201.25 120.195312 200.882812 119.785156 200.277344 119.59375 C 199.949219 119.488281 199.640625 119.320312 199.3125 119.21875 C 199.21875 119.183594 199.039062 119.238281 198.972656 119.316406 C 198.476562 119.890625 197.96875 120.460938 197.523438 121.074219 C 197.3125 121.367188 197.242188 121.757812 197.15625 121.984375 C 197.234375 122.496094 197.257812 122.847656 197.34375 123.1875 C 197.464844 123.667969 197.761719 123.851562 198.234375 123.730469 C 198.554688 123.648438 198.855469 123.496094 199.171875 123.386719 C 199.300781 123.339844 199.433594 123.324219 199.558594 123.285156 C 200.097656 123.109375 200.675781 123 201.167969 122.730469 C 201.832031 122.355469 201.886719 122.035156 201.636719 121.304688 C 201.574219 121.128906 201.511719 120.957031 201.453125 120.78125 Z M 201.023438 122.332031 C 200.496094 122.695312 199.953125 123.0625 199.25 122.84375 C 199.1875 122.820312 199.085938 122.882812 199.015625 122.925781 C 198.914062 122.992188 198.835938 123.09375 198.730469 123.152344 C 198.050781 123.539062 197.773438 123.375 197.6875 122.601562 C 197.617188 121.976562 197.699219 121.429688 198.148438 120.945312 C 198.332031 120.746094 198.402344 120.441406 198.527344 120.167969 C 198.882812 120.3125 199.074219 120.488281 198.859375 120.890625 C 198.769531 121.066406 198.742188 121.273438 198.777344 121.507812 C 198.929688 121.308594 199.089844 121.109375 199.1875 120.988281 C 199.691406 121.300781 200.171875 121.617188 200.671875 121.894531 C 200.734375 121.929688 200.898438 121.769531 201.042969 121.6875 C 200.605469 121.449219 200.230469 121.242188 199.742188 120.972656 C 199.992188 120.820312 200.132812 120.738281 200.269531 120.65625 C 200.257812 120.617188 200.242188 120.582031 200.230469 120.542969 C 199.476562 120.949219 199.328125 120.203125 198.871094 119.949219 C 199.5625 119.617188 200.609375 120.027344 200.851562 120.652344 C 200.964844 120.945312 201.121094 121.222656 201.246094 121.519531 C 201.382812 121.839844 201.300781 122.144531 201.023438 122.332031 Z M 201.023438 122.332031 " fill-opacity="1" fill-rule="nonzero"/><path fill="#000000" d="M 168.886719 113.128906 C 168.519531 112.726562 167.707031 112.960938 167.542969 113.445312 C 167.445312 113.734375 167.386719 114.039062 167.324219 114.335938 C 167.261719 114.652344 167.351562 114.929688 167.632812 115.085938 C 167.945312 115.257812 168.28125 115.386719 168.605469 115.535156 C 169.382812 115.464844 169.855469 115.078125 169.679688 114.484375 C 169.527344 113.996094 169.234375 113.507812 168.886719 113.128906 Z M 168.886719 113.128906 " fill-opacity="1" fill-rule="nonzero"/><path fill="#000000" d="M 192.570312 102.066406 C 194.761719 101.996094 196.769531 102.394531 198.71875 103.136719 C 197.398438 101.886719 193.460938 101.171875 192.570312 102.066406 Z M 192.570312 102.066406 " fill-opacity="1" fill-rule="nonzero"/><path fill="#000000" d="M 183.183594 110.695312 C 182.683594 110.691406 182.257812 111.066406 182.242188 111.511719 C 182.230469 111.972656 182.574219 112.328125 183.042969 112.320312 C 183.511719 112.316406 183.875 111.949219 183.878906 111.472656 C 183.878906 110.980469 183.632812 110.699219 183.183594 110.695312 Z M 183.183594 110.695312 " fill-opacity="1" fill-rule="nonzero"/><path fill="#000000" d="M 160.996094 120.859375 C 160.941406 120.871094 160.890625 120.882812 160.835938 120.890625 C 160.804688 121.019531 160.738281 121.148438 160.742188 121.273438 C 160.761719 122.167969 160.695312 123.046875 160.425781 123.910156 C 160.386719 124.046875 160.535156 124.242188 160.597656 124.414062 C 160.730469 124.3125 160.925781 124.238281 160.972656 124.105469 C 161.328125 123.1875 161.398438 122.226562 161.21875 121.257812 C 161.191406 121.109375 161.070312 120.992188 160.996094 120.859375 Z M 160.996094 120.859375 " fill-opacity="1" fill-rule="nonzero"/><path fill="#000000" d="M 208.25 105.625 C 208.300781 105.726562 208.332031 105.847656 208.402344 105.933594 C 209.1875 106.863281 209.976562 107.792969 210.777344 108.707031 C 210.871094 108.808594 211.058594 108.820312 211.203125 108.878906 C 211.234375 108.835938 211.265625 108.792969 211.296875 108.75 C 210.523438 107.488281 209.515625 106.441406 208.25 105.625 Z M 208.25 105.625 " fill-opacity="1" fill-rule="nonzero"/><path fill="#000000" d="M 185.316406 100.597656 C 185.300781 100.65625 185.289062 100.71875 185.277344 100.773438 C 186.609375 101.042969 187.941406 101.316406 189.273438 101.585938 C 189.285156 101.539062 189.292969 101.496094 189.304688 101.449219 C 188.039062 100.859375 186.722656 100.507812 185.316406 100.597656 Z M 185.316406 100.597656 " fill-opacity="1" fill-rule="nonzero"/><path fill="#000000" d="M 208.128906 116.429688 C 208.617188 116.875 209.058594 117.304688 208.710938 118.074219 C 208.625 118.257812 208.78125 118.550781 208.832031 118.796875 C 208.882812 118.78125 208.941406 118.769531 208.992188 118.753906 C 209.414062 117.574219 209.386719 117.375 208.648438 116.402344 C 208.585938 116.316406 208.53125 116.214844 208.449219 116.15625 C 208.3125 116.054688 208.160156 115.976562 208 115.910156 C 207.972656 115.898438 207.847656 116.039062 207.855469 116.050781 C 207.933594 116.191406 208.019531 116.332031 208.128906 116.429688 Z M 208.128906 116.429688 " fill-opacity="1" fill-rule="nonzero"/><path fill="#000000" d="M 160.695312 117.808594 C 161.066406 116.730469 161.339844 115.628906 161.453125 114.398438 C 160.828125 114.894531 160.363281 117.042969 160.695312 117.808594 Z M 160.695312 117.808594 " fill-opacity="1" fill-rule="nonzero"/><path fill="#000000" d="M 212.898438 111.757812 C 212.992188 112.839844 212.972656 113.921875 213.34375 115.078125 C 213.683594 114.269531 213.347656 111.988281 212.898438 111.757812 Z M 212.898438 111.757812 " fill-opacity="1" fill-rule="nonzero"/><path fill="#000000" d="M 197.511719 118.253906 C 197.347656 118.269531 197.152344 118.230469 197.03125 118.308594 C 196.742188 118.484375 196.476562 118.625 196.160156 118.390625 C 195.800781 118.121094 195.441406 118.070312 195.078125 118.378906 C 195.597656 118.578125 196.113281 118.8125 196.652344 118.949219 C 196.855469 118.996094 197.140625 118.847656 197.34375 118.71875 C 197.449219 118.644531 197.457031 118.414062 197.511719 118.253906 Z M 197.511719 118.253906 " fill-opacity="1" fill-rule="nonzero"/><path fill="#000000" d="M 167.851562 115.902344 C 167.738281 115.890625 167.613281 115.972656 167.496094 116.007812 C 167.546875 116.105469 167.582031 116.222656 167.660156 116.296875 C 167.777344 116.414062 167.929688 116.503906 168.0625 116.605469 C 167.738281 116.730469 167.445312 116.84375 167.148438 116.957031 C 167.164062 117 167.183594 117.042969 167.203125 117.089844 C 167.605469 117.089844 168.011719 117.109375 168.410156 117.074219 C 168.492188 117.070312 168.628906 116.855469 168.625 116.746094 C 168.601562 116.34375 168.226562 115.949219 167.851562 115.902344 Z M 167.851562 115.902344 " fill-opacity="1" fill-rule="nonzero"/><path fill="#000000" d="M 174.671875 100.324219 C 174.25 100.589844 173.847656 100.886719 173.464844 101.210938 C 173.375 101.285156 173.402344 101.492188 173.371094 101.636719 C 173.523438 101.617188 173.703125 101.640625 173.816406 101.5625 C 174.191406 101.308594 174.546875 101.023438 174.90625 100.738281 C 174.992188 100.667969 175.058594 100.570312 175.253906 100.351562 C 174.972656 100.332031 174.777344 100.257812 174.671875 100.324219 Z M 174.671875 100.324219 " fill-opacity="1" fill-rule="nonzero"/><path fill="#000000" d="M 173.332031 124.464844 C 173.402344 124.460938 173.472656 124.457031 173.539062 124.457031 C 173.671875 124.261719 173.875 124.078125 173.910156 123.867188 C 173.960938 123.527344 173.714844 123.316406 173.390625 123.300781 C 173.066406 123.289062 172.835938 123.519531 172.894531 123.820312 C 172.941406 124.054688 173.179688 124.25 173.332031 124.464844 Z M 173.332031 124.464844 " fill-opacity="1" fill-rule="nonzero"/><path fill="#000000" d="M 172.0625 124.378906 C 172.183594 123.941406 172.066406 123.753906 171.722656 123.660156 C 171.179688 123.515625 170.414062 123.832031 170.292969 124.28125 C 170.882812 124.441406 171.480469 123.664062 172.0625 124.378906 Z M 172.0625 124.378906 " fill-opacity="1" fill-rule="nonzero"/><path fill="#000000" d="M 159.464844 122.707031 C 159.355469 123.082031 159.253906 123.46875 159.191406 123.855469 C 159.175781 123.957031 159.300781 124.089844 159.359375 124.207031 C 159.460938 124.109375 159.621094 124.035156 159.648438 123.921875 C 159.746094 123.558594 159.800781 123.179688 159.882812 122.734375 C 159.835938 122.65625 159.765625 122.542969 159.699219 122.429688 C 159.625 122.519531 159.496094 122.601562 159.464844 122.707031 Z M 159.464844 122.707031 " fill-opacity="1" fill-rule="nonzero"/><path fill="#000000" d="M 175.828125 109.390625 C 175.917969 109.460938 176.042969 109.488281 176.148438 109.535156 C 176.144531 109.414062 176.183594 109.273438 176.128906 109.179688 C 175.800781 108.574219 175.25 108.304688 174.613281 108.179688 C 174.582031 108.21875 174.550781 108.253906 174.519531 108.292969 C 174.617188 108.386719 174.710938 108.484375 174.816406 108.570312 C 175.152344 108.847656 175.484375 109.125 175.828125 109.390625 Z M 175.828125 109.390625 " fill-opacity="1" fill-rule="nonzero"/><path fill="#000000" d="M 174.828125 123.179688 C 175.015625 123.148438 175.167969 122.910156 175.445312 122.671875 C 175.183594 122.445312 175.046875 122.226562 174.886719 122.210938 C 174.601562 122.1875 174.359375 122.355469 174.347656 122.695312 C 174.339844 123.019531 174.558594 123.222656 174.828125 123.179688 Z M 174.828125 123.179688 " fill-opacity="1" fill-rule="nonzero"/><path fill="#000000" d="M 175.386719 107.378906 C 175.742188 107.367188 176.097656 107.292969 176.484375 107.238281 C 176.519531 106.871094 176.210938 106.710938 175.929688 106.722656 C 175.671875 106.730469 175.417969 106.941406 175.15625 107.066406 C 175.234375 107.175781 175.316406 107.382812 175.386719 107.378906 Z M 175.386719 107.378906 " fill-opacity="1" fill-rule="nonzero"/><path fill="#000000" d="M 195.386719 123.335938 C 195.378906 123.472656 195.199219 123.601562 195.082031 123.71875 C 194.996094 123.804688 194.851562 123.839844 194.789062 123.9375 C 194.757812 123.980469 194.84375 124.1875 194.894531 124.195312 C 195.011719 124.207031 195.183594 124.1875 195.253906 124.109375 C 195.542969 123.789062 195.800781 123.4375 196.117188 123.035156 C 195.699219 122.921875 195.417969 122.824219 195.386719 123.335938 Z M 195.386719 123.335938 " fill-opacity="1" fill-rule="nonzero"/><path fill="#000000" d="M 175.546875 124.960938 C 174.816406 124.621094 174.308594 124.738281 174.21875 125.261719 C 174.984375 125.410156 175.394531 125.316406 175.546875 124.960938 Z M 175.546875 124.960938 " fill-opacity="1" fill-rule="nonzero"/><path fill="#000000" d="M 184.390625 111.050781 C 184.359375 111.042969 184.253906 111.183594 184.261719 111.195312 C 184.351562 111.308594 184.453125 111.40625 184.550781 111.511719 C 184.570312 111.53125 184.582031 111.5625 184.605469 111.613281 C 184.5 111.777344 184.390625 111.945312 184.277344 112.117188 C 184.304688 112.167969 184.335938 112.21875 184.363281 112.273438 C 184.535156 112.195312 184.8125 112.152344 184.855469 112.03125 C 184.933594 111.792969 184.925781 111.5 184.855469 111.257812 C 184.824219 111.148438 184.558594 111.105469 184.390625 111.050781 Z M 184.390625 111.050781 " fill-opacity="1" fill-rule="nonzero"/><path fill="#000000" d="M 177.042969 119.414062 C 176.84375 119.355469 176.597656 119.195312 176.460938 119.261719 C 176.230469 119.375 176.0625 119.621094 175.902344 119.835938 C 175.882812 119.863281 176.066406 120.039062 176.082031 120.0625 C 176.421875 119.832031 176.671875 119.664062 177.042969 119.414062 Z M 177.042969 119.414062 " fill-opacity="1" fill-rule="nonzero"/><path fill="#000000" d="M 192.925781 106.285156 C 192.867188 106.085938 192.679688 105.925781 192.546875 105.746094 C 192.433594 105.882812 192.316406 106.015625 192.140625 106.21875 C 192.328125 106.402344 192.464844 106.535156 192.601562 106.667969 C 192.714844 106.539062 192.949219 106.375 192.925781 106.285156 Z M 192.925781 106.285156 " fill-opacity="1" fill-rule="nonzero"/><path fill="#000000" d="M 198.578125 110.804688 C 198.507812 110.871094 198.433594 111.066406 198.464844 111.097656 C 198.546875 111.179688 198.699219 111.269531 198.800781 111.246094 C 199.03125 111.1875 199.25 111.066406 199.507812 110.957031 C 199.246094 110.566406 198.890625 110.511719 198.578125 110.804688 Z M 198.578125 110.804688 " fill-opacity="1" fill-rule="nonzero"/><path fill="#000000" d="M 201.703125 114.683594 C 201.601562 114.671875 201.363281 114.964844 201.394531 115.023438 C 201.472656 115.1875 201.636719 115.351562 201.804688 115.417969 C 201.878906 115.445312 202.042969 115.234375 202.269531 115.050781 C 202.015625 114.871094 201.867188 114.699219 201.703125 114.683594 Z M 201.703125 114.683594 " fill-opacity="1" fill-rule="nonzero"/><path fill="#000000" d="M 191.785156 114.566406 C 191.847656 114.683594 191.886719 114.816406 191.96875 114.917969 C 192.074219 115.046875 192.210938 115.148438 192.363281 115.289062 C 192.589844 115.039062 192.523438 114.519531 192.226562 114.445312 C 192.09375 114.414062 191.933594 114.519531 191.785156 114.566406 Z M 191.785156 114.566406 " fill-opacity="1" fill-rule="nonzero"/><path fill="#000000" d="M 177.011719 106.316406 C 176.835938 106.214844 176.664062 106.0625 176.46875 106.023438 C 176.363281 106.003906 176.222656 106.171875 176.097656 106.253906 C 176.269531 106.386719 176.441406 106.523438 176.683594 106.710938 C 176.835938 106.535156 176.921875 106.425781 177.011719 106.316406 Z M 177.011719 106.316406 " fill-opacity="1" fill-rule="nonzero"/><path fill="#000000" d="M 169.757812 113.089844 C 169.796875 113.246094 169.96875 113.363281 170.082031 113.496094 C 170.183594 113.382812 170.363281 113.273438 170.375 113.148438 C 170.382812 113.019531 170.234375 112.878906 170.09375 112.636719 C 169.921875 112.859375 169.730469 113.003906 169.757812 113.089844 Z M 169.757812 113.089844 " fill-opacity="1" fill-rule="nonzero"/><path fill="#000000" d="M 190.621094 115.238281 C 190.496094 115.300781 190.414062 115.453125 190.3125 115.566406 C 190.453125 115.613281 190.59375 115.695312 190.730469 115.691406 C 190.898438 115.683594 191.058594 115.597656 191.246094 115.542969 C 191.136719 115.15625 190.902344 115.101562 190.621094 115.238281 Z M 190.621094 115.238281 " fill-opacity="1" fill-rule="nonzero"/><path fill="#000000" d="M 181.761719 105.464844 C 181.972656 105.398438 182.164062 105.265625 182.367188 105.15625 C 182.265625 105.0625 182.164062 104.96875 182.003906 104.820312 C 181.808594 104.988281 181.648438 105.121094 181.488281 105.253906 C 181.578125 105.328125 181.699219 105.484375 181.761719 105.464844 Z M 181.761719 105.464844 " fill-opacity="1" fill-rule="nonzero"/><path fill="#000000" d="M 193.984375 105.34375 C 193.945312 105.210938 193.777344 105.058594 193.640625 105.027344 C 193.5625 105.007812 193.335938 105.214844 193.34375 105.308594 C 193.355469 105.445312 193.507812 105.578125 193.667969 105.804688 C 193.835938 105.582031 194.011719 105.433594 193.984375 105.34375 Z M 193.984375 105.34375 " fill-opacity="1" fill-rule="nonzero"/><path fill="#000000" d="M 196.769531 112.085938 C 196.90625 112.054688 197.015625 111.90625 197.195312 111.761719 C 197.03125 111.585938 196.933594 111.488281 196.84375 111.390625 C 196.722656 111.539062 196.585938 111.675781 196.496094 111.84375 C 196.484375 111.871094 196.699219 112.105469 196.769531 112.085938 Z M 196.769531 112.085938 " fill-opacity="1" fill-rule="nonzero"/><path fill="#000000" d="M 200.578125 109.3125 C 200.546875 109.261719 200.519531 109.210938 200.488281 109.160156 C 200.289062 109.160156 200.089844 109.160156 199.765625 109.160156 C 199.890625 109.382812 199.972656 109.53125 200.058594 109.675781 C 200.230469 109.558594 200.402344 109.433594 200.578125 109.3125 Z M 200.578125 109.3125 " fill-opacity="1" fill-rule="nonzero"/><path fill="#000000" d="M 202.082031 121.203125 C 202.1875 121.355469 202.320312 121.488281 202.457031 121.609375 C 202.464844 121.617188 202.597656 121.480469 202.746094 121.34375 C 202.539062 121.1875 202.398438 121.074219 202.25 120.980469 C 202.238281 120.972656 202.0625 121.179688 202.082031 121.203125 Z M 202.082031 121.203125 " fill-opacity="1" fill-rule="nonzero"/><path fill="#000000" d="M 182.917969 109.519531 C 183.007812 109.417969 183.167969 109.320312 183.171875 109.21875 C 183.175781 109.09375 183.046875 108.964844 182.898438 108.714844 C 182.78125 108.949219 182.675781 109.0625 182.695312 109.148438 C 182.722656 109.28125 182.835938 109.394531 182.917969 109.519531 Z M 182.917969 109.519531 " fill-opacity="1" fill-rule="nonzero"/><path fill="#000000" d="M 200 112.847656 C 200.046875 112.878906 200.1875 112.753906 200.355469 112.65625 C 200.199219 112.472656 200.105469 112.355469 200.007812 112.238281 C 199.90625 112.332031 199.710938 112.445312 199.722656 112.507812 C 199.75 112.640625 199.882812 112.769531 200 112.847656 Z M 200 112.847656 " fill-opacity="1" fill-rule="nonzero"/><path fill="#000000" d="M 191.710938 105.179688 C 191.71875 105.097656 191.558594 104.949219 191.445312 104.921875 C 191.382812 104.90625 191.195312 105.058594 191.195312 105.136719 C 191.195312 105.257812 191.304688 105.378906 191.410156 105.585938 C 191.5625 105.402344 191.707031 105.296875 191.710938 105.179688 Z M 191.710938 105.179688 " fill-opacity="1" fill-rule="nonzero"/><path fill="#000000" d="M 207.203125 112.058594 C 206.980469 111.910156 206.863281 111.792969 206.726562 111.757812 C 206.667969 111.746094 206.566406 111.894531 206.480469 111.96875 C 206.597656 112.066406 206.703125 112.195312 206.832031 112.253906 C 206.890625 112.28125 207.007812 112.167969 207.203125 112.058594 Z M 207.203125 112.058594 " fill-opacity="1" fill-rule="nonzero"/><path fill="#000000" d="M 207.417969 113.953125 C 207.523438 113.957031 207.632812 113.839844 207.835938 113.714844 C 207.640625 113.5625 207.53125 113.410156 207.4375 113.421875 C 207.34375 113.433594 207.226562 113.597656 207.207031 113.710938 C 207.195312 113.785156 207.339844 113.953125 207.417969 113.953125 Z M 207.417969 113.953125 " fill-opacity="1" fill-rule="nonzero"/><path fill="#000000" d="M 188.386719 112.917969 C 188.550781 112.945312 188.722656 112.875 188.894531 112.839844 C 188.898438 112.78125 188.90625 112.722656 188.910156 112.65625 C 188.726562 112.578125 188.550781 112.503906 188.367188 112.421875 C 188.328125 112.464844 188.289062 112.503906 188.246094 112.546875 C 188.292969 112.679688 188.320312 112.902344 188.386719 112.917969 Z M 188.386719 112.917969 " fill-opacity="1" fill-rule="nonzero"/><path fill="#000000" d="M 196.296875 120.601562 C 196.296875 120.792969 196.277344 120.988281 196.3125 121.175781 C 196.316406 121.210938 196.511719 121.21875 196.617188 121.234375 C 196.601562 121.023438 196.585938 120.808594 196.570312 120.597656 C 196.480469 120.601562 196.386719 120.601562 196.296875 120.601562 Z M 196.296875 120.601562 " fill-opacity="1" fill-rule="nonzero"/><path fill="#000000" d="M 175.367188 114.199219 C 175.417969 114.363281 175.445312 114.539062 175.527344 114.691406 C 175.539062 114.71875 175.757812 114.632812 175.878906 114.601562 C 175.773438 114.4375 175.671875 114.277344 175.5625 114.109375 C 175.5 114.136719 175.433594 114.164062 175.367188 114.199219 Z M 175.367188 114.199219 " fill-opacity="1" fill-rule="nonzero"/><path fill="#000000" d="M 188.832031 126.554688 C 188.761719 126.652344 188.613281 126.808594 188.628906 126.828125 C 188.71875 126.941406 188.839844 127.046875 188.972656 127.09375 C 189.019531 127.109375 189.191406 126.929688 189.191406 126.84375 C 189.191406 126.707031 189.089844 126.578125 189.03125 126.441406 C 188.964844 126.480469 188.898438 126.519531 188.832031 126.554688 Z M 188.832031 126.554688 " fill-opacity="1" fill-rule="nonzero"/><path fill="#000000" d="M 171.535156 113.863281 C 171.570312 113.976562 171.710938 114.066406 171.824219 114.136719 C 171.839844 114.148438 172.015625 113.988281 172.003906 113.933594 C 171.980469 113.804688 171.886719 113.691406 171.773438 113.488281 C 171.652344 113.671875 171.515625 113.792969 171.535156 113.863281 Z M 171.535156 113.863281 " fill-opacity="1" fill-rule="nonzero"/><path fill="#000000" d="M 200.660156 108.199219 C 200.433594 108.082031 200.320312 107.988281 200.195312 107.96875 C 200.136719 107.957031 200.058594 108.085938 199.988281 108.15625 C 200.089844 108.246094 200.183594 108.367188 200.304688 108.417969 C 200.363281 108.4375 200.472656 108.316406 200.660156 108.199219 Z M 200.660156 108.199219 " fill-opacity="1" fill-rule="nonzero"/><path fill="#000000" d="M 195.320312 112.285156 C 195.234375 112.28125 195.136719 112.425781 195.042969 112.507812 C 195.125 112.578125 195.199219 112.691406 195.292969 112.710938 C 195.378906 112.730469 195.488281 112.652344 195.667969 112.589844 C 195.503906 112.4375 195.417969 112.289062 195.320312 112.285156 Z M 195.320312 112.285156 " fill-opacity="1" fill-rule="nonzero"/><path fill="#000000" d="M 194.929688 105.585938 C 194.90625 105.632812 194.875 105.6875 194.851562 105.738281 C 195.042969 105.84375 195.238281 105.949219 195.511719 106.097656 C 195.453125 105.617188 195.28125 105.460938 194.929688 105.585938 Z M 194.929688 105.585938 " fill-opacity="1" fill-rule="nonzero"/><path fill="#000000" d="M 167.332031 122.035156 C 167.394531 122.394531 167.324219 122.769531 167.34375 123.136719 C 167.351562 123.273438 167.449219 123.410156 167.503906 123.546875 C 167.570312 123.414062 167.648438 123.28125 167.699219 123.140625 C 167.78125 122.90625 167.84375 122.667969 167.957031 122.300781 C 167.871094 122.054688 167.734375 121.640625 167.582031 121.230469 C 167.515625 121.050781 167.519531 120.9375 167.726562 120.976562 C 167.5625 120.867188 167.402344 120.738281 167.222656 120.675781 C 167.113281 120.636719 166.960938 120.71875 166.824219 120.746094 C 166.867188 120.859375 166.90625 120.972656 166.949219 121.082031 C 167.082031 121.402344 167.273438 121.707031 167.332031 122.035156 Z M 167.332031 122.035156 " fill-opacity="1" fill-rule="nonzero"/><path fill="#000000" d="M 167.785156 121.011719 C 167.78125 121.003906 167.777344 120.996094 167.773438 120.992188 C 167.761719 120.988281 167.742188 120.984375 167.730469 120.980469 C 167.738281 120.988281 167.75 120.996094 167.761719 121 C 167.769531 121.003906 167.777344 121.007812 167.785156 121.011719 Z M 167.785156 121.011719 " fill-opacity="1" fill-rule="nonzero"/><path fill="#000000" d="M 168.515625 121.722656 C 168.507812 121.597656 168.546875 121.390625 168.484375 121.347656 C 168.269531 121.207031 168.019531 121.117188 167.785156 121.011719 C 167.886719 121.203125 167.964844 121.414062 168.101562 121.566406 C 168.1875 121.667969 168.375 121.675781 168.515625 121.722656 Z M 168.515625 121.722656 " fill-opacity="1" fill-rule="nonzero"/><path fill="#000000" d="M 180.308594 115.445312 C 179.996094 115.414062 179.6875 115.378906 179.371094 115.347656 C 179.359375 115.433594 179.347656 115.519531 179.34375 115.605469 C 179.652344 115.644531 179.960938 115.683594 180.269531 115.722656 C 180.28125 115.632812 180.296875 115.539062 180.308594 115.445312 Z M 180.308594 115.445312 " fill-opacity="1" fill-rule="nonzero"/><path fill="#000000" d="M 203.597656 110.210938 C 203.835938 110.628906 204.226562 110.601562 204.652344 110.636719 C 204.457031 110.113281 204.132812 109.988281 203.597656 110.210938 Z M 203.597656 110.210938 " fill-opacity="1" fill-rule="nonzero"/><path fill="#000000" d="M 191.847656 109.15625 C 192.171875 109.351562 192.234375 109.632812 192.1875 109.980469 C 192.167969 110.101562 192.195312 110.230469 192.199219 110.351562 C 192.242188 110.351562 192.289062 110.347656 192.328125 110.34375 C 192.621094 109.785156 192.488281 109.074219 192.027344 108.859375 C 191.9375 108.816406 191.796875 108.878906 191.675781 108.890625 C 191.734375 108.988281 191.769531 109.109375 191.847656 109.15625 Z M 191.847656 109.15625 " fill-opacity="1" fill-rule="nonzero"/><path fill="#000000" d="M 190.875 111.660156 C 190.988281 111.523438 191.109375 111.402344 191.101562 111.394531 C 190.988281 111.269531 190.855469 111.15625 190.726562 111.042969 C 190.660156 111.125 190.519531 111.246094 190.539062 111.277344 C 190.609375 111.40625 190.726562 111.507812 190.875 111.660156 Z M 190.875 111.660156 " fill-opacity="1" fill-rule="nonzero"/><g fill="#000000" fill-opacity="1"><g transform="translate(60.544409, 197.821191)"><g><path d="M 21.40625 -2.015625 C 20.789062 -1.503906 19.8125 -0.992188 18.46875 -0.484375 C 17.125 0.015625 15.65625 0.265625 14.0625 0.265625 C 11.53125 0.265625 9.328125 -0.285156 7.453125 -1.390625 C 5.578125 -2.492188 4.140625 -3.976562 3.140625 -5.84375 C 2.148438 -7.707031 1.65625 -9.753906 1.65625 -11.984375 C 1.65625 -14.429688 2.148438 -16.613281 3.140625 -18.53125 C 4.140625 -20.445312 5.53125 -21.941406 7.3125 -23.015625 C 9.101562 -24.085938 11.164062 -24.625 13.5 -24.625 C 14.976562 -24.625 16.34375 -24.425781 17.59375 -24.03125 C 18.851562 -23.632812 19.960938 -23.132812 20.921875 -22.53125 L 19.03125 -18 C 17.289062 -19.320312 15.503906 -19.984375 13.671875 -19.984375 C 12.429688 -19.984375 11.269531 -19.640625 10.1875 -18.953125 C 9.113281 -18.273438 8.253906 -17.34375 7.609375 -16.15625 C 6.972656 -14.976562 6.65625 -13.675781 6.65625 -12.25 C 6.65625 -10.675781 6.953125 -9.300781 7.546875 -8.125 C 8.140625 -6.945312 8.988281 -6.023438 10.09375 -5.359375 C 11.195312 -4.703125 12.488281 -4.375 13.96875 -4.375 C 15.15625 -4.375 16.222656 -4.566406 17.171875 -4.953125 C 18.117188 -5.335938 18.867188 -5.796875 19.421875 -6.328125 Z M 21.40625 -2.015625 "/></g></g></g><g fill="#000000" fill-opacity="1"><g transform="translate(110.085637, 197.821191)"><g><path d="M 16.28125 0 L 11.15625 -7.75 L 7.9375 -7.75 L 7.9375 0 L 3.140625 0 L 3.140625 -24.359375 L 10.53125 -24.359375 C 13.550781 -24.359375 15.894531 -23.625 17.5625 -22.15625 C 19.226562 -20.6875 20.0625 -18.6875 20.0625 -16.15625 C 20.0625 -14.65625 19.742188 -13.25 19.109375 -11.9375 C 18.484375 -10.625 17.519531 -9.59375 16.21875 -8.84375 L 21.875 0 Z M 7.9375 -12.375 L 11.34375 -12.375 C 12.644531 -12.375 13.59375 -12.753906 14.1875 -13.515625 C 14.789062 -14.273438 15.09375 -15.097656 15.09375 -15.984375 C 15.09375 -16.867188 14.835938 -17.710938 14.328125 -18.515625 C 13.816406 -19.316406 12.835938 -19.71875 11.390625 -19.71875 L 7.9375 -19.71875 Z M 7.9375 -12.375 "/></g></g></g><g fill="#000000" fill-opacity="1"><g transform="translate(159.262829, 197.821191)"><g><path d="M 19.75 -24.359375 L 19.75 -19.71875 L 7.9375 -19.71875 L 7.9375 -14.53125 L 18.40625 -14.53125 L 18.40625 -9.890625 L 7.9375 -9.890625 L 7.9375 -4.640625 L 20.21875 -4.640625 L 20.21875 0 L 3.140625 0 L 3.140625 -24.359375 Z M 19.75 -24.359375 "/></g></g></g><g fill="#000000" fill-opacity="1"><g transform="translate(207.778158, 197.821191)"><g><path d="M 15.1875 -4.765625 L 7.109375 -4.765625 L 5.125 0 L 0.390625 0 L 11.390625 -25.3125 L 11.65625 -25.3125 L 22.640625 0 L 17.078125 0 Z M 13.59375 -8.796875 L 11.25 -14.734375 L 8.796875 -8.796875 Z M 13.59375 -8.796875 "/></g></g></g><g fill="#000000" fill-opacity="1"><g transform="translate(257.286287, 197.821191)"><g><path d="M 17.90625 -24.359375 L 17.90625 -19.71875 L 11.984375 -19.71875 L 11.984375 0 L 7.1875 0 L 7.1875 -19.71875 L 1.484375 -19.71875 L 1.484375 -24.359375 Z M 17.90625 -24.359375 "/></g></g></g><g fill="#000000" fill-opacity="1"><g transform="translate(303.154127, 197.821191)"><g><path d="M 19.75 -24.359375 L 19.75 -19.71875 L 7.9375 -19.71875 L 7.9375 -14.53125 L 18.40625 -14.53125 L 18.40625 -9.890625 L 7.9375 -9.890625 L 7.9375 -4.640625 L 20.21875 -4.640625 L 20.21875 0 L 3.140625 0 L 3.140625 -24.359375 Z M 19.75 -24.359375 "/></g></g></g><g fill="#000000" fill-opacity="1"><g transform="translate(351.681196, 197.821191)"><g/></g></g><g fill="#000000" fill-opacity="1"><g transform="translate(164.496542, 226.574878)"><g><path d="M 7.515625 -8.03125 L 4.5 -2.609375 L 4.5 0 L 3.21875 0 L 3.21875 -2.609375 L 0.25 -8.03125 L 1.828125 -8.03125 L 3.90625 -4.078125 L 5.9375 -8.03125 Z M 7.515625 -8.03125 "/></g></g></g><g fill="#000000" fill-opacity="1"><g transform="translate(176.675072, 226.574878)"><g><path d="M 0.609375 -4 C 0.609375 -4.738281 0.789062 -5.421875 1.15625 -6.046875 C 1.519531 -6.679688 2.015625 -7.1875 2.640625 -7.5625 C 3.273438 -7.9375 3.960938 -8.125 4.703125 -8.125 C 5.441406 -8.125 6.125 -7.9375 6.75 -7.5625 C 7.382812 -7.1875 7.890625 -6.679688 8.265625 -6.046875 C 8.640625 -5.410156 8.828125 -4.726562 8.828125 -4 C 8.828125 -3.257812 8.640625 -2.578125 8.265625 -1.953125 C 7.890625 -1.328125 7.382812 -0.828125 6.75 -0.453125 C 6.125 -0.0859375 5.441406 0.09375 4.703125 0.09375 C 3.960938 0.09375 3.273438 -0.0859375 2.640625 -0.453125 C 2.015625 -0.816406 1.519531 -1.3125 1.15625 -1.9375 C 0.789062 -2.5625 0.609375 -3.25 0.609375 -4 Z M 1.9375 -4 C 1.9375 -3.476562 2.0625 -3 2.3125 -2.5625 C 2.5625 -2.132812 2.898438 -1.789062 3.328125 -1.53125 C 3.753906 -1.269531 4.226562 -1.140625 4.75 -1.140625 C 5.25 -1.140625 5.707031 -1.265625 6.125 -1.515625 C 6.550781 -1.773438 6.882812 -2.125 7.125 -2.5625 C 7.375 -3 7.5 -3.476562 7.5 -4 C 7.5 -4.519531 7.375 -5 7.125 -5.4375 C 6.875 -5.882812 6.535156 -6.238281 6.109375 -6.5 C 5.679688 -6.757812 5.210938 -6.890625 4.703125 -6.890625 C 4.191406 -6.890625 3.722656 -6.757812 3.296875 -6.5 C 2.878906 -6.238281 2.546875 -5.882812 2.296875 -5.4375 C 2.054688 -5 1.9375 -4.519531 1.9375 -4 Z M 1.9375 -4 "/></g></g></g><g fill="#000000" fill-opacity="1"><g transform="translate(190.519328, 226.574878)"><g><path d="M 2.265625 -2.890625 C 2.265625 -2.578125 2.34375 -2.285156 2.5 -2.015625 C 2.664062 -1.753906 2.882812 -1.546875 3.15625 -1.390625 C 3.4375 -1.234375 3.742188 -1.15625 4.078125 -1.15625 C 4.421875 -1.15625 4.734375 -1.234375 5.015625 -1.390625 C 5.304688 -1.546875 5.53125 -1.753906 5.6875 -2.015625 C 5.851562 -2.285156 5.9375 -2.578125 5.9375 -2.890625 L 5.9375 -8.03125 L 7.203125 -8.03125 L 7.203125 -2.859375 C 7.203125 -2.285156 7.0625 -1.773438 6.78125 -1.328125 C 6.507812 -0.878906 6.132812 -0.53125 5.65625 -0.28125 C 5.175781 -0.03125 4.648438 0.09375 4.078125 0.09375 C 3.503906 0.09375 2.976562 -0.03125 2.5 -0.28125 C 2.03125 -0.53125 1.660156 -0.878906 1.390625 -1.328125 C 1.117188 -1.773438 0.984375 -2.285156 0.984375 -2.859375 L 0.984375 -8.03125 L 2.265625 -8.03125 Z M 2.265625 -2.890625 "/></g></g></g><g fill="#000000" fill-opacity="1"><g transform="translate(203.106014, 226.574878)"><g><path d="M 5.5 0 L 3.6875 -2.796875 L 2.390625 -2.796875 L 2.390625 0 L 1.109375 0 L 1.109375 -8.03125 L 3.359375 -8.03125 C 4.253906 -8.03125 4.972656 -7.800781 5.515625 -7.34375 C 6.054688 -6.882812 6.328125 -6.253906 6.328125 -5.453125 C 6.328125 -4.953125 6.222656 -4.488281 6.015625 -4.0625 C 5.804688 -3.644531 5.476562 -3.320312 5.03125 -3.09375 L 6.984375 0 Z M 2.390625 -4.03125 L 3.546875 -4.03125 C 4.054688 -4.03125 4.425781 -4.171875 4.65625 -4.453125 C 4.894531 -4.734375 5.015625 -5.050781 5.015625 -5.40625 C 5.015625 -5.613281 4.96875 -5.820312 4.875 -6.03125 C 4.789062 -6.238281 4.640625 -6.414062 4.421875 -6.5625 C 4.210938 -6.71875 3.929688 -6.796875 3.578125 -6.796875 L 2.390625 -6.796875 Z M 2.390625 -4.03125 "/></g></g></g><g fill="#000000" fill-opacity="1"><g transform="translate(145.091325, 249.809166)"><g><path d="M 1.5 -1.921875 C 1.5 -1.710938 1.550781 -1.519531 1.65625 -1.34375 C 1.769531 -1.164062 1.914062 -1.023438 2.09375 -0.921875 C 2.28125 -0.816406 2.488281 -0.765625 2.71875 -0.765625 C 2.945312 -0.765625 3.15625 -0.816406 3.34375 -0.921875 C 3.53125 -1.023438 3.675781 -1.164062 3.78125 -1.34375 C 3.882812 -1.519531 3.9375 -1.710938 3.9375 -1.921875 L 3.9375 -5.328125 L 4.78125 -5.328125 L 4.78125 -1.890625 C 4.78125 -1.515625 4.6875 -1.175781 4.5 -0.875 C 4.320312 -0.582031 4.070312 -0.351562 3.75 -0.1875 C 3.4375 -0.0195312 3.09375 0.0625 2.71875 0.0625 C 2.332031 0.0625 1.976562 -0.0195312 1.65625 -0.1875 C 1.34375 -0.351562 1.097656 -0.582031 0.921875 -0.875 C 0.742188 -1.175781 0.65625 -1.515625 0.65625 -1.890625 L 0.65625 -5.328125 L 1.5 -5.328125 Z M 1.5 -1.921875 "/></g></g></g><g fill="#000000" fill-opacity="1"><g transform="translate(153.450134, 249.809166)"><g><path d="M 5.4375 -5.328125 L 5.4375 0.1875 L 5.421875 0.1875 L 1.578125 -3.546875 L 1.59375 0 L 0.734375 0 L 0.734375 -5.515625 L 0.78125 -5.515625 L 4.609375 -1.75 L 4.59375 -5.328125 Z M 5.4375 -5.328125 "/></g></g></g><g fill="#000000" fill-opacity="1"><g transform="translate(162.563508, 249.809166)"><g><path d="M 1.59375 -5.328125 L 1.59375 0 L 0.734375 0 L 0.734375 -5.328125 Z M 1.59375 -5.328125 "/></g></g></g><g fill="#000000" fill-opacity="1"><g transform="translate(167.816149, 249.809166)"><g><path d="M 6.109375 0 L 3.6875 0 C 3.5 0.0390625 3.3125 0.0625 3.125 0.0625 C 2.632812 0.0625 2.179688 -0.0546875 1.765625 -0.296875 C 1.347656 -0.546875 1.015625 -0.875 0.765625 -1.28125 C 0.523438 -1.695312 0.40625 -2.15625 0.40625 -2.65625 C 0.40625 -3.144531 0.523438 -3.597656 0.765625 -4.015625 C 1.015625 -4.429688 1.347656 -4.765625 1.765625 -5.015625 C 2.179688 -5.265625 2.632812 -5.390625 3.125 -5.390625 C 3.613281 -5.390625 4.066406 -5.265625 4.484375 -5.015625 C 4.898438 -4.765625 5.234375 -4.429688 5.484375 -4.015625 C 5.734375 -3.597656 5.859375 -3.144531 5.859375 -2.65625 C 5.859375 -2.3125 5.796875 -1.984375 5.671875 -1.671875 C 5.546875 -1.359375 5.375 -1.078125 5.15625 -0.828125 L 6.109375 -0.828125 Z M 1.28125 -2.65625 C 1.28125 -2.3125 1.363281 -1.992188 1.53125 -1.703125 C 1.695312 -1.421875 1.921875 -1.191406 2.203125 -1.015625 C 2.492188 -0.847656 2.8125 -0.765625 3.15625 -0.765625 C 3.488281 -0.765625 3.789062 -0.847656 4.0625 -1.015625 C 4.34375 -1.191406 4.566406 -1.421875 4.734375 -1.703125 C 4.898438 -1.992188 4.984375 -2.3125 4.984375 -2.65625 C 4.984375 -3 4.898438 -3.3125 4.734375 -3.59375 C 4.566406 -3.882812 4.34375 -4.113281 4.0625 -4.28125 C 3.78125 -4.457031 3.46875 -4.546875 3.125 -4.546875 C 2.78125 -4.546875 2.46875 -4.457031 2.1875 -4.28125 C 1.90625 -4.113281 1.679688 -3.882812 1.515625 -3.59375 C 1.359375 -3.3125 1.28125 -3 1.28125 -2.65625 Z M 1.28125 -2.65625 "/></g></g></g><g fill="#000000" fill-opacity="1"><g transform="translate(177.266512, 249.809166)"><g><path d="M 1.5 -1.921875 C 1.5 -1.710938 1.550781 -1.519531 1.65625 -1.34375 C 1.769531 -1.164062 1.914062 -1.023438 2.09375 -0.921875 C 2.28125 -0.816406 2.488281 -0.765625 2.71875 -0.765625 C 2.945312 -0.765625 3.15625 -0.816406 3.34375 -0.921875 C 3.53125 -1.023438 3.675781 -1.164062 3.78125 -1.34375 C 3.882812 -1.519531 3.9375 -1.710938 3.9375 -1.921875 L 3.9375 -5.328125 L 4.78125 -5.328125 L 4.78125 -1.890625 C 4.78125 -1.515625 4.6875 -1.175781 4.5 -0.875 C 4.320312 -0.582031 4.070312 -0.351562 3.75 -0.1875 C 3.4375 -0.0195312 3.09375 0.0625 2.71875 0.0625 C 2.332031 0.0625 1.976562 -0.0195312 1.65625 -0.1875 C 1.34375 -0.351562 1.097656 -0.582031 0.921875 -0.875 C 0.742188 -1.175781 0.65625 -1.515625 0.65625 -1.890625 L 0.65625 -5.328125 L 1.5 -5.328125 Z M 1.5 -1.921875 "/></g></g></g><g fill="#000000" fill-opacity="1"><g transform="translate(185.625321, 249.809166)"><g><path d="M 4.265625 -5.328125 L 4.265625 -4.515625 L 1.59375 -4.515625 L 1.59375 -3.09375 L 3.984375 -3.09375 L 3.984375 -2.265625 L 1.59375 -2.265625 L 1.59375 -0.828125 L 4.375 -0.828125 L 4.375 0 L 0.734375 0 L 0.734375 -5.328125 Z M 4.265625 -5.328125 "/></g></g></g><g fill="#000000" fill-opacity="1"><g transform="translate(193.376086, 249.809166)"><g/></g></g><g fill="#000000" fill-opacity="1"><g transform="translate(198.650703, 249.809166)"><g><path d="M 3.96875 -5.328125 L 3.96875 -4.515625 L 1.59375 -4.515625 L 1.59375 -3.015625 L 3.65625 -3.015625 L 3.65625 -2.203125 L 1.59375 -2.203125 L 1.59375 0 L 0.734375 0 L 0.734375 -5.328125 Z M 3.96875 -5.328125 "/></g></g></g><g fill="#000000" fill-opacity="1"><g transform="translate(205.925281, 249.809166)"><g><path d="M 0.40625 -2.65625 C 0.40625 -3.144531 0.523438 -3.597656 0.765625 -4.015625 C 1.015625 -4.429688 1.347656 -4.765625 1.765625 -5.015625 C 2.179688 -5.265625 2.632812 -5.390625 3.125 -5.390625 C 3.613281 -5.390625 4.066406 -5.265625 4.484375 -5.015625 C 4.898438 -4.765625 5.234375 -4.429688 5.484375 -4.015625 C 5.734375 -3.597656 5.859375 -3.144531 5.859375 -2.65625 C 5.859375 -2.164062 5.734375 -1.710938 5.484375 -1.296875 C 5.242188 -0.878906 4.910156 -0.546875 4.484375 -0.296875 C 4.066406 -0.0546875 3.613281 0.0625 3.125 0.0625 C 2.632812 0.0625 2.179688 -0.0546875 1.765625 -0.296875 C 1.347656 -0.546875 1.015625 -0.875 0.765625 -1.28125 C 0.523438 -1.695312 0.40625 -2.15625 0.40625 -2.65625 Z M 1.28125 -2.65625 C 1.28125 -2.3125 1.363281 -1.992188 1.53125 -1.703125 C 1.695312 -1.421875 1.921875 -1.191406 2.203125 -1.015625 C 2.492188 -0.847656 2.8125 -0.765625 3.15625 -0.765625 C 3.488281 -0.765625 3.789062 -0.847656 4.0625 -1.015625 C 4.34375 -1.179688 4.566406 -1.410156 4.734375 -1.703125 C 4.898438 -1.992188 4.984375 -2.3125 4.984375 -2.65625 C 4.984375 -3.007812 4.898438 -3.332031 4.734375 -3.625 C 4.566406 -3.914062 4.34375 -4.144531 4.0625 -4.3125 C 3.78125 -4.488281 3.46875 -4.578125 3.125 -4.578125 C 2.78125 -4.578125 2.46875 -4.488281 2.1875 -4.3125 C 1.90625 -4.144531 1.679688 -3.914062 1.515625 -3.625 C 1.359375 -3.332031 1.28125 -3.007812 1.28125 -2.65625 Z M 1.28125 -2.65625 "/></g></g></g><g fill="#000000" fill-opacity="1"><g transform="translate(215.119244, 249.809166)"><g><path d="M 0.40625 -2.65625 C 0.40625 -3.144531 0.523438 -3.597656 0.765625 -4.015625 C 1.015625 -4.429688 1.347656 -4.765625 1.765625 -5.015625 C 2.179688 -5.265625 2.632812 -5.390625 3.125 -5.390625 C 3.613281 -5.390625 4.066406 -5.265625 4.484375 -5.015625 C 4.898438 -4.765625 5.234375 -4.429688 5.484375 -4.015625 C 5.734375 -3.597656 5.859375 -3.144531 5.859375 -2.65625 C 5.859375 -2.164062 5.734375 -1.710938 5.484375 -1.296875 C 5.242188 -0.878906 4.910156 -0.546875 4.484375 -0.296875 C 4.066406 -0.0546875 3.613281 0.0625 3.125 0.0625 C 2.632812 0.0625 2.179688 -0.0546875 1.765625 -0.296875 C 1.347656 -0.546875 1.015625 -0.875 0.765625 -1.28125 C 0.523438 -1.695312 0.40625 -2.15625 0.40625 -2.65625 Z M 1.28125 -2.65625 C 1.28125 -2.3125 1.363281 -1.992188 1.53125 -1.703125 C 1.695312 -1.421875 1.921875 -1.191406 2.203125 -1.015625 C 2.492188 -0.847656 2.8125 -0.765625 3.15625 -0.765625 C 3.488281 -0.765625 3.789062 -0.847656 4.0625 -1.015625 C 4.34375 -1.179688 4.566406 -1.410156 4.734375 -1.703125 C 4.898438 -1.992188 4.984375 -2.3125 4.984375 -2.65625 C 4.984375 -3.007812 4.898438 -3.332031 4.734375 -3.625 C 4.566406 -3.914062 4.34375 -4.144531 4.0625 -4.3125 C 3.78125 -4.488281 3.46875 -4.578125 3.125 -4.578125 C 2.78125 -4.578125 2.46875 -4.488281 2.1875 -4.3125 C 1.90625 -4.144531 1.679688 -3.914062 1.515625 -3.625 C 1.359375 -3.332031 1.28125 -3.007812 1.28125 -2.65625 Z M 1.28125 -2.65625 "/></g></g></g><g fill="#000000" fill-opacity="1"><g transform="translate(224.313206, 249.809166)"><g><path d="M 0.734375 -5.328125 L 2.25 -5.328125 C 2.914062 -5.328125 3.46875 -5.195312 3.90625 -4.9375 C 4.34375 -4.675781 4.660156 -4.335938 4.859375 -3.921875 C 5.066406 -3.503906 5.171875 -3.0625 5.171875 -2.59375 C 5.171875 -2.070312 5.046875 -1.613281 4.796875 -1.21875 C 4.554688 -0.832031 4.234375 -0.53125 3.828125 -0.3125 C 3.421875 -0.101562 2.976562 0 2.5 0 L 0.734375 0 Z M 2.359375 -0.828125 C 2.734375 -0.828125 3.066406 -0.894531 3.359375 -1.03125 C 3.648438 -1.175781 3.875 -1.382812 4.03125 -1.65625 C 4.195312 -1.9375 4.28125 -2.269531 4.28125 -2.65625 C 4.28125 -3.070312 4.191406 -3.421875 4.015625 -3.703125 C 3.835938 -3.984375 3.609375 -4.1875 3.328125 -4.3125 C 3.054688 -4.445312 2.773438 -4.515625 2.484375 -4.515625 L 1.59375 -4.515625 L 1.59375 -0.828125 Z M 2.359375 -0.828125 "/></g></g></g></svg>