<svg xmlns="http://www.w3.org/2000/svg" xmlns:xlink="http://www.w3.org/1999/xlink" width="500" zoomAndPan="magnify" viewBox="0 0 375 374.999991" height="500" preserveAspectRatio="xMidYMid meet" version="1.0"><defs><g/></defs><g fill="#060606" fill-opacity="1"><g transform="translate(27.042864, 186.62867)"><g><path d="M 24.03125 -54.03125 C 33.144531 -54.03125 39.914062 -51.753906 44.34375 -47.203125 C 48.769531 -42.648438 50.984375 -36.125 50.984375 -27.625 C 50.984375 -22.082031 49.898438 -17.238281 47.734375 -13.09375 C 45.566406 -8.945312 42.421875 -5.726562 38.296875 -3.4375 C 34.179688 -1.144531 29.203125 0 23.359375 0 C 22.585938 0 21.566406 -0.0234375 20.296875 -0.078125 C 19.023438 -0.128906 17.710938 -0.164062 16.359375 -0.1875 C 15.015625 -0.21875 13.785156 -0.234375 12.671875 -0.234375 C 10.890625 -0.234375 9.132812 -0.21875 7.40625 -0.1875 C 5.675781 -0.164062 4.273438 -0.101562 3.203125 0 L 3.203125 -1.53125 C 4.929688 -1.625 6.238281 -1.820312 7.125 -2.125 C 8.019531 -2.4375 8.617188 -3.050781 8.921875 -3.96875 C 9.234375 -4.882812 9.390625 -6.257812 9.390625 -8.09375 L 9.390625 -45.9375 C 9.390625 -47.820312 9.234375 -49.207031 8.921875 -50.09375 C 8.617188 -50.988281 8.019531 -51.597656 7.125 -51.921875 C 6.238281 -52.253906 4.929688 -52.445312 3.203125 -52.5 L 3.203125 -54.03125 C 4.273438 -53.976562 5.675781 -53.910156 7.40625 -53.828125 C 9.132812 -53.753906 10.835938 -53.742188 12.515625 -53.796875 C 14.296875 -53.847656 16.304688 -53.898438 18.546875 -53.953125 C 20.785156 -54.003906 22.613281 -54.03125 24.03125 -54.03125 Z M 22.125 -52.65625 C 19.789062 -52.65625 18.265625 -52.222656 17.546875 -51.359375 C 16.835938 -50.492188 16.484375 -48.738281 16.484375 -46.09375 L 16.484375 -7.9375 C 16.484375 -5.289062 16.851562 -3.535156 17.59375 -2.671875 C 18.332031 -1.804688 19.867188 -1.375 22.203125 -1.375 C 27.753906 -1.375 32.054688 -2.378906 35.109375 -4.390625 C 38.160156 -6.398438 40.296875 -9.335938 41.515625 -13.203125 C 42.734375 -17.066406 43.34375 -21.769531 43.34375 -27.3125 C 43.34375 -33.007812 42.664062 -37.726562 41.3125 -41.46875 C 39.96875 -45.207031 37.753906 -48.003906 34.671875 -49.859375 C 31.597656 -51.722656 27.414062 -52.65625 22.125 -52.65625 Z M 22.125 -52.65625 "/></g></g></g><g fill="#060606" fill-opacity="1"><g transform="translate(80.690411, 186.62867)"><g><path d="M 24.65625 -54.40625 L 43.265625 -6.40625 C 44.023438 -4.476562 44.890625 -3.195312 45.859375 -2.5625 C 46.828125 -1.925781 47.71875 -1.582031 48.53125 -1.53125 L 48.53125 0 C 47.519531 -0.101562 46.273438 -0.164062 44.796875 -0.1875 C 43.316406 -0.21875 41.84375 -0.234375 40.375 -0.234375 C 38.382812 -0.234375 36.523438 -0.21875 34.796875 -0.1875 C 33.066406 -0.164062 31.664062 -0.101562 30.59375 0 L 30.59375 -1.53125 C 33.195312 -1.625 34.851562 -2.066406 35.5625 -2.859375 C 36.269531 -3.648438 36.117188 -5.34375 35.109375 -7.9375 L 20.90625 -45.859375 L 22.125 -46.859375 L 8.859375 -12.359375 C 8.035156 -10.328125 7.546875 -8.609375 7.390625 -7.203125 C 7.242188 -5.804688 7.382812 -4.703125 7.8125 -3.890625 C 8.25 -3.078125 8.988281 -2.492188 10.03125 -2.140625 C 11.070312 -1.785156 12.382812 -1.582031 13.96875 -1.53125 L 13.96875 0 C 12.539062 -0.101562 11.050781 -0.164062 9.5 -0.1875 C 7.945312 -0.21875 6.507812 -0.234375 5.1875 -0.234375 C 3.914062 -0.234375 2.832031 -0.21875 1.9375 -0.1875 C 1.050781 -0.164062 0.226562 -0.101562 -0.53125 0 L -0.53125 -1.53125 C 0.476562 -1.78125 1.519531 -2.375 2.59375 -3.3125 C 3.664062 -4.257812 4.632812 -5.878906 5.5 -8.171875 L 23.421875 -54.40625 C 23.628906 -54.40625 23.832031 -54.40625 24.03125 -54.40625 C 24.238281 -54.40625 24.445312 -54.40625 24.65625 -54.40625 Z M 33.953125 -21.984375 L 33.953125 -20.453125 L 11.21875 -20.453125 L 11.984375 -21.984375 Z M 33.953125 -21.984375 "/></g></g></g><g fill="#060606" fill-opacity="1"><g transform="translate(127.240905, 186.62867)"><g/></g></g><g fill="#060606" fill-opacity="1"><g transform="translate(144.716375, 186.62867)"><g><path d="M 19.53125 -54.875 C 22.082031 -54.875 24.015625 -54.578125 25.328125 -53.984375 C 26.648438 -53.398438 27.820312 -52.753906 28.84375 -52.046875 C 29.457031 -51.691406 29.953125 -51.425781 30.328125 -51.25 C 30.710938 -51.070312 31.082031 -50.984375 31.4375 -50.984375 C 31.945312 -50.984375 32.316406 -51.257812 32.546875 -51.8125 C 32.773438 -52.375 32.96875 -53.210938 33.125 -54.328125 L 34.875 -54.328125 C 34.820312 -53.460938 34.753906 -52.429688 34.671875 -51.234375 C 34.597656 -50.046875 34.550781 -48.472656 34.53125 -46.515625 C 34.507812 -44.554688 34.5 -41.972656 34.5 -38.765625 L 32.734375 -38.765625 C 32.585938 -41.210938 32.054688 -43.550781 31.140625 -45.78125 C 30.222656 -48.019531 28.882812 -49.851562 27.125 -51.28125 C 25.375 -52.707031 23.070312 -53.421875 20.21875 -53.421875 C 17.519531 -53.421875 15.289062 -52.601562 13.53125 -50.96875 C 11.78125 -49.34375 10.90625 -47.207031 10.90625 -44.5625 C 10.90625 -42.269531 11.488281 -40.347656 12.65625 -38.796875 C 13.832031 -37.253906 15.398438 -35.859375 17.359375 -34.609375 C 19.316406 -33.359375 21.441406 -32.019531 23.734375 -30.59375 C 26.378906 -28.96875 28.726562 -27.351562 30.78125 -25.75 C 32.84375 -24.15625 34.472656 -22.390625 35.671875 -20.453125 C 36.867188 -18.515625 37.46875 -16.175781 37.46875 -13.4375 C 37.46875 -10.175781 36.726562 -7.476562 35.25 -5.34375 C 33.78125 -3.207031 31.820312 -1.601562 29.375 -0.53125 C 26.9375 0.53125 24.242188 1.0625 21.296875 1.0625 C 18.597656 1.0625 16.457031 0.753906 14.875 0.140625 C 13.300781 -0.460938 11.957031 -1.09375 10.84375 -1.75 C 9.71875 -2.46875 8.847656 -2.828125 8.234375 -2.828125 C 7.734375 -2.828125 7.367188 -2.546875 7.140625 -1.984375 C 6.910156 -1.421875 6.71875 -0.582031 6.5625 0.53125 L 4.8125 0.53125 C 4.90625 -0.53125 4.960938 -1.785156 4.984375 -3.234375 C 5.015625 -4.691406 5.039062 -6.585938 5.0625 -8.921875 C 5.09375 -11.265625 5.109375 -14.21875 5.109375 -17.78125 L 6.875 -17.78125 C 7.070312 -14.726562 7.640625 -11.878906 8.578125 -9.234375 C 9.523438 -6.585938 10.976562 -4.460938 12.9375 -2.859375 C 14.894531 -1.253906 17.5 -0.453125 20.75 -0.453125 C 22.4375 -0.453125 24.03125 -0.796875 25.53125 -1.484375 C 27.03125 -2.171875 28.257812 -3.265625 29.21875 -4.765625 C 30.1875 -6.265625 30.671875 -8.210938 30.671875 -10.609375 C 30.671875 -12.691406 30.175781 -14.507812 29.1875 -16.0625 C 28.195312 -17.613281 26.8125 -19.0625 25.03125 -20.40625 C 23.25 -21.757812 21.160156 -23.148438 18.765625 -24.578125 C 16.378906 -26.046875 14.140625 -27.539062 12.046875 -29.0625 C 9.960938 -30.59375 8.296875 -32.363281 7.046875 -34.375 C 5.804688 -36.382812 5.1875 -38.816406 5.1875 -41.671875 C 5.1875 -44.671875 5.859375 -47.148438 7.203125 -49.109375 C 8.554688 -51.066406 10.328125 -52.515625 12.515625 -53.453125 C 14.703125 -54.398438 17.039062 -54.875 19.53125 -54.875 Z M 19.53125 -54.875 "/></g></g></g><g fill="#060606" fill-opacity="1"><g transform="translate(184.398761, 186.62867)"><g><path d="M 24.65625 -54.40625 L 43.265625 -6.40625 C 44.023438 -4.476562 44.890625 -3.195312 45.859375 -2.5625 C 46.828125 -1.925781 47.71875 -1.582031 48.53125 -1.53125 L 48.53125 0 C 47.519531 -0.101562 46.273438 -0.164062 44.796875 -0.1875 C 43.316406 -0.21875 41.84375 -0.234375 40.375 -0.234375 C 38.382812 -0.234375 36.523438 -0.21875 34.796875 -0.1875 C 33.066406 -0.164062 31.664062 -0.101562 30.59375 0 L 30.59375 -1.53125 C 33.195312 -1.625 34.851562 -2.066406 35.5625 -2.859375 C 36.269531 -3.648438 36.117188 -5.34375 35.109375 -7.9375 L 20.90625 -45.859375 L 22.125 -46.859375 L 8.859375 -12.359375 C 8.035156 -10.328125 7.546875 -8.609375 7.390625 -7.203125 C 7.242188 -5.804688 7.382812 -4.703125 7.8125 -3.890625 C 8.25 -3.078125 8.988281 -2.492188 10.03125 -2.140625 C 11.070312 -1.785156 12.382812 -1.582031 13.96875 -1.53125 L 13.96875 0 C 12.539062 -0.101562 11.050781 -0.164062 9.5 -0.1875 C 7.945312 -0.21875 6.507812 -0.234375 5.1875 -0.234375 C 3.914062 -0.234375 2.832031 -0.21875 1.9375 -0.1875 C 1.050781 -0.164062 0.226562 -0.101562 -0.53125 0 L -0.53125 -1.53125 C 0.476562 -1.78125 1.519531 -2.375 2.59375 -3.3125 C 3.664062 -4.257812 4.632812 -5.878906 5.5 -8.171875 L 23.421875 -54.40625 C 23.628906 -54.40625 23.832031 -54.40625 24.03125 -54.40625 C 24.238281 -54.40625 24.445312 -54.40625 24.65625 -54.40625 Z M 33.953125 -21.984375 L 33.953125 -20.453125 L 11.21875 -20.453125 L 11.984375 -21.984375 Z M 33.953125 -21.984375 "/></g></g></g><g fill="#060606" fill-opacity="1"><g transform="translate(230.94926, 186.62867)"><g><path d="M 63.265625 -54.03125 L 63.265625 -52.5 C 61.535156 -52.445312 60.222656 -52.253906 59.328125 -51.921875 C 58.441406 -51.597656 57.84375 -50.988281 57.53125 -50.09375 C 57.226562 -49.207031 57.078125 -47.820312 57.078125 -45.9375 L 57.078125 -8.09375 C 57.078125 -6.257812 57.226562 -4.882812 57.53125 -3.96875 C 57.84375 -3.050781 58.441406 -2.4375 59.328125 -2.125 C 60.222656 -1.820312 61.535156 -1.625 63.265625 -1.53125 L 63.265625 0 C 62.097656 -0.101562 60.632812 -0.164062 58.875 -0.1875 C 57.125 -0.21875 55.359375 -0.234375 53.578125 -0.234375 C 51.585938 -0.234375 49.726562 -0.21875 48 -0.1875 C 46.269531 -0.164062 44.867188 -0.101562 43.796875 0 L 43.796875 -1.53125 C 45.523438 -1.625 46.832031 -1.820312 47.71875 -2.125 C 48.613281 -2.4375 49.210938 -3.050781 49.515625 -3.96875 C 49.828125 -4.882812 49.984375 -6.257812 49.984375 -8.09375 L 49.984375 -50.0625 L 50.296875 -49.828125 L 31.59375 0.375 L 30.375 0.375 L 11.140625 -49.140625 L 11.140625 -8.859375 C 11.140625 -7.023438 11.304688 -5.582031 11.640625 -4.53125 C 11.972656 -3.488281 12.632812 -2.75 13.625 -2.3125 C 14.613281 -1.882812 16.101562 -1.625 18.09375 -1.53125 L 18.09375 0 C 17.175781 -0.101562 15.976562 -0.164062 14.5 -0.1875 C 13.019531 -0.21875 11.617188 -0.234375 10.296875 -0.234375 C 9.023438 -0.234375 7.738281 -0.21875 6.4375 -0.1875 C 5.144531 -0.164062 4.066406 -0.101562 3.203125 0 L 3.203125 -1.53125 C 4.929688 -1.625 6.238281 -1.882812 7.125 -2.3125 C 8.019531 -2.75 8.617188 -3.488281 8.921875 -4.53125 C 9.234375 -5.582031 9.390625 -7.023438 9.390625 -8.859375 L 9.390625 -45.9375 C 9.390625 -47.820312 9.234375 -49.207031 8.921875 -50.09375 C 8.617188 -50.988281 8.019531 -51.597656 7.125 -51.921875 C 6.238281 -52.253906 4.929688 -52.445312 3.203125 -52.5 L 3.203125 -54.03125 C 4.066406 -53.976562 5.144531 -53.925781 6.4375 -53.875 C 7.738281 -53.820312 9.023438 -53.796875 10.296875 -53.796875 C 11.421875 -53.796875 12.578125 -53.820312 13.765625 -53.875 C 14.960938 -53.925781 15.96875 -53.976562 16.78125 -54.03125 L 34.109375 -8.390625 L 32.8125 -7.78125 L 49.984375 -53.796875 C 50.597656 -53.796875 51.195312 -53.796875 51.78125 -53.796875 C 52.363281 -53.796875 52.960938 -53.796875 53.578125 -53.796875 C 55.359375 -53.796875 57.125 -53.820312 58.875 -53.875 C 60.632812 -53.925781 62.097656 -53.976562 63.265625 -54.03125 Z M 63.265625 -54.03125 "/></g></g></g><g fill="#060606" fill-opacity="1"><g transform="translate(295.891044, 186.62867)"><g><path d="M 49.984375 -54.03125 L 49.984375 -52.5 C 48.253906 -52.445312 46.941406 -52.191406 46.046875 -51.734375 C 45.160156 -51.273438 44.5625 -50.535156 44.25 -49.515625 C 43.945312 -48.503906 43.796875 -47.054688 43.796875 -45.171875 L 43.796875 -22.203125 C 43.796875 -18.640625 43.566406 -15.535156 43.109375 -12.890625 C 42.660156 -10.242188 41.847656 -7.957031 40.671875 -6.03125 C 39.398438 -3.894531 37.539062 -2.175781 35.09375 -0.875 C 32.65625 0.414062 29.859375 1.0625 26.703125 1.0625 C 24.265625 1.0625 21.9375 0.769531 19.71875 0.1875 C 17.507812 -0.394531 15.566406 -1.472656 13.890625 -3.046875 C 12.410156 -4.472656 11.25 -5.972656 10.40625 -7.546875 C 9.570312 -9.128906 9 -11.0625 8.6875 -13.34375 C 8.382812 -15.632812 8.234375 -18.515625 8.234375 -21.984375 L 8.234375 -45.9375 C 8.234375 -47.820312 8.082031 -49.207031 7.78125 -50.09375 C 7.476562 -50.988281 6.878906 -51.597656 5.984375 -51.921875 C 5.097656 -52.253906 3.789062 -52.445312 2.0625 -52.5 L 2.0625 -54.03125 C 3.125 -53.976562 4.519531 -53.925781 6.25 -53.875 C 7.988281 -53.820312 9.847656 -53.796875 11.828125 -53.796875 C 13.609375 -53.796875 15.375 -53.820312 17.125 -53.875 C 18.882812 -53.925781 20.347656 -53.976562 21.515625 -54.03125 L 21.515625 -52.5 C 19.785156 -52.445312 18.472656 -52.253906 17.578125 -51.921875 C 16.691406 -51.597656 16.097656 -50.988281 15.796875 -50.09375 C 15.492188 -49.207031 15.34375 -47.820312 15.34375 -45.9375 L 15.34375 -20.6875 C 15.34375 -18.082031 15.46875 -15.625 15.71875 -13.3125 C 15.976562 -11 16.5 -8.960938 17.28125 -7.203125 C 18.070312 -5.453125 19.28125 -4.082031 20.90625 -3.09375 C 22.539062 -2.101562 24.703125 -1.609375 27.390625 -1.609375 C 31.265625 -1.609375 34.253906 -2.457031 36.359375 -4.15625 C 38.472656 -5.863281 39.945312 -8.21875 40.78125 -11.21875 C 41.625 -14.21875 42.046875 -17.601562 42.046875 -21.375 L 42.046875 -45.171875 C 42.046875 -47.054688 41.828125 -48.503906 41.390625 -49.515625 C 40.960938 -50.535156 40.238281 -51.273438 39.21875 -51.734375 C 38.207031 -52.191406 36.835938 -52.445312 35.109375 -52.5 L 35.109375 -54.03125 C 36.023438 -53.976562 37.234375 -53.925781 38.734375 -53.875 C 40.234375 -53.820312 41.617188 -53.796875 42.890625 -53.796875 C 44.210938 -53.796875 45.519531 -53.820312 46.8125 -53.875 C 48.113281 -53.925781 49.171875 -53.976562 49.984375 -54.03125 Z M 49.984375 -54.03125 "/></g></g></g><path stroke-linecap="butt" transform="matrix(0.75, 0, 0, 0.75, 62.494827, 168.202885)" fill="none" stroke-linejoin="miter" d="M 18.387107 14.557613 C 17.574607 19.06803 16.387107 24.937822 14.954815 31.31803 C 1.715231 48.338865 -1.717061 70.245116 -1.717061 70.245116 C -1.717061 70.245116 -1.805603 70.864908 -1.805603 71.677408 C -1.805603 73.656575 -1.342061 77.177408 1.449606 77.177408 C 7.303773 77.177408 13.152732 65.385741 16.496482 56.458657 C 19.090232 49.443032 21.798566 34.661781 23.600649 24.739905 C 29.449608 19.354488 35.236067 15.833654 38.027733 15.833654 C 41.173567 15.833654 43.876692 17.260738 43.876692 24.390947 C 43.876692 42.401365 34.683983 50.693032 25.954816 50.693032 C 22.345441 50.693032 19.642316 49.443032 19.642316 49.443032 C 19.642316 49.443032 19.819399 50.870115 20.980857 51.13574 C 24.147524 51.94824 26.944399 52.32324 29.361066 52.32324 C 46.673567 52.32324 49.288151 34.573239 49.819401 31.229489 C 49.991276 29.713864 50.079818 28.34928 50.079818 27.094072 C 50.079818 15.109696 40.996484 14.203446 38.3819 14.203446 L 37.652733 14.203446 C 32.527733 16.099279 28.022524 18.713863 24.064191 21.948238 C 24.678774 17.989905 25.142316 15.193029 25.142316 14.666988 C 25.142316 14.031571 23.689191 13.765946 22.168357 13.765946 C 20.454816 13.765946 18.475649 14.114904 18.387107 14.557613 Z M 1.079814 75.021158 C 0.173564 75.021158 -0.263936 74.120117 -0.263936 72.401366 C -0.263936 66.818033 5.324606 47.26074 14.053774 35.297197 C 9.631898 54.036782 3.517315 75.021158 1.079814 75.021158 Z M 65.131902 43.04199 C 64.777735 42.776365 63.413152 42.578448 61.788152 42.578448 C 59.808985 42.578448 57.652735 42.776365 57.100651 43.04199 C 56.57461 43.390948 49.183984 60.062824 49.183984 66.552408 C 49.183984 74.2972 52.152734 76.557617 55.407943 76.557617 C 58.090235 76.557617 61.085027 75.5472 65.944402 70.687825 C 65.944402 70.687825 66.032944 70.599283 66.032944 70.510741 C 66.032944 70.073241 65.48086 68.974283 65.392319 69.083658 C 64.866277 69.698241 60.444402 74.844075 56.111068 74.844075 C 55.407943 74.844075 55.298568 74.031575 55.298568 73.130533 C 55.298568 63.406574 65.131902 44.469073 65.131902 43.130531 Z M 64.866277 31.604489 C 63.590235 31.604489 60.444402 32.854489 60.444402 35.385739 C 60.444402 36.901364 61.788152 38.177406 62.777735 38.177406 C 65.131902 38.177406 67.746485 36.286781 67.746485 34.286781 C 67.746485 32.219072 66.381902 31.604489 64.866277 31.604489 Z M 101.345446 42.578448 C 101.345446 42.578448 97.298571 44.66699 94.397529 44.66699 C 91.512112 44.66699 87.465237 42.578448 81.527736 42.578448 C 75.392319 42.578448 69.892319 50.057615 69.892319 50.057615 C 69.892319 50.057615 70.621486 50.958657 70.793361 50.958657 C 70.881902 50.958657 70.881902 50.958657 70.881902 50.870115 C 70.881902 50.60449 74.949611 47.458657 77.923569 47.458657 C 80.89232 47.458657 89.095445 49.443032 93.14232 49.443032 L 80.340236 58.724282 C 69.454819 66.640949 64.131902 75.1097 64.220443 75.198242 L 64.506902 75.021158 C 64.220443 75.370117 64.131902 75.745117 64.131902 75.833658 C 64.131902 76.448242 64.85586 76.557617 65.032944 76.557617 C 65.032944 76.557617 69.189194 74.557617 71.980861 74.557617 C 74.777736 74.557617 78.996486 76.557617 85.027737 76.557617 C 90.897529 76.557617 96.486071 68.974283 96.486071 68.974283 C 96.486071 68.974283 95.756904 68.354491 95.585029 68.354491 C 95.585029 68.620116 91.340237 71.76595 88.543362 71.76595 C 85.751695 71.76595 78.095444 69.698241 73.876694 69.698241 C 73.147527 69.698241 72.600652 69.786783 72.157944 69.875325 L 71.433986 70.073241 C 72.157944 69.344075 76.381903 65.099283 78.095444 63.495116 C 83.86107 58.260741 102.423571 44.66699 102.423571 43.47949 C 102.423571 42.864906 101.522529 42.66699 101.345446 42.578448 Z M 131.522531 42.578448 C 131.522531 42.578448 127.475656 44.66699 124.569406 44.66699 C 121.689197 44.66699 117.642322 42.578448 111.704822 42.578448 C 105.569405 42.578448 100.069404 50.057615 100.069404 50.057615 C 100.069404 50.057615 100.793363 50.958657 100.970446 50.958657 C 101.058988 50.958657 101.058988 50.958657 101.058988 50.870115 C 101.058988 50.60449 105.126696 47.458657 108.095446 47.458657 C 111.064197 47.458657 119.27253 49.443032 123.319406 49.443032 L 110.517322 58.724282 C 99.631904 66.640949 94.308987 75.1097 94.39232 75.198242 L 94.678779 75.021158 C 94.39232 75.370117 94.308987 75.745117 94.308987 75.833658 C 94.308987 76.448242 95.032946 76.557617 95.210029 76.557617 C 95.210029 76.557617 99.366279 74.557617 102.157946 74.557617 C 104.949613 74.557617 109.173571 76.557617 115.199614 76.557617 C 121.074614 76.557617 126.663156 68.974283 126.663156 68.974283 C 126.663156 68.974283 125.933989 68.354491 125.756906 68.354491 C 125.756906 68.620116 121.512114 71.76595 118.720447 71.76595 C 115.92878 71.76595 108.27253 69.698241 104.048571 69.698241 C 103.324613 69.698241 102.772529 69.786783 102.335029 69.875325 L 101.611071 70.073241 C 102.335029 69.344075 106.558988 65.099283 108.27253 63.495116 C 114.038155 58.260741 132.600656 44.66699 132.600656 43.47949 C 132.600656 42.864906 131.699615 42.66699 131.522531 42.578448 Z M 150.350657 69.432616 C 150.350657 69.432616 145.663157 73.656575 140.517323 74.666992 C 138.012115 74.666992 135.303781 66.552408 134.928781 60.880532 C 141.970449 57.182615 145.928782 51.245115 145.928782 47.26074 C 145.928782 44.755531 144.210032 42.776365 141.881907 42.776365 C 134.579823 42.776365 128.090239 52.411782 128.090239 61.604491 C 128.090239 74.557617 135.657948 76.448242 139.991282 76.448242 C 142.142324 76.448242 145.376699 76.187825 151.600658 70.161783 L 151.600658 70.073241 C 151.600658 69.786783 150.350657 69.432616 150.350657 69.432616 Z M 140.074615 44.380531 C 140.803782 44.120115 141.329824 44.031573 141.793365 44.031573 C 144.038157 44.031573 144.298574 46.359698 144.387115 46.911781 C 144.387115 48.078448 143.68399 53.489907 134.668365 59.427407 L 134.668365 58.260741 C 134.668365 51.594073 136.819407 45.833656 140.074615 44.380531 Z M 175.376701 45.021156 C 175.376701 42.224281 170.428784 42.489906 169.173575 42.489906 C 168.183992 42.489906 168.272534 43.04199 166.558992 46.44824 C 165.017325 47.989907 161.611075 51.13574 159.803783 51.13574 C 158.725658 51.13574 158.355866 50.60449 158.355866 49.880532 C 158.355866 47.458657 161.058992 48.16699 161.058992 45.547198 C 161.058992 44.29199 159.631908 42.578448 157.6267 42.578448 C 155.736074 42.578448 153.402741 44.932615 153.402741 47.989907 C 153.402741 51.13574 155.470449 52.849282 157.6267 52.849282 C 159.34545 52.849282 162.137117 52.234698 164.7517 49.969073 C 161.522533 56.719074 158.991283 63.297199 158.991283 68.974283 C 158.991283 73.130533 160.53295 76.557617 165.392325 76.557617 C 170.074617 76.557617 175.376701 68.443033 175.376701 67.364908 C 175.376701 66.906574 174.387117 66.552408 174.387117 66.552408 C 174.387117 66.552408 169.704825 75.021158 166.006909 75.021158 C 165.569408 75.021158 165.392325 74.2972 165.392325 73.130533 C 165.392325 71.323241 165.829825 68.620116 166.293367 66.818033 C 167.28295 62.682616 175.376701 47.547198 175.376701 45.021156 Z M 194.933994 43.04199 C 194.579827 42.776365 193.215244 42.578448 191.590244 42.578448 C 189.611077 42.578448 187.454827 42.776365 186.902743 43.04199 C 186.376702 43.390948 178.986076 60.062824 178.986076 66.552408 C 178.986076 74.2972 181.954826 76.557617 185.210035 76.557617 C 187.892327 76.557617 190.887118 75.5472 195.746494 70.687825 C 195.746494 70.687825 195.835035 70.599283 195.835035 70.510741 C 195.835035 70.073241 195.282952 68.974283 195.19441 69.083658 C 194.668369 69.698241 190.246493 74.844075 185.91316 74.844075 C 185.210035 74.844075 185.10066 74.031575 185.10066 73.130533 C 185.10066 63.406574 194.933994 44.469073 194.933994 43.130531 Z M 194.668369 31.604489 C 193.392327 31.604489 190.246493 32.854489 190.246493 35.385739 C 190.246493 36.901364 191.590244 38.177406 192.579827 38.177406 C 194.933994 38.177406 197.548577 36.286781 197.548577 34.286781 C 197.548577 32.219072 196.183994 31.604489 194.668369 31.604489 Z M 230.512121 44.755531 C 230.512121 43.04199 228.991288 42.578448 227.454829 42.578448 C 223.668371 42.578448 224.111079 42.864906 223.579829 44.66699 C 222.944412 43.568031 221.866287 42.578448 220.064204 42.578448 C 215.928787 42.578448 207.986078 46.911781 202.314203 55.203449 C 198.267327 61.140949 197.538161 66.286783 197.538161 68.885741 C 197.538161 70.161783 197.715244 70.864908 197.715244 70.864908 C 197.715244 70.864908 198.090244 76.557617 202.772536 76.557617 C 206.558995 76.557617 213.663162 70.599283 218.522537 64.661783 C 218.433995 65.187824 218.433995 65.828449 218.433995 66.375324 C 218.433995 71.677408 220.522537 76.557617 226.465246 76.557617 C 231.501704 76.557617 234.845455 70.687825 234.845455 69.786783 C 234.845455 69.432616 233.939205 69.083658 233.939205 69.083658 C 233.939205 69.083658 230.683996 74.932617 227.189204 74.932617 C 225.387121 74.932617 224.923579 71.239908 224.923579 68.620116 C 224.923579 67.896158 224.923579 67.276366 225.012121 66.818033 C 225.647537 63.672199 230.512121 47.26074 230.512121 44.755531 Z M 207.460036 72.401366 C 204.668369 72.401366 203.850661 70.245116 203.850661 67.807616 C 203.850661 65.297199 204.470453 59.885741 206.558995 55.203449 C 208.803786 50.234698 215.19962 44.380531 219.975662 44.380531 C 222.131912 44.380531 222.590246 45.281573 222.590246 46.359698 C 222.590246 47.349282 222.220454 48.536782 222.220454 49.35449 L 219.246495 60.328449 C 216.631912 64.109699 210.517328 72.401366 207.460036 72.401366 Z M 207.460036 72.401366 " stroke="#e3dcc9" stroke-width="3.941464" stroke-opacity="1" stroke-miterlimit="4"/><g fill="#521414" fill-opacity="1"><g transform="translate(62.494827, 225.952881)"><g><path d="M 13.785156 -46.824219 C 13.175781 -43.445312 12.296875 -39.054688 11.214844 -34.257812 C 1.285156 -21.488281 -1.285156 -5.066406 -1.285156 -5.066406 C -1.285156 -5.066406 -1.351562 -4.59375 -1.351562 -3.988281 C -1.351562 -2.5 -1.011719 0.136719 1.082031 0.136719 C 5.472656 0.136719 9.863281 -8.714844 12.363281 -15.40625 C 14.324219 -20.675781 16.351562 -31.757812 17.703125 -39.1875 C 22.09375 -43.242188 26.417969 -45.878906 28.511719 -45.878906 C 30.878906 -45.878906 32.90625 -44.796875 32.90625 -39.460938 C 32.90625 -25.945312 26.011719 -19.730469 19.460938 -19.730469 C 16.757812 -19.730469 14.730469 -20.675781 14.730469 -20.675781 C 14.730469 -20.675781 14.863281 -19.59375 15.742188 -19.390625 C 18.109375 -18.785156 20.203125 -18.511719 22.027344 -18.511719 C 35 -18.511719 36.960938 -31.824219 37.363281 -34.324219 C 37.5 -35.472656 37.566406 -36.488281 37.566406 -37.433594 C 37.566406 -46.417969 30.742188 -47.09375 28.785156 -47.09375 L 28.242188 -47.09375 C 24.390625 -45.675781 21.011719 -43.714844 18.039062 -41.285156 C 18.511719 -44.257812 18.851562 -46.351562 18.851562 -46.757812 C 18.851562 -47.230469 17.769531 -47.433594 16.621094 -47.433594 C 15.335938 -47.433594 13.851562 -47.164062 13.785156 -46.824219 Z M 0.8125 -1.488281 C 0.136719 -1.488281 -0.203125 -2.164062 -0.203125 -3.445312 C -0.203125 -7.636719 3.988281 -22.296875 10.539062 -31.285156 C 7.230469 -17.230469 2.636719 -1.488281 0.8125 -1.488281 Z M 0.8125 -1.488281 "/></g></g></g><g fill="#521414" fill-opacity="1"><g transform="translate(98.706231, 225.952881)"><g><path d="M 12.636719 -25.472656 C 12.363281 -25.675781 11.351562 -25.8125 10.136719 -25.8125 C 8.648438 -25.8125 7.027344 -25.675781 6.621094 -25.472656 C 6.214844 -25.203125 0.675781 -12.703125 0.675781 -7.835938 C 0.675781 -2.027344 2.90625 -0.335938 5.335938 -0.335938 C 7.363281 -0.335938 9.59375 -1.082031 13.242188 -4.730469 C 13.242188 -4.730469 13.3125 -4.796875 13.3125 -4.863281 C 13.3125 -5.203125 12.90625 -6.011719 12.835938 -5.945312 C 12.433594 -5.472656 9.121094 -1.621094 5.878906 -1.621094 C 5.335938 -1.621094 5.269531 -2.230469 5.269531 -2.90625 C 5.269531 -10.203125 12.636719 -24.390625 12.636719 -25.40625 Z M 12.433594 -34.054688 C 11.488281 -34.054688 9.121094 -33.109375 9.121094 -31.214844 C 9.121094 -30.066406 10.136719 -29.121094 10.878906 -29.121094 C 12.636719 -29.121094 14.59375 -30.539062 14.59375 -32.027344 C 14.59375 -33.582031 13.582031 -34.054688 12.433594 -34.054688 Z M 12.433594 -34.054688 "/></g></g></g><g fill="#521414" fill-opacity="1"><g transform="translate(113.974469, 225.952881)"><g><path d="M 24.527344 -25.8125 C 24.527344 -25.8125 21.488281 -24.257812 19.324219 -24.257812 C 17.164062 -24.257812 14.121094 -25.8125 9.664062 -25.8125 C 5.066406 -25.8125 0.945312 -20.203125 0.945312 -20.203125 C 0.945312 -20.203125 1.488281 -19.527344 1.621094 -19.527344 C 1.6875 -19.527344 1.6875 -19.527344 1.6875 -19.59375 C 1.6875 -19.796875 4.730469 -22.164062 6.960938 -22.164062 C 9.1875 -22.164062 15.335938 -20.675781 18.378906 -20.675781 L 8.785156 -13.714844 C 0.609375 -7.769531 -3.378906 -1.417969 -3.3125 -1.351562 L -3.109375 -1.488281 C -3.3125 -1.214844 -3.378906 -0.945312 -3.378906 -0.878906 C -3.378906 -0.40625 -2.835938 -0.335938 -2.703125 -0.335938 C -2.703125 -0.335938 0.40625 -1.824219 2.5 -1.824219 C 4.59375 -1.824219 7.769531 -0.335938 12.296875 -0.335938 C 16.6875 -0.335938 20.878906 -6.011719 20.878906 -6.011719 C 20.878906 -6.011719 20.335938 -6.488281 20.203125 -6.488281 C 20.203125 -6.285156 17.027344 -3.917969 14.933594 -3.917969 C 12.835938 -3.917969 7.09375 -5.472656 3.917969 -5.472656 C 3.378906 -5.472656 2.972656 -5.40625 2.636719 -5.335938 L 2.09375 -5.203125 C 2.636719 -5.742188 5.8125 -8.917969 7.09375 -10.136719 C 11.417969 -14.054688 25.335938 -24.257812 25.335938 -25.136719 C 25.335938 -25.609375 24.664062 -25.742188 24.527344 -25.8125 Z M 24.527344 -25.8125 "/></g></g></g><g fill="#521414" fill-opacity="1"><g transform="translate(136.606589, 225.952881)"><g><path d="M 24.527344 -25.8125 C 24.527344 -25.8125 21.488281 -24.257812 19.324219 -24.257812 C 17.164062 -24.257812 14.121094 -25.8125 9.664062 -25.8125 C 5.066406 -25.8125 0.945312 -20.203125 0.945312 -20.203125 C 0.945312 -20.203125 1.488281 -19.527344 1.621094 -19.527344 C 1.6875 -19.527344 1.6875 -19.527344 1.6875 -19.59375 C 1.6875 -19.796875 4.730469 -22.164062 6.960938 -22.164062 C 9.1875 -22.164062 15.335938 -20.675781 18.378906 -20.675781 L 8.785156 -13.714844 C 0.609375 -7.769531 -3.378906 -1.417969 -3.3125 -1.351562 L -3.109375 -1.488281 C -3.3125 -1.214844 -3.378906 -0.945312 -3.378906 -0.878906 C -3.378906 -0.40625 -2.835938 -0.335938 -2.703125 -0.335938 C -2.703125 -0.335938 0.40625 -1.824219 2.5 -1.824219 C 4.59375 -1.824219 7.769531 -0.335938 12.296875 -0.335938 C 16.6875 -0.335938 20.878906 -6.011719 20.878906 -6.011719 C 20.878906 -6.011719 20.335938 -6.488281 20.203125 -6.488281 C 20.203125 -6.285156 17.027344 -3.917969 14.933594 -3.917969 C 12.835938 -3.917969 7.09375 -5.472656 3.917969 -5.472656 C 3.378906 -5.472656 2.972656 -5.40625 2.636719 -5.335938 L 2.09375 -5.203125 C 2.636719 -5.742188 5.8125 -8.917969 7.09375 -10.136719 C 11.417969 -14.054688 25.335938 -24.257812 25.335938 -25.136719 C 25.335938 -25.609375 24.664062 -25.742188 24.527344 -25.8125 Z M 24.527344 -25.8125 "/></g></g></g><g fill="#521414" fill-opacity="1"><g transform="translate(159.23871, 225.952881)"><g><path d="M 16.011719 -5.675781 C 16.011719 -5.675781 12.5 -2.5 8.648438 -1.757812 C 6.757812 -1.757812 4.730469 -7.835938 4.460938 -12.09375 C 9.730469 -14.863281 12.703125 -19.324219 12.703125 -22.296875 C 12.703125 -24.1875 11.417969 -25.675781 9.664062 -25.675781 C 4.1875 -25.675781 -0.675781 -18.445312 -0.675781 -11.554688 C -0.675781 -1.824219 5 -0.40625 8.242188 -0.40625 C 9.863281 -0.40625 12.296875 -0.609375 16.960938 -5.136719 L 16.960938 -5.203125 C 16.960938 -5.40625 16.011719 -5.675781 16.011719 -5.675781 Z M 8.3125 -24.460938 C 8.851562 -24.664062 9.257812 -24.730469 9.59375 -24.730469 C 11.285156 -24.730469 11.488281 -22.972656 11.554688 -22.566406 C 11.554688 -21.6875 11.011719 -17.636719 4.257812 -13.175781 L 4.257812 -14.054688 C 4.257812 -19.054688 5.878906 -23.378906 8.3125 -24.460938 Z M 8.3125 -24.460938 "/></g></g></g><g fill="#521414" fill-opacity="1"><g transform="translate(176.195912, 225.952881)"><g><path d="M 17.835938 -23.988281 C 17.835938 -26.082031 14.121094 -25.878906 13.175781 -25.878906 C 12.433594 -25.878906 12.5 -25.472656 11.214844 -22.90625 C 10.066406 -21.757812 7.5 -19.390625 6.148438 -19.390625 C 5.335938 -19.390625 5.066406 -19.796875 5.066406 -20.335938 C 5.066406 -22.164062 7.09375 -21.621094 7.09375 -23.582031 C 7.09375 -24.527344 6.011719 -25.8125 4.527344 -25.8125 C 3.109375 -25.8125 1.351562 -24.054688 1.351562 -21.757812 C 1.351562 -19.390625 2.90625 -18.109375 4.527344 -18.109375 C 5.8125 -18.109375 7.90625 -18.582031 9.863281 -20.269531 C 7.433594 -15.203125 5.539062 -10.269531 5.539062 -6.011719 C 5.539062 -2.90625 6.6875 -0.335938 10.335938 -0.335938 C 13.851562 -0.335938 17.835938 -6.417969 17.835938 -7.230469 C 17.835938 -7.566406 17.09375 -7.835938 17.09375 -7.835938 C 17.09375 -7.835938 13.582031 -1.488281 10.8125 -1.488281 C 10.472656 -1.488281 10.335938 -2.027344 10.335938 -2.90625 C 10.335938 -4.257812 10.675781 -6.285156 11.011719 -7.636719 C 11.757812 -10.742188 17.835938 -22.09375 17.835938 -23.988281 Z M 17.835938 -23.988281 "/></g></g></g><g fill="#521414" fill-opacity="1"><g transform="translate(196.058139, 225.952881)"><g><path d="M 12.636719 -25.472656 C 12.363281 -25.675781 11.351562 -25.8125 10.136719 -25.8125 C 8.648438 -25.8125 7.027344 -25.675781 6.621094 -25.472656 C 6.214844 -25.203125 0.675781 -12.703125 0.675781 -7.835938 C 0.675781 -2.027344 2.90625 -0.335938 5.335938 -0.335938 C 7.363281 -0.335938 9.59375 -1.082031 13.242188 -4.730469 C 13.242188 -4.730469 13.3125 -4.796875 13.3125 -4.863281 C 13.3125 -5.203125 12.90625 -6.011719 12.835938 -5.945312 C 12.433594 -5.472656 9.121094 -1.621094 5.878906 -1.621094 C 5.335938 -1.621094 5.269531 -2.230469 5.269531 -2.90625 C 5.269531 -10.203125 12.636719 -24.390625 12.636719 -25.40625 Z M 12.433594 -34.054688 C 11.488281 -34.054688 9.121094 -33.109375 9.121094 -31.214844 C 9.121094 -30.066406 10.136719 -29.121094 10.878906 -29.121094 C 12.636719 -29.121094 14.59375 -30.539062 14.59375 -32.027344 C 14.59375 -33.582031 13.582031 -34.054688 12.433594 -34.054688 Z M 12.433594 -34.054688 "/></g></g></g><g fill="#521414" fill-opacity="1"><g transform="translate(211.326376, 225.952881)"><g><path d="M 24.054688 -24.1875 C 24.054688 -25.472656 22.90625 -25.8125 21.757812 -25.8125 C 18.917969 -25.8125 19.257812 -25.609375 18.851562 -24.257812 C 18.378906 -25.066406 17.566406 -25.8125 16.214844 -25.8125 C 13.109375 -25.8125 7.164062 -22.566406 2.90625 -16.351562 C -0.136719 -11.890625 -0.675781 -8.039062 -0.675781 -6.082031 C -0.675781 -5.136719 -0.539062 -4.59375 -0.539062 -4.59375 C -0.539062 -4.59375 -0.269531 -0.335938 3.242188 -0.335938 C 6.082031 -0.335938 11.417969 -4.796875 15.066406 -9.257812 C 15 -8.851562 15 -8.378906 15 -7.972656 C 15 -3.988281 16.554688 -0.335938 21.011719 -0.335938 C 24.796875 -0.335938 27.296875 -4.730469 27.296875 -5.40625 C 27.296875 -5.675781 26.621094 -5.945312 26.621094 -5.945312 C 26.621094 -5.945312 24.1875 -1.554688 21.554688 -1.554688 C 20.203125 -1.554688 19.863281 -4.324219 19.863281 -6.285156 C 19.863281 -6.824219 19.863281 -7.296875 19.933594 -7.636719 C 20.40625 -10 24.054688 -22.296875 24.054688 -24.1875 Z M 6.757812 -3.445312 C 4.664062 -3.445312 4.054688 -5.066406 4.054688 -6.890625 C 4.054688 -8.785156 4.527344 -12.835938 6.082031 -16.351562 C 7.769531 -20.066406 12.566406 -24.460938 16.148438 -24.460938 C 17.769531 -24.460938 18.109375 -23.785156 18.109375 -22.972656 C 18.109375 -22.230469 17.835938 -21.351562 17.835938 -20.742188 L 15.609375 -12.5 C 13.648438 -9.664062 9.054688 -3.445312 6.757812 -3.445312 Z M 6.757812 -3.445312 "/></g></g></g><g fill="#521414" fill-opacity="1"><g transform="translate(238.627628, 225.952881)"><g/></g></g></svg>