<svg xmlns="http://www.w3.org/2000/svg" xmlns:xlink="http://www.w3.org/1999/xlink" width="500" zoomAndPan="magnify" viewBox="0 0 375 374.999991" height="500" preserveAspectRatio="xMidYMid meet" version="1.0"><defs><g/><clipPath id="efcc1308a3"><path d="M 70.773438 94.039062 L 304.023438 94.039062 L 304.023438 161 L 70.773438 161 Z M 70.773438 94.039062 " clip-rule="nonzero"/></clipPath><clipPath id="57833aeb02"><path d="M 87 177 L 288 177 L 288 361.039062 L 87 361.039062 Z M 87 177 " clip-rule="nonzero"/></clipPath></defs><g clip-path="url(#efcc1308a3)"><path fill="#000000" d="M 295.691406 126.789062 L 237.378906 126.789062 L 237.378906 102.382812 C 237.378906 97.792969 233.632812 94.039062 229.050781 94.039062 L 145.75 94.039062 C 141.167969 94.039062 137.417969 97.792969 137.417969 102.382812 L 137.417969 126.789062 L 79.109375 126.789062 C 74.527344 126.789062 70.78125 130.542969 70.78125 135.132812 L 70.78125 151.820312 C 70.78125 156.40625 74.527344 160.164062 79.109375 160.164062 L 295.691406 160.164062 C 300.273438 160.164062 304.019531 156.40625 304.019531 151.820312 L 304.019531 135.132812 C 304.019531 130.542969 300.273438 126.789062 295.691406 126.789062 Z M 295.691406 126.789062 " fill-opacity="1" fill-rule="nonzero"/></g><g clip-path="url(#57833aeb02)"><path fill="#000000" d="M 107.429688 353.738281 C 107.847656 357.910156 111.386719 361.039062 115.761719 361.039062 L 259.246094 361.039062 C 263.410156 361.039062 266.953125 357.910156 267.578125 353.738281 L 287.570312 177.683594 L 87.4375 177.683594 Z M 220.71875 326.621094 L 235.296875 210.015625 C 235.921875 205.425781 240.085938 202.296875 244.667969 202.714844 C 249.25 203.339844 252.375 207.511719 251.957031 212.101562 L 237.378906 328.707031 C 236.753906 332.878906 233.214844 336.007812 229.050781 336.007812 C 228.632812 336.007812 228.425781 336.007812 228.007812 336.007812 C 223.425781 335.382812 220.304688 331.210938 220.71875 326.621094 Z M 179.070312 211.058594 C 179.070312 206.46875 182.820312 202.714844 187.398438 202.714844 C 191.980469 202.714844 195.730469 206.46875 195.730469 211.058594 L 195.730469 327.664062 C 195.730469 332.253906 191.980469 336.007812 187.398438 336.007812 C 182.820312 336.007812 179.070312 332.253906 179.070312 327.664062 Z M 130.132812 202.714844 C 134.710938 202.089844 138.878906 205.425781 139.503906 210.015625 L 154.078125 326.621094 C 154.703125 331.210938 151.371094 335.382812 146.789062 336.007812 C 146.375 336.007812 146.167969 336.007812 145.75 336.007812 C 141.585938 336.007812 138.042969 332.878906 137.417969 328.707031 L 122.84375 212.101562 C 122.425781 207.511719 125.550781 203.339844 130.132812 202.714844 Z M 130.132812 202.714844 " fill-opacity="1" fill-rule="nonzero"/></g><g fill="#000000" fill-opacity="1"><g transform="translate(67.96289, 72.988179)"><g><path d="M 4.34375 0.484375 C 2.925781 0.484375 2.21875 0.0820312 2.21875 -0.71875 C 2.21875 -1.351562 2.613281 -1.671875 3.40625 -1.671875 L 5 -1.5 C 6.3125 -1.5 7.195312 -2.234375 7.65625 -3.703125 C 8.03125 -4.941406 8.21875 -7.164062 8.21875 -10.375 L 8.21875 -33.46875 C 8.21875 -36.675781 8.0625 -38.773438 7.75 -39.765625 C 7.445312 -40.753906 7.082031 -41.425781 6.65625 -41.78125 C 6.226562 -42.144531 5.675781 -42.328125 5 -42.328125 L 3.40625 -42.203125 C 2.613281 -42.203125 2.21875 -42.519531 2.21875 -43.15625 C 2.21875 -43.957031 2.816406 -44.359375 4.015625 -44.359375 C 5.222656 -44.359375 6.269531 -44.269531 7.15625 -44.09375 C 8.050781 -43.925781 8.9375 -43.84375 9.8125 -43.84375 C 12.125 -43.84375 14.046875 -43.953125 15.578125 -44.171875 C 17.890625 -44.492188 20.539062 -44.65625 23.53125 -44.65625 C 26.53125 -44.65625 29.519531 -44.117188 32.5 -43.046875 C 35.476562 -41.984375 38.035156 -40.46875 40.171875 -38.5 C 44.734375 -34.332031 47.015625 -28.859375 47.015625 -22.078125 C 47.015625 -15.648438 44.78125 -10.296875 40.3125 -6.015625 C 35.6875 -1.566406 29.617188 0.65625 22.109375 0.65625 C 20.304688 0.65625 18.550781 0.578125 16.84375 0.421875 C 13.6875 0.140625 11.398438 0 9.984375 0 Z M 13.34375 -15.078125 C 13.34375 -11.203125 13.441406 -7.59375 13.640625 -4.25 C 16.546875 -2.75 19.804688 -2 23.421875 -2 C 26.054688 -2 28.796875 -2.617188 31.640625 -3.859375 C 36.128906 -5.828125 39.0625 -9.335938 40.4375 -14.390625 C 40.9375 -16.179688 41.1875 -18.5 41.1875 -21.34375 C 41.1875 -24.1875 40.703125 -26.941406 39.734375 -29.609375 C 38.765625 -32.285156 37.40625 -34.539062 35.65625 -36.375 C 32.101562 -40.144531 27.316406 -42.03125 21.296875 -42.03125 C 17.003906 -42.03125 14.539062 -41.46875 13.90625 -40.34375 C 13.570312 -39.726562 13.394531 -39.03125 13.375 -38.25 C 13.351562 -37.476562 13.34375 -36.722656 13.34375 -35.984375 Z M 13.34375 -15.078125 "/></g></g></g><g fill="#000000" fill-opacity="1"><g transform="translate(118.242676, 72.988179)"><g><path d="M 3.921875 0.484375 C 2.722656 0.484375 2.125 0.0820312 2.125 -0.71875 C 2.125 -1.351562 2.515625 -1.671875 3.296875 -1.671875 L 4.90625 -1.5 C 6.125 -1.5 6.953125 -2.023438 7.390625 -3.078125 C 7.867188 -4.273438 8.109375 -6.671875 8.109375 -10.265625 L 8.109375 -33.46875 C 8.109375 -37.039062 7.9375 -39.289062 7.59375 -40.21875 C 7.257812 -41.144531 6.882812 -41.726562 6.46875 -41.96875 C 6.0625 -42.207031 5.539062 -42.328125 4.90625 -42.328125 L 3.296875 -42.203125 C 2.515625 -42.203125 2.125 -42.519531 2.125 -43.15625 C 2.125 -43.957031 2.707031 -44.359375 3.875 -44.359375 C 5.039062 -44.359375 6 -44.332031 6.75 -44.28125 C 7.507812 -44.226562 8.269531 -44.164062 9.03125 -44.09375 C 11.0625 -43.925781 12.660156 -43.84375 13.828125 -43.84375 C 14.992188 -43.84375 16.226562 -43.867188 17.53125 -43.921875 C 18.84375 -43.972656 20.304688 -44.03125 21.921875 -44.09375 C 26.171875 -44.269531 29.117188 -44.359375 30.765625 -44.359375 C 32.410156 -44.359375 33.328125 -44.257812 33.515625 -44.0625 C 33.703125 -43.863281 33.796875 -43.597656 33.796875 -43.265625 C 33.796875 -42.929688 33.789062 -42.609375 33.78125 -42.296875 C 33.769531 -41.992188 33.753906 -41.65625 33.734375 -41.28125 C 33.710938 -40.78125 33.644531 -40.035156 33.53125 -39.046875 C 33.425781 -38.054688 33.296875 -37.390625 33.140625 -37.046875 C 32.984375 -36.710938 32.765625 -36.546875 32.484375 -36.546875 C 32.203125 -36.546875 32.003906 -36.613281 31.890625 -36.75 C 31.785156 -36.894531 31.640625 -37.222656 31.453125 -37.734375 C 31.265625 -38.242188 30.9375 -38.734375 30.46875 -39.203125 C 30 -39.671875 29.265625 -40.0625 28.265625 -40.375 C 26.304688 -40.957031 22.675781 -41.25 17.375 -41.25 L 14.453125 -41.25 C 13.929688 -41.25 13.597656 -41.171875 13.453125 -41.015625 C 13.316406 -40.867188 13.25 -40.523438 13.25 -39.984375 L 13.25 -26.203125 C 15.84375 -25.898438 17.992188 -25.75 19.703125 -25.75 C 21.421875 -25.75 22.644531 -25.757812 23.375 -25.78125 C 24.101562 -25.800781 24.707031 -25.863281 25.1875 -25.96875 C 26.039062 -26.125 26.648438 -26.507812 27.015625 -27.125 C 27.765625 -28.28125 28.367188 -28.859375 28.828125 -28.859375 C 29.410156 -28.859375 29.703125 -28.550781 29.703125 -27.9375 L 28.5625 -23.296875 L 28.6875 -20.8125 C 28.6875 -19.238281 28.316406 -18.453125 27.578125 -18.453125 C 26.941406 -18.453125 26.625 -18.867188 26.625 -19.703125 C 26.625 -20.546875 26.570312 -21.175781 26.46875 -21.59375 C 26.375 -22.007812 26.101562 -22.335938 25.65625 -22.578125 C 24.957031 -22.921875 23.253906 -23.09375 20.546875 -23.09375 C 17.835938 -23.09375 15.40625 -22.972656 13.25 -22.734375 L 13.25 -14.984375 C 13.25 -10.160156 13.359375 -6.179688 13.578125 -3.046875 C 15.347656 -2.648438 17.265625 -2.453125 19.328125 -2.453125 C 21.398438 -2.453125 23.171875 -2.503906 24.640625 -2.609375 C 26.117188 -2.722656 27.394531 -2.941406 28.46875 -3.265625 C 30.582031 -3.898438 32.140625 -5.113281 33.140625 -6.90625 C 33.578125 -7.6875 34.015625 -8.078125 34.453125 -8.078125 C 34.890625 -8.078125 35.109375 -7.757812 35.109375 -7.125 C 35.109375 -6.863281 35.03125 -6.53125 34.875 -6.125 C 34.695312 -5.550781 34.441406 -4.703125 34.109375 -3.578125 C 33.785156 -2.453125 33.535156 -1.640625 33.359375 -1.140625 C 33.191406 -0.640625 33 -0.257812 32.78125 0 C 32.457031 0.4375 31.8125 0.65625 30.84375 0.65625 C 29.882812 0.65625 28.957031 0.648438 28.0625 0.640625 C 27.175781 0.628906 26.238281 0.613281 25.25 0.59375 C 24.125 0.550781 22.367188 0.460938 19.984375 0.328125 C 14.054688 0.046875 10.578125 -0.0507812 9.546875 0.03125 C 8.523438 0.113281 7.75 0.179688 7.21875 0.234375 C 6.695312 0.296875 6.1875 0.351562 5.6875 0.40625 C 5.1875 0.457031 4.597656 0.484375 3.921875 0.484375 Z M 3.921875 0.484375 "/></g></g></g><g fill="#000000" fill-opacity="1"><g transform="translate(155.960695, 72.988179)"><g><path d="M 4.03125 0.484375 C 2.820312 0.484375 2.21875 0.0820312 2.21875 -0.71875 C 2.21875 -1.351562 2.613281 -1.671875 3.40625 -1.671875 L 5 -1.5 C 6.3125 -1.5 7.195312 -2.234375 7.65625 -3.703125 C 8.03125 -4.941406 8.21875 -7.164062 8.21875 -10.375 L 8.21875 -33.46875 C 8.21875 -36.675781 8.0625 -38.773438 7.75 -39.765625 C 7.445312 -40.753906 7.082031 -41.425781 6.65625 -41.78125 C 6.226562 -42.144531 5.675781 -42.328125 5 -42.328125 L 3.40625 -42.203125 C 2.613281 -42.203125 2.21875 -42.519531 2.21875 -43.15625 C 2.21875 -43.957031 2.816406 -44.359375 4.015625 -44.359375 C 5.222656 -44.359375 6.363281 -44.269531 7.4375 -44.09375 C 8.519531 -43.925781 9.644531 -43.84375 10.8125 -43.84375 C 11.976562 -43.84375 13.085938 -43.925781 14.140625 -44.09375 C 15.203125 -44.269531 16.328125 -44.359375 17.515625 -44.359375 C 18.703125 -44.359375 19.296875 -43.957031 19.296875 -43.15625 C 19.296875 -42.519531 18.90625 -42.203125 18.125 -42.203125 L 16.546875 -42.328125 C 15.222656 -42.328125 14.332031 -41.597656 13.875 -40.140625 C 13.519531 -38.984375 13.34375 -36.757812 13.34375 -33.46875 L 13.34375 -14.984375 C 13.34375 -10.203125 13.453125 -6.242188 13.671875 -3.109375 C 15.265625 -2.671875 17.023438 -2.453125 18.953125 -2.453125 C 20.890625 -2.453125 22.570312 -2.5625 24 -2.78125 C 25.425781 -3 26.660156 -3.328125 27.703125 -3.765625 C 29.671875 -4.566406 31.203125 -5.929688 32.296875 -7.859375 C 32.722656 -8.640625 33.15625 -9.03125 33.59375 -9.03125 C 34.03125 -9.03125 34.25 -8.710938 34.25 -8.078125 C 34.25 -7.816406 34.175781 -7.476562 34.03125 -7.0625 C 33.851562 -6.5 33.597656 -5.65625 33.265625 -4.53125 C 32.941406 -3.40625 32.675781 -2.539062 32.46875 -1.9375 C 32.257812 -1.34375 32.023438 -0.847656 31.765625 -0.453125 C 31.242188 0.285156 30.519531 0.65625 29.59375 0.65625 C 28.664062 0.65625 27.785156 0.648438 26.953125 0.640625 C 26.128906 0.628906 25.265625 0.609375 24.359375 0.578125 C 23.453125 0.546875 22.472656 0.5 21.421875 0.4375 C 20.378906 0.382812 19.191406 0.320312 17.859375 0.25 C 16.523438 0.1875 15.367188 0.128906 14.390625 0.078125 C 13.410156 0.0234375 12.4375 0 11.46875 0 C 10.5 0 9.691406 0.0234375 9.046875 0.078125 C 8.398438 0.128906 7.816406 0.179688 7.296875 0.234375 C 6.773438 0.296875 6.257812 0.351562 5.75 0.40625 C 5.25 0.457031 4.675781 0.484375 4.03125 0.484375 Z M 4.03125 0.484375 "/></g></g></g><g fill="#000000" fill-opacity="1"><g transform="translate(191.84679, 72.988179)"><g><path d="M 3.921875 0.484375 C 2.722656 0.484375 2.125 0.0820312 2.125 -0.71875 C 2.125 -1.351562 2.515625 -1.671875 3.296875 -1.671875 L 4.90625 -1.5 C 6.125 -1.5 6.953125 -2.023438 7.390625 -3.078125 C 7.867188 -4.273438 8.109375 -6.671875 8.109375 -10.265625 L 8.109375 -33.46875 C 8.109375 -37.039062 7.9375 -39.289062 7.59375 -40.21875 C 7.257812 -41.144531 6.882812 -41.726562 6.46875 -41.96875 C 6.0625 -42.207031 5.539062 -42.328125 4.90625 -42.328125 L 3.296875 -42.203125 C 2.515625 -42.203125 2.125 -42.519531 2.125 -43.15625 C 2.125 -43.957031 2.707031 -44.359375 3.875 -44.359375 C 5.039062 -44.359375 6 -44.332031 6.75 -44.28125 C 7.507812 -44.226562 8.269531 -44.164062 9.03125 -44.09375 C 11.0625 -43.925781 12.660156 -43.84375 13.828125 -43.84375 C 14.992188 -43.84375 16.226562 -43.867188 17.53125 -43.921875 C 18.84375 -43.972656 20.304688 -44.03125 21.921875 -44.09375 C 26.171875 -44.269531 29.117188 -44.359375 30.765625 -44.359375 C 32.410156 -44.359375 33.328125 -44.257812 33.515625 -44.0625 C 33.703125 -43.863281 33.796875 -43.597656 33.796875 -43.265625 C 33.796875 -42.929688 33.789062 -42.609375 33.78125 -42.296875 C 33.769531 -41.992188 33.753906 -41.65625 33.734375 -41.28125 C 33.710938 -40.78125 33.644531 -40.035156 33.53125 -39.046875 C 33.425781 -38.054688 33.296875 -37.390625 33.140625 -37.046875 C 32.984375 -36.710938 32.765625 -36.546875 32.484375 -36.546875 C 32.203125 -36.546875 32.003906 -36.613281 31.890625 -36.75 C 31.785156 -36.894531 31.640625 -37.222656 31.453125 -37.734375 C 31.265625 -38.242188 30.9375 -38.734375 30.46875 -39.203125 C 30 -39.671875 29.265625 -40.0625 28.265625 -40.375 C 26.304688 -40.957031 22.675781 -41.25 17.375 -41.25 L 14.453125 -41.25 C 13.929688 -41.25 13.597656 -41.171875 13.453125 -41.015625 C 13.316406 -40.867188 13.25 -40.523438 13.25 -39.984375 L 13.25 -26.203125 C 15.84375 -25.898438 17.992188 -25.75 19.703125 -25.75 C 21.421875 -25.75 22.644531 -25.757812 23.375 -25.78125 C 24.101562 -25.800781 24.707031 -25.863281 25.1875 -25.96875 C 26.039062 -26.125 26.648438 -26.507812 27.015625 -27.125 C 27.765625 -28.28125 28.367188 -28.859375 28.828125 -28.859375 C 29.410156 -28.859375 29.703125 -28.550781 29.703125 -27.9375 L 28.5625 -23.296875 L 28.6875 -20.8125 C 28.6875 -19.238281 28.316406 -18.453125 27.578125 -18.453125 C 26.941406 -18.453125 26.625 -18.867188 26.625 -19.703125 C 26.625 -20.546875 26.570312 -21.175781 26.46875 -21.59375 C 26.375 -22.007812 26.101562 -22.335938 25.65625 -22.578125 C 24.957031 -22.921875 23.253906 -23.09375 20.546875 -23.09375 C 17.835938 -23.09375 15.40625 -22.972656 13.25 -22.734375 L 13.25 -14.984375 C 13.25 -10.160156 13.359375 -6.179688 13.578125 -3.046875 C 15.347656 -2.648438 17.265625 -2.453125 19.328125 -2.453125 C 21.398438 -2.453125 23.171875 -2.503906 24.640625 -2.609375 C 26.117188 -2.722656 27.394531 -2.941406 28.46875 -3.265625 C 30.582031 -3.898438 32.140625 -5.113281 33.140625 -6.90625 C 33.578125 -7.6875 34.015625 -8.078125 34.453125 -8.078125 C 34.890625 -8.078125 35.109375 -7.757812 35.109375 -7.125 C 35.109375 -6.863281 35.03125 -6.53125 34.875 -6.125 C 34.695312 -5.550781 34.441406 -4.703125 34.109375 -3.578125 C 33.785156 -2.453125 33.535156 -1.640625 33.359375 -1.140625 C 33.191406 -0.640625 33 -0.257812 32.78125 0 C 32.457031 0.4375 31.8125 0.65625 30.84375 0.65625 C 29.882812 0.65625 28.957031 0.648438 28.0625 0.640625 C 27.175781 0.628906 26.238281 0.613281 25.25 0.59375 C 24.125 0.550781 22.367188 0.460938 19.984375 0.328125 C 14.054688 0.046875 10.578125 -0.0507812 9.546875 0.03125 C 8.523438 0.113281 7.75 0.179688 7.21875 0.234375 C 6.695312 0.296875 6.1875 0.351562 5.6875 0.40625 C 5.1875 0.457031 4.597656 0.484375 3.921875 0.484375 Z M 3.921875 0.484375 "/></g></g></g><g fill="#000000" fill-opacity="1"><g transform="translate(229.564808, 72.988179)"><g><path d="M 13.40625 0.484375 C 11.988281 0.484375 11.28125 0.0820312 11.28125 -0.71875 C 11.28125 -1.351562 11.675781 -1.671875 12.46875 -1.671875 L 14.0625 -1.5 C 15.375 -1.5 16.25 -2.234375 16.6875 -3.703125 C 17.082031 -4.941406 17.28125 -7.164062 17.28125 -10.375 L 17.28125 -40.953125 L 16.390625 -40.953125 C 12.578125 -40.953125 9.535156 -40.5625 7.265625 -39.78125 C 5.691406 -39.21875 4.625 -38.25 4.0625 -36.875 C 3.644531 -35.863281 3.207031 -35.359375 2.75 -35.359375 C 2.113281 -35.359375 1.796875 -35.734375 1.796875 -36.484375 C 1.796875 -36.691406 1.84375 -36.9375 1.9375 -37.21875 C 2.039062 -37.507812 2.160156 -37.851562 2.296875 -38.25 C 2.640625 -39.289062 2.84375 -40.378906 2.90625 -41.515625 C 2.976562 -42.648438 3.101562 -43.40625 3.28125 -43.78125 C 3.46875 -44.164062 3.722656 -44.359375 4.046875 -44.359375 C 4.378906 -44.359375 4.675781 -44.332031 4.9375 -44.28125 C 5.195312 -44.226562 5.578125 -44.164062 6.078125 -44.09375 C 7.390625 -43.925781 9.039062 -43.84375 11.03125 -43.84375 L 31.765625 -43.84375 C 33.378906 -43.84375 34.550781 -43.925781 35.28125 -44.09375 C 36.007812 -44.269531 36.539062 -44.359375 36.875 -44.359375 C 37.59375 -44.359375 37.953125 -44.019531 37.953125 -43.34375 C 37.953125 -43 37.882812 -42.585938 37.75 -42.109375 C 37.425781 -41.035156 37.210938 -40.109375 37.109375 -39.328125 C 37.015625 -38.554688 36.921875 -37.925781 36.828125 -37.4375 C 36.742188 -36.945312 36.648438 -36.5625 36.546875 -36.28125 C 36.367188 -35.800781 36.101562 -35.5625 35.75 -35.5625 C 35.40625 -35.5625 35.179688 -35.6875 35.078125 -35.9375 C 34.984375 -36.1875 34.878906 -36.671875 34.765625 -37.390625 C 34.660156 -38.109375 34.476562 -38.695312 34.21875 -39.15625 C 33.957031 -39.613281 33.609375 -39.972656 33.171875 -40.234375 C 32.410156 -40.710938 31.164062 -40.953125 29.4375 -40.953125 L 22.40625 -40.953125 L 22.40625 -10.375 C 22.40625 -7.082031 22.550781 -4.957031 22.84375 -4 C 23.144531 -3.050781 23.503906 -2.394531 23.921875 -2.03125 C 24.347656 -1.675781 24.910156 -1.5 25.609375 -1.5 L 27.1875 -1.671875 C 27.96875 -1.671875 28.359375 -1.351562 28.359375 -0.71875 C 28.359375 0.0820312 27.660156 0.484375 26.265625 0.484375 C 25.546875 0.484375 24.785156 0.421875 23.984375 0.296875 C 21.359375 -0.117188 19.113281 -0.191406 17.25 0.078125 C 15.382812 0.347656 14.101562 0.484375 13.40625 0.484375 Z M 13.40625 0.484375 "/></g></g></g><g fill="#000000" fill-opacity="1"><g transform="translate(269.311029, 72.988179)"><g><path d="M 3.921875 0.484375 C 2.722656 0.484375 2.125 0.0820312 2.125 -0.71875 C 2.125 -1.351562 2.515625 -1.671875 3.296875 -1.671875 L 4.90625 -1.5 C 6.125 -1.5 6.953125 -2.023438 7.390625 -3.078125 C 7.867188 -4.273438 8.109375 -6.671875 8.109375 -10.265625 L 8.109375 -33.46875 C 8.109375 -37.039062 7.9375 -39.289062 7.59375 -40.21875 C 7.257812 -41.144531 6.882812 -41.726562 6.46875 -41.96875 C 6.0625 -42.207031 5.539062 -42.328125 4.90625 -42.328125 L 3.296875 -42.203125 C 2.515625 -42.203125 2.125 -42.519531 2.125 -43.15625 C 2.125 -43.957031 2.707031 -44.359375 3.875 -44.359375 C 5.039062 -44.359375 6 -44.332031 6.75 -44.28125 C 7.507812 -44.226562 8.269531 -44.164062 9.03125 -44.09375 C 11.0625 -43.925781 12.660156 -43.84375 13.828125 -43.84375 C 14.992188 -43.84375 16.226562 -43.867188 17.53125 -43.921875 C 18.84375 -43.972656 20.304688 -44.03125 21.921875 -44.09375 C 26.171875 -44.269531 29.117188 -44.359375 30.765625 -44.359375 C 32.410156 -44.359375 33.328125 -44.257812 33.515625 -44.0625 C 33.703125 -43.863281 33.796875 -43.597656 33.796875 -43.265625 C 33.796875 -42.929688 33.789062 -42.609375 33.78125 -42.296875 C 33.769531 -41.992188 33.753906 -41.65625 33.734375 -41.28125 C 33.710938 -40.78125 33.644531 -40.035156 33.53125 -39.046875 C 33.425781 -38.054688 33.296875 -37.390625 33.140625 -37.046875 C 32.984375 -36.710938 32.765625 -36.546875 32.484375 -36.546875 C 32.203125 -36.546875 32.003906 -36.613281 31.890625 -36.75 C 31.785156 -36.894531 31.640625 -37.222656 31.453125 -37.734375 C 31.265625 -38.242188 30.9375 -38.734375 30.46875 -39.203125 C 30 -39.671875 29.265625 -40.0625 28.265625 -40.375 C 26.304688 -40.957031 22.675781 -41.25 17.375 -41.25 L 14.453125 -41.25 C 13.929688 -41.25 13.597656 -41.171875 13.453125 -41.015625 C 13.316406 -40.867188 13.25 -40.523438 13.25 -39.984375 L 13.25 -26.203125 C 15.84375 -25.898438 17.992188 -25.75 19.703125 -25.75 C 21.421875 -25.75 22.644531 -25.757812 23.375 -25.78125 C 24.101562 -25.800781 24.707031 -25.863281 25.1875 -25.96875 C 26.039062 -26.125 26.648438 -26.507812 27.015625 -27.125 C 27.765625 -28.28125 28.367188 -28.859375 28.828125 -28.859375 C 29.410156 -28.859375 29.703125 -28.550781 29.703125 -27.9375 L 28.5625 -23.296875 L 28.6875 -20.8125 C 28.6875 -19.238281 28.316406 -18.453125 27.578125 -18.453125 C 26.941406 -18.453125 26.625 -18.867188 26.625 -19.703125 C 26.625 -20.546875 26.570312 -21.175781 26.46875 -21.59375 C 26.375 -22.007812 26.101562 -22.335938 25.65625 -22.578125 C 24.957031 -22.921875 23.253906 -23.09375 20.546875 -23.09375 C 17.835938 -23.09375 15.40625 -22.972656 13.25 -22.734375 L 13.25 -14.984375 C 13.25 -10.160156 13.359375 -6.179688 13.578125 -3.046875 C 15.347656 -2.648438 17.265625 -2.453125 19.328125 -2.453125 C 21.398438 -2.453125 23.171875 -2.503906 24.640625 -2.609375 C 26.117188 -2.722656 27.394531 -2.941406 28.46875 -3.265625 C 30.582031 -3.898438 32.140625 -5.113281 33.140625 -6.90625 C 33.578125 -7.6875 34.015625 -8.078125 34.453125 -8.078125 C 34.890625 -8.078125 35.109375 -7.757812 35.109375 -7.125 C 35.109375 -6.863281 35.03125 -6.53125 34.875 -6.125 C 34.695312 -5.550781 34.441406 -4.703125 34.109375 -3.578125 C 33.785156 -2.453125 33.535156 -1.640625 33.359375 -1.140625 C 33.191406 -0.640625 33 -0.257812 32.78125 0 C 32.457031 0.4375 31.8125 0.65625 30.84375 0.65625 C 29.882812 0.65625 28.957031 0.648438 28.0625 0.640625 C 27.175781 0.628906 26.238281 0.613281 25.25 0.59375 C 24.125 0.550781 22.367188 0.460938 19.984375 0.328125 C 14.054688 0.046875 10.578125 -0.0507812 9.546875 0.03125 C 8.523438 0.113281 7.75 0.179688 7.21875 0.234375 C 6.695312 0.296875 6.1875 0.351562 5.6875 0.40625 C 5.1875 0.457031 4.597656 0.484375 3.921875 0.484375 Z M 3.921875 0.484375 "/></g></g></g></svg>