<svg xmlns="http://www.w3.org/2000/svg" xmlns:xlink="http://www.w3.org/1999/xlink" width="500" zoomAndPan="magnify" viewBox="0 0 375 374.999991" height="500" preserveAspectRatio="xMidYMid meet" version="1.0"><defs><g/><clipPath id="b707fd43d4"><path d="M 11.265625 7.789062 L 359 7.789062 L 359 355.789062 L 11.265625 355.789062 Z M 11.265625 7.789062 " clip-rule="nonzero"/></clipPath></defs><g clip-path="url(#b707fd43d4)"><path fill="#e80c0c" d="M 185.089844 355.4375 C 89.058594 355.4375 11.265625 277.109375 11.265625 181.613281 C 11.265625 86.117188 89.058594 7.789062 185.089844 7.789062 C 281.125 7.789062 358.914062 85.582031 358.914062 181.613281 C 358.914062 277.644531 280.585938 355.4375 185.089844 355.4375 Z M 185.089844 18.519531 C 94.960938 18.519531 21.996094 91.480469 21.996094 181.613281 C 21.996094 271.746094 94.960938 344.707031 185.089844 344.707031 C 275.222656 344.707031 348.183594 271.746094 348.183594 181.613281 C 348.183594 91.480469 274.6875 18.519531 185.089844 18.519531 Z M 185.089844 18.519531 " fill-opacity="1" fill-rule="nonzero"/></g><path stroke-linecap="butt" transform="matrix(0.75, 0, 0, 0.75, -36.321702, 89.352906)" fill="none" stroke-linejoin="miter" d="M 94.481026 160.737802 L 94.481026 180.857595 L 90.814359 180.857595 C 83.949775 180.857595 72.606024 177.347178 76.579983 170.326345 C 78.689358 166.196136 88.5904 162.024261 94.481026 160.737802 Z M 101.340401 179.920095 L 101.845609 165.378428 C 102.314359 160.112802 100.053943 159.295094 105.199776 158.513844 C 112.37686 157.383635 118.106027 156.758635 123.876861 156.758635 C 128.168528 156.758635 132.652903 157.071135 137.91332 157.888844 C 140.954987 158.357594 144.934154 159.487802 147.975821 159.487802 C 144.465404 164.404469 111.90811 179.920095 101.340401 179.920095 Z M 154.527905 155.315927 C 151.835196 155.315927 150.236238 154.847177 147.975821 154.341969 C 138.579987 152.74301 130.741445 151.80551 122.277902 151.80551 C 117.486235 151.80551 112.53311 152.11801 106.954985 152.940927 C 104.850818 153.248219 103.600818 153.560719 102.78311 153.560719 C 100.402901 153.560719 103.09561 150.362802 102.93936 132.977384 L 105.199776 99.597173 C 106.606026 89.029464 107.267485 79.284672 109.178943 67.623213 C 111.246652 54.368004 113.309152 44.81592 115.731027 32.024252 C 116.861235 26.097169 117.329985 26.763835 127.387278 22.27946 L 143.335196 16.701335 C 151.991446 14.128418 161.741447 12.216959 171.449781 12.216959 C 178.507073 12.216959 185.678948 13.190918 192.231032 16.039876 C 225.762284 29.956544 216.99145 77.216964 202.444574 102.446132 C 198.939366 108.373216 194.767491 115.232591 190.475824 120.810716 C 189.501865 121.940925 189.033115 122.409675 188.215407 123.539883 C 185.522698 127.0503 174.647698 139.175301 171.449781 141.748218 C 170.199781 142.685718 169.850822 142.878426 168.600822 143.972176 L 160.60603 150.831552 C 159.944572 151.341968 154.527905 155.315927 154.527905 155.315927 Z M 118.928944 19.081543 C 118.928944 16.388835 118.460194 16.857585 116.350819 15.727376 C 112.53311 16.701335 112.37686 19.743001 110.934152 22.743002 C 110.152902 25.008627 106.954985 26.253419 103.757068 28.050294 C 94.632067 33.623211 86.329983 40.331544 78.335191 47.34717 C 65.27269 60.451337 56.77269 69.222171 46.246647 85.055506 C 38.913314 95.894048 27.882063 116.519049 27.882063 131.024259 C 27.882063 139.680509 33.652897 143.034676 37.163314 143.034676 C 38.913314 143.034676 40.007064 142.216968 39.694564 140.774259 C 38.913314 137.107592 32.835188 141.435718 32.835188 131.024259 C 32.835188 112.034674 53.77269 82.013839 66.871649 67.003421 L 77.397691 55.810712 C 83.949775 49.258628 101.027901 36.003419 108.361235 32.336752 L 102.62686 60.451337 C 100.715401 72.263838 96.387276 109.659674 96.543526 122.253425 C 96.543526 127.357592 95.454984 133.440926 95.454984 138.550301 C 95.454984 144.128426 94.944567 148.920093 94.944567 154.847177 C 88.74665 158.045094 70.538316 159.956552 70.538316 173.836762 C 70.538316 182.144054 82.350817 186.472179 89.5279 186.472179 C 90.970609 186.472179 91.944567 186.315929 92.725817 186.315929 C 94.012276 186.315929 94.324776 187.097179 94.788317 191.112804 C 94.944567 193.644055 94.944567 195.086763 95.611234 197.310721 C 96.543526 200.039888 97.986234 200.977388 99.272693 200.977388 C 100.715401 200.977388 102.001859 199.883638 101.845609 198.75343 L 101.184151 185.966971 C 105.356026 185.810721 113.819569 183.430512 117.173735 182.144054 C 127.387278 178.946137 141.579987 171.769053 150.548738 165.847178 C 154.059155 163.466969 155.345613 162.024261 157.569571 162.024261 C 159.01228 162.024261 160.60603 162.649261 163.491447 164.091969 C 166.496655 165.690928 165.871655 166.977386 168.095614 168.420095 C 173.204989 164.909678 167.470614 159.644052 162.517488 158.513844 C 163.142488 156.446135 164.897697 155.472177 167.626864 153.560719 C 169.538322 151.96176 171.293531 150.519052 173.204989 148.920093 C 175.621656 147.013843 183.460198 139.331551 185.835198 136.326342 L 190.632074 131.024259 C 205.0227 114.102383 215.079992 96.868007 220.345617 74.331547 C 224.632076 55.498212 223.189367 33.779461 208.840408 19.394043 C 198.939366 9.331542 185.210198 5.664876 171.293531 5.664876 C 161.741447 5.664876 152.147696 7.420084 143.335196 9.993001 L 125.163319 16.857585 C 123.059153 17.638835 121.303944 19.081543 118.928944 19.081543 Z M 217.449784 115.857591 C 217.449784 121.628425 217.918534 124.321133 223.845617 124.321133 C 228.486243 124.321133 233.439368 109.305507 236.439368 107.237799 C 236.439368 114.102383 241.548744 122.409675 249.543536 122.409675 C 252.272703 122.409675 255.31437 121.472175 258.512286 119.211758 L 263.303953 115.388841 C 271.418537 107.550299 270.481037 103.57634 268.06437 103.57634 C 267.12687 103.57634 265.996662 104.04509 265.215412 105.175299 C 262.954995 107.550299 262.486245 108.993007 259.444578 111.722174 C 255.934161 115.232591 252.585203 117.14405 249.543536 117.14405 C 246.189369 117.14405 243.34041 114.607591 242.053952 108.836757 C 240.611244 102.758632 243.34041 95.581548 237.725827 95.581548 C 235.658118 95.581548 229.111243 109.149257 225.913326 114.102383 L 224.626868 116.013841 C 223.845617 116.9878 224.314367 116.362799 223.845617 116.831549 C 223.845617 111.565924 226.069576 105.487799 228.137284 102.133632 C 232.772701 94.13884 235.970618 91.914881 238.392493 91.914881 C 241.392494 91.914881 243.34041 95.581548 245.564369 95.581548 C 249.699786 95.581548 245.564369 86.498214 238.038327 86.498214 C 226.887284 86.498214 217.449784 106.774257 217.449784 115.857591 Z M 307.51229 205.774264 C 307.19979 205.774264 306.892498 205.774264 306.579998 205.774264 C 302.720623 205.774264 301.314373 205.618014 301.314373 201.795097 C 301.314373 197.310721 306.069581 190.138846 308.335206 187.253429 C 315.663332 177.503428 318.079999 176.06072 326.699791 167.951345 L 335.314375 160.269052 C 336.444583 159.487802 337.225833 158.982594 338.199792 158.045094 C 339.6425 157.071135 340.11125 156.289885 341.710209 155.784677 C 342.491459 164.909678 343.152917 169.862803 338.199792 179.763845 C 337.382083 181.831554 335.939375 183.586762 334.845625 185.654471 C 333.402916 187.914887 332.272708 189.159679 330.517499 191.269054 C 326.231041 196.998221 314.882082 205.774264 307.51229 205.774264 Z M 263.767495 113.008633 C 263.767495 122.097175 267.116454 128.493009 273.981037 131.024259 C 281.158121 133.753426 289.814372 133.440926 299.871664 133.597176 L 312.777915 134.571134 C 325.413332 135.977384 333.871666 139.175301 339.6425 150.05551 L 326.856041 160.581552 C 318.236249 168.107595 310.710207 174.65447 303.694581 184.368012 C 298.897706 190.758638 296.168539 195.868013 296.168539 203.706555 C 296.168539 210.414889 303.694581 211.076347 308.178956 211.076347 C 323.970624 211.076347 347.949792 185.498221 347.949792 162.998219 C 347.949792 158.982594 347.132084 155.472177 346.350834 152.11801 C 347.595626 150.206552 359.606043 140.930509 362.96021 138.237801 L 373.173752 129.935717 C 379.725836 123.539883 385.147711 119.211758 392.163337 112.347174 C 399.340421 105.175299 396.491462 109.305507 396.491462 105.175299 C 395.673754 105.019049 395.048754 104.706549 394.231045 104.706549 C 392.986254 104.706549 391.543545 105.644049 387.876878 109.461757 C 385.772711 111.565924 383.861253 112.815924 381.793545 114.920091 L 369.512294 125.763842 C 362.298752 131.534675 350.793542 141.904468 343.777917 146.545093 C 342.022709 139.836759 331.803958 133.597176 325.569582 131.685717 C 314.376873 128.024259 307.048748 128.95655 295.699789 128.336759 C 287.079997 128.024259 273.668537 128.336759 270.626871 120.185716 C 269.027912 115.545091 269.694579 110.904466 270.314371 105.95134 C 271.757079 97.998215 277.022704 83.300297 281.66333 76.086755 C 284.704996 70.50863 286.460205 67.003421 290.746664 60.451337 L 309.621665 37.914878 C 311.022707 36.159669 312.309165 35.534669 313.908123 34.091961 C 316.48104 31.555502 320.616457 28.982585 323.658124 27.071127 C 327.986249 24.65446 332.585208 22.899252 337.069583 22.899252 C 342.178959 22.899252 346.819584 25.164877 350.017501 31.206544 C 356.720626 44.149253 353.991459 62.362796 351.767501 75.930505 C 350.949792 79.128422 345.533125 97.998215 350.481042 97.998215 C 353.991459 97.998215 354.652918 93.67009 355.746668 88.716964 C 358.788335 77.373214 361.830002 63.961754 361.830002 51.362795 C 361.830002 34.909669 354.809168 17.326335 339.6425 16.196126 C 323.970624 16.196126 312.970623 25.321127 302.251873 35.690919 C 296.168539 42.086753 287.548747 52.612795 283.418538 60.138837 C 274.137287 74.680505 263.767495 95.894048 263.767495 113.008633 Z M 390.887295 115.857591 C 390.887295 121.628425 391.356045 124.321133 397.283129 124.321133 C 401.923754 124.321133 406.876879 109.305507 409.87688 107.237799 C 409.87688 114.102383 414.986255 122.409675 422.981047 122.409675 C 425.710214 122.409675 428.751881 121.472175 431.949798 119.211758 L 436.741465 115.388841 C 444.856049 107.550299 443.918549 103.57634 441.501882 103.57634 C 440.564382 103.57634 439.434173 104.04509 438.652923 105.175299 C 436.392506 107.550299 435.923756 108.993007 432.88209 111.722174 C 429.371673 115.232591 426.022714 117.14405 422.981047 117.14405 C 419.62688 117.14405 416.777922 114.607591 415.491463 108.836757 C 414.048755 102.758632 416.777922 95.581548 411.163338 95.581548 C 409.09563 95.581548 402.548754 109.149257 399.350837 114.102383 L 398.064379 116.013841 C 397.283129 116.9878 397.751879 116.362799 397.283129 116.831549 C 397.283129 111.565924 399.507087 105.487799 401.574796 102.133632 C 406.210213 94.13884 409.40813 91.914881 411.830005 91.914881 C 414.830005 91.914881 416.777922 95.581548 419.00188 95.581548 C 423.137297 95.581548 419.00188 86.498214 411.475838 86.498214 C 400.324796 86.498214 390.887295 106.774257 390.887295 115.857591 Z M 445.66334 119.055508 L 445.97584 119.055508 C 453.033133 118.586758 459.0748 95.894048 466.251883 91.097173 C 466.251883 95.894048 467.694592 101.664882 472.647717 101.664882 C 476.975842 101.664882 482.705009 93.35759 485.902926 91.097173 C 485.902926 100.378423 481.460218 115.545091 486.059176 127.20655 C 487.814385 131.841967 490.699802 133.597176 493.741469 133.597176 C 499.007094 133.597176 505.085219 128.493009 509.220636 122.409675 C 510.350845 120.810716 510.975845 120.029466 511.949803 118.743008 C 512.923761 117.14405 513.392511 116.170091 514.330012 114.763841 C 515.46022 113.008633 518.970637 107.904466 518.970637 105.95134 C 518.970637 104.862799 518.033137 103.88884 517.371678 103.88884 C 513.861262 103.88884 513.080011 106.930507 511.637303 109.149257 C 507.465428 116.013841 499.981052 127.670092 495.340427 127.670092 C 492.61126 127.670092 490.856052 124.164883 490.856052 114.414883 C 490.856052 105.487799 493.741469 88.409673 490.856052 85.055506 C 490.074802 84.081547 489.100843 83.769047 488.163343 83.769047 C 487.189385 83.769047 486.215426 84.081547 485.277926 84.545089 C 483.522718 85.524256 482.548759 86.810714 481.106051 88.409673 C 478.262301 90.940923 474.559176 95.581548 472.178967 95.894048 C 472.178967 90.784673 471.048759 84.545089 466.251883 84.545089 C 462.428966 84.545089 457.788341 92.696131 456.038341 95.737798 L 448.548757 108.373216 C 448.236257 108.680507 448.080007 108.836757 447.731049 109.149257 C 447.731049 93.04509 455.413341 85.831547 447.262299 85.831547 C 441.533132 85.831547 434.47584 119.055508 445.66334 119.055508 Z M 511.939386 112.503424 C 511.939386 117.961758 511.158136 125.763842 518.49147 125.763842 C 523.444595 125.763842 530.970638 113.633633 533.501888 109.149257 C 534.475846 107.394049 536.699805 103.73259 537.986263 102.95134 C 537.986263 110.591966 538.611263 123.852383 549.137305 123.852383 C 553.934181 123.852383 559.236264 120.498216 563.527931 116.519049 C 565.434182 114.763841 572.803974 108.680507 572.803974 105.95134 C 572.803974 104.20134 571.517515 103.88884 570.231057 103.88884 C 567.18939 103.88884 556.663348 118.743008 549.647722 118.743008 C 546.606055 118.743008 544.18418 116.013841 543.251888 108.373216 C 542.783138 104.20134 544.850847 93.67009 540.522722 93.67009 C 537.481055 93.67009 536.543555 96.206548 534.475846 99.248215 L 524.887304 113.321133 C 523.288345 115.388841 521.533137 118.430508 518.96022 119.211758 C 516.580012 108.529466 526.330012 91.758631 526.330012 91.097173 C 526.330012 89.696131 525.819596 89.696131 525.663346 88.560714 C 524.574804 87.940923 523.600845 87.743006 522.819595 87.743006 C 521.533137 87.743006 520.402929 88.409673 519.309179 89.696131 C 515.293553 94.800298 511.939386 105.644049 511.939386 112.503424 Z M 511.939386 112.503424 " stroke="#fffef9" stroke-width="11.978925" stroke-opacity="1" stroke-miterlimit="4"/><g fill="#e80c0c" fill-opacity="1"><g transform="translate(-13.01311, 188.3529)"><g><path d="M 47.554688 21.5625 L 47.554688 36.652344 L 44.796875 36.652344 C 39.648438 36.652344 31.144531 34.019531 34.136719 28.746094 C 35.695312 25.632812 43.121094 22.519531 47.554688 21.5625 Z M 52.703125 35.933594 L 53.0625 25.035156 C 53.421875 21.082031 51.746094 20.484375 55.578125 19.882812 C 60.96875 19.046875 65.28125 18.566406 69.59375 18.566406 C 72.828125 18.566406 76.183594 18.804688 80.132812 19.40625 C 82.410156 19.765625 85.40625 20.601562 87.679688 20.601562 C 85.046875 24.316406 60.609375 35.933594 52.703125 35.933594 Z M 92.59375 17.488281 C 90.554688 17.488281 89.359375 17.128906 87.679688 16.769531 C 80.613281 15.570312 74.746094 14.851562 68.394531 14.851562 C 64.800781 14.851562 61.089844 15.09375 56.898438 15.691406 C 55.339844 15.929688 54.382812 16.171875 53.78125 16.171875 C 51.984375 16.171875 54.023438 13.773438 53.902344 0.71875 L 55.578125 -24.316406 C 56.65625 -32.222656 57.136719 -39.527344 58.574219 -48.273438 C 60.128906 -58.214844 61.6875 -65.402344 63.484375 -74.984375 C 64.324219 -79.414062 64.683594 -78.9375 72.230469 -82.289062 L 84.207031 -86.484375 C 90.675781 -88.398438 97.980469 -89.835938 105.289062 -89.835938 C 110.558594 -89.835938 115.949219 -89.117188 120.859375 -86.960938 C 146.015625 -76.542969 139.425781 -41.085938 128.527344 -22.160156 C 125.890625 -17.726562 122.777344 -12.578125 119.542969 -8.386719 C 118.824219 -7.546875 118.464844 -7.1875 117.867188 -6.347656 C 115.828125 -3.714844 107.683594 5.390625 105.289062 7.308594 C 104.332031 8.027344 104.089844 8.144531 103.132812 8.984375 L 97.144531 14.132812 C 96.664062 14.492188 92.59375 17.488281 92.59375 17.488281 Z M 65.878906 -84.6875 C 65.878906 -86.722656 65.519531 -86.363281 63.964844 -87.203125 C 61.089844 -86.484375 60.96875 -84.207031 59.890625 -81.929688 C 59.292969 -80.253906 56.898438 -79.296875 54.5 -77.976562 C 47.671875 -73.785156 41.445312 -68.753906 35.457031 -63.484375 C 25.632812 -53.664062 19.285156 -47.074219 11.378906 -35.214844 C 5.871094 -27.070312 -2.394531 -11.617188 -2.394531 -0.71875 C -2.394531 5.75 1.917969 8.265625 4.550781 8.265625 C 5.871094 8.265625 6.707031 7.667969 6.46875 6.589844 C 5.871094 3.832031 1.316406 7.066406 1.316406 -0.71875 C 1.316406 -14.972656 17.007812 -37.492188 26.832031 -48.75 L 34.738281 -57.136719 C 39.648438 -62.046875 52.464844 -71.988281 57.976562 -74.746094 L 53.664062 -53.664062 C 52.226562 -44.796875 48.992188 -16.769531 49.109375 -7.308594 C 49.109375 -3.472656 48.273438 1.078125 48.273438 4.910156 C 48.273438 9.101562 47.914062 12.695312 47.914062 17.128906 C 43.242188 19.523438 29.585938 20.960938 29.585938 31.382812 C 29.585938 37.613281 38.449219 40.847656 43.839844 40.847656 C 44.917969 40.847656 45.636719 40.726562 46.234375 40.726562 C 47.195312 40.726562 47.433594 41.324219 47.792969 44.320312 C 47.914062 46.234375 47.914062 47.3125 48.390625 48.992188 C 49.109375 51.027344 50.1875 51.746094 51.148438 51.746094 C 52.226562 51.746094 53.183594 50.90625 53.0625 50.070312 L 52.585938 40.488281 C 55.699219 40.367188 62.046875 38.570312 64.5625 37.613281 C 72.230469 35.214844 82.890625 29.824219 89.597656 25.394531 C 92.234375 23.597656 93.191406 22.519531 94.867188 22.519531 C 95.945312 22.519531 97.144531 23 99.300781 24.078125 C 101.574219 25.273438 101.097656 26.230469 102.773438 27.308594 C 106.605469 24.675781 102.292969 20.722656 98.582031 19.882812 C 99.058594 18.328125 100.378906 17.609375 102.414062 16.171875 C 103.851562 14.972656 105.167969 13.894531 106.605469 12.695312 C 108.402344 11.257812 114.273438 5.511719 116.070312 3.234375 L 119.664062 -0.71875 C 130.441406 -13.414062 137.988281 -26.351562 141.941406 -43.242188 C 145.175781 -57.375 144.097656 -73.667969 133.316406 -84.445312 C 125.890625 -91.992188 115.589844 -94.746094 105.167969 -94.746094 C 97.980469 -94.746094 90.796875 -93.429688 84.207031 -91.515625 L 70.550781 -86.363281 C 68.996094 -85.765625 67.675781 -84.6875 65.878906 -84.6875 Z M 65.878906 -84.6875 "/></g></g></g><g fill="#e80c0c" fill-opacity="1"><g transform="translate(126.766938, 188.3529)"><g><path d="M 0 -12.097656 C 0 -7.785156 0.359375 -5.75 4.792969 -5.75 C 8.265625 -5.75 11.976562 -17.007812 14.253906 -18.566406 C 14.253906 -13.414062 18.085938 -7.1875 24.078125 -7.1875 C 26.113281 -7.1875 28.386719 -7.90625 30.785156 -9.582031 L 34.378906 -12.457031 C 40.488281 -18.328125 39.769531 -21.320312 37.972656 -21.320312 C 37.253906 -21.320312 36.414062 -20.960938 35.816406 -20.125 C 34.136719 -18.328125 33.777344 -17.25 31.503906 -15.210938 C 28.867188 -12.578125 26.351562 -11.140625 24.078125 -11.140625 C 21.5625 -11.140625 19.40625 -13.054688 18.445312 -17.367188 C 17.367188 -21.921875 19.40625 -27.308594 15.210938 -27.308594 C 13.65625 -27.308594 8.742188 -17.128906 6.347656 -13.414062 L 5.390625 -11.976562 C 4.792969 -11.257812 5.152344 -11.738281 4.792969 -11.378906 C 4.792969 -15.332031 6.46875 -19.882812 8.027344 -22.398438 C 11.5 -28.386719 13.894531 -30.066406 15.691406 -30.066406 C 17.96875 -30.066406 19.40625 -27.308594 21.082031 -27.308594 C 24.195312 -27.308594 21.082031 -34.136719 15.453125 -34.136719 C 7.066406 -34.136719 0 -18.925781 0 -12.097656 Z M 0 -12.097656 "/></g></g></g><g fill="#e80c0c" fill-opacity="1"><g transform="translate(161.502341, 188.3529)"><g><path d="M 32.820312 55.339844 C 32.582031 55.339844 32.339844 55.339844 32.101562 55.339844 C 29.226562 55.339844 28.148438 55.21875 28.148438 52.34375 C 28.148438 48.992188 31.742188 43.601562 33.417969 41.445312 C 38.929688 34.136719 40.726562 33.058594 47.195312 26.949219 L 53.664062 21.203125 C 54.5 20.601562 55.101562 20.242188 55.820312 19.523438 C 56.898438 18.804688 57.257812 18.207031 58.453125 17.847656 C 59.054688 24.675781 59.53125 28.386719 55.820312 35.816406 C 55.21875 37.371094 54.140625 38.691406 53.304688 40.246094 C 52.226562 41.925781 51.386719 42.882812 50.070312 44.4375 C 46.835938 48.75 38.332031 55.339844 32.820312 55.339844 Z M 0 -14.253906 C 0 -7.425781 2.515625 -2.636719 7.667969 -0.71875 C 13.054688 1.316406 19.523438 1.078125 27.070312 1.199219 L 36.773438 1.917969 C 46.234375 2.996094 52.585938 5.390625 56.898438 13.535156 L 47.3125 21.441406 C 40.847656 27.070312 35.214844 31.980469 29.945312 39.289062 C 26.351562 44.078125 24.316406 47.914062 24.316406 53.78125 C 24.316406 58.8125 29.945312 59.292969 33.300781 59.292969 C 45.15625 59.292969 63.125 40.128906 63.125 23.238281 C 63.125 20.242188 62.527344 17.609375 61.925781 15.09375 C 62.886719 13.65625 71.871094 6.707031 74.386719 4.671875 L 82.050781 -1.558594 C 86.960938 -6.347656 91.035156 -9.582031 96.304688 -14.734375 C 101.695312 -20.125 99.539062 -17.007812 99.539062 -20.125 C 98.941406 -20.242188 98.460938 -20.484375 97.863281 -20.484375 C 96.902344 -20.484375 95.824219 -19.765625 93.070312 -16.890625 C 91.515625 -15.332031 90.078125 -14.375 88.519531 -12.816406 L 79.296875 -4.671875 C 73.90625 -0.359375 65.28125 7.425781 60.011719 10.898438 C 58.695312 5.871094 51.027344 1.199219 46.355469 -0.238281 C 37.972656 -2.996094 32.460938 -2.277344 23.957031 -2.753906 C 17.488281 -2.996094 7.425781 -2.753906 5.152344 -8.863281 C 3.953125 -12.335938 4.433594 -15.8125 4.910156 -19.523438 C 5.988281 -25.515625 9.941406 -36.535156 13.414062 -41.925781 C 15.691406 -46.117188 17.007812 -48.75 20.242188 -53.664062 L 34.378906 -70.550781 C 35.457031 -71.871094 36.414062 -72.347656 37.613281 -73.425781 C 39.527344 -75.34375 42.640625 -77.257812 44.917969 -78.695312 C 48.152344 -80.492188 51.625 -81.8125 54.980469 -81.8125 C 58.8125 -81.8125 62.285156 -80.132812 64.683594 -75.582031 C 69.714844 -65.878906 67.675781 -52.226562 66 -42.042969 C 65.402344 -39.648438 61.328125 -25.515625 65.042969 -25.515625 C 67.675781 -25.515625 68.15625 -28.746094 68.996094 -32.460938 C 71.269531 -40.964844 73.546875 -51.027344 73.546875 -60.488281 C 73.546875 -72.828125 68.277344 -86.003906 56.898438 -86.84375 C 45.15625 -86.84375 36.894531 -80.015625 28.867188 -72.230469 C 24.316406 -67.4375 17.847656 -59.53125 14.734375 -53.902344 C 7.785156 -43 0 -27.070312 0 -14.253906 Z M 0 -14.253906 "/></g></g></g><g fill="#e80c0c" fill-opacity="1"><g transform="translate(256.845032, 188.3529)"><g><path d="M 0 -12.097656 C 0 -7.785156 0.359375 -5.75 4.792969 -5.75 C 8.265625 -5.75 11.976562 -17.007812 14.253906 -18.566406 C 14.253906 -13.414062 18.085938 -7.1875 24.078125 -7.1875 C 26.113281 -7.1875 28.386719 -7.90625 30.785156 -9.582031 L 34.378906 -12.457031 C 40.488281 -18.328125 39.769531 -21.320312 37.972656 -21.320312 C 37.253906 -21.320312 36.414062 -20.960938 35.816406 -20.125 C 34.136719 -18.328125 33.777344 -17.25 31.503906 -15.210938 C 28.867188 -12.578125 26.351562 -11.140625 24.078125 -11.140625 C 21.5625 -11.140625 19.40625 -13.054688 18.445312 -17.367188 C 17.367188 -21.921875 19.40625 -27.308594 15.210938 -27.308594 C 13.65625 -27.308594 8.742188 -17.128906 6.347656 -13.414062 L 5.390625 -11.976562 C 4.792969 -11.257812 5.152344 -11.738281 4.792969 -11.378906 C 4.792969 -15.332031 6.46875 -19.882812 8.027344 -22.398438 C 11.5 -28.386719 13.894531 -30.066406 15.691406 -30.066406 C 17.96875 -30.066406 19.40625 -27.308594 21.082031 -27.308594 C 24.195312 -27.308594 21.082031 -34.136719 15.453125 -34.136719 C 7.066406 -34.136719 0 -18.925781 0 -12.097656 Z M 0 -12.097656 "/></g></g></g><g fill="#e80c0c" fill-opacity="1"><g transform="translate(291.580434, 188.3529)"><g><path d="M 6.347656 -9.703125 L 6.589844 -9.703125 C 11.859375 -10.0625 16.410156 -27.070312 21.800781 -30.664062 C 21.800781 -27.070312 22.878906 -22.757812 26.589844 -22.757812 C 29.824219 -22.757812 34.136719 -28.988281 36.535156 -30.664062 C 36.535156 -23.71875 33.179688 -12.335938 36.652344 -3.59375 C 37.972656 -0.121094 40.128906 1.199219 42.402344 1.199219 C 46.355469 1.199219 50.90625 -2.636719 54.023438 -7.1875 C 54.859375 -8.386719 55.339844 -8.984375 56.058594 -9.941406 C 56.777344 -11.140625 57.136719 -11.859375 57.855469 -12.9375 C 58.695312 -14.253906 61.328125 -18.085938 61.328125 -19.523438 C 61.328125 -20.363281 60.609375 -21.082031 60.128906 -21.082031 C 57.496094 -21.082031 56.898438 -18.804688 55.820312 -17.128906 C 52.703125 -11.976562 47.074219 -3.234375 43.601562 -3.234375 C 41.566406 -3.234375 40.246094 -5.871094 40.246094 -13.175781 C 40.246094 -19.882812 42.402344 -32.699219 40.246094 -35.214844 C 39.648438 -35.933594 38.929688 -36.175781 38.210938 -36.175781 C 37.492188 -36.175781 36.773438 -35.933594 36.054688 -35.574219 C 34.738281 -34.855469 34.019531 -33.898438 32.941406 -32.699219 C 30.785156 -30.785156 28.027344 -27.308594 26.230469 -27.070312 C 26.230469 -30.902344 25.394531 -35.574219 21.800781 -35.574219 C 18.925781 -35.574219 15.453125 -29.464844 14.132812 -27.191406 L 8.503906 -17.726562 C 8.265625 -17.488281 8.144531 -17.367188 7.90625 -17.128906 C 7.90625 -29.226562 13.65625 -34.617188 7.546875 -34.617188 C 3.234375 -34.617188 -2.035156 -9.703125 6.347656 -9.703125 Z M 6.347656 -9.703125 "/></g></g></g><g fill="#e80c0c" fill-opacity="1"><g transform="translate(347.516405, 188.3529)"><g><path d="M 0.121094 -14.613281 C 0.121094 -10.539062 -0.480469 -4.671875 5.03125 -4.671875 C 8.742188 -4.671875 14.375 -13.773438 16.289062 -17.128906 C 17.007812 -18.445312 18.6875 -21.203125 19.644531 -21.800781 C 19.644531 -16.050781 20.125 -6.109375 28.027344 -6.109375 C 31.621094 -6.109375 35.574219 -8.625 38.808594 -11.617188 C 40.246094 -12.9375 45.757812 -17.488281 45.757812 -19.523438 C 45.757812 -20.84375 44.796875 -21.082031 43.839844 -21.082031 C 41.566406 -21.082031 33.660156 -9.941406 28.386719 -9.941406 C 26.113281 -9.941406 24.316406 -11.976562 23.597656 -17.726562 C 23.238281 -20.84375 24.796875 -28.746094 21.5625 -28.746094 C 19.285156 -28.746094 18.566406 -26.832031 17.007812 -24.554688 L 9.820312 -14.015625 C 8.625 -12.457031 7.308594 -10.179688 5.390625 -9.582031 C 3.59375 -17.609375 10.898438 -30.183594 10.898438 -30.664062 C 10.898438 -31.742188 10.539062 -31.742188 10.421875 -32.582031 C 9.582031 -33.058594 8.863281 -33.179688 8.265625 -33.179688 C 7.308594 -33.179688 6.46875 -32.699219 5.628906 -31.742188 C 2.636719 -27.910156 0.121094 -19.765625 0.121094 -14.613281 Z M 0.121094 -14.613281 "/></g></g></g><path fill="#fffef9" d="M 335.128906 287.9375 C 332.980469 290.867188 330.746094 293.730469 328.429688 296.527344 C 326.113281 299.328125 323.71875 302.054688 321.242188 304.710938 C 318.769531 307.371094 316.214844 309.953125 313.589844 312.460938 C 310.960938 314.96875 308.265625 317.398438 305.496094 319.75 C 302.726562 322.097656 299.890625 324.367188 296.988281 326.550781 C 294.085938 328.734375 291.121094 330.832031 288.097656 332.84375 C 285.074219 334.851562 281.992188 336.773438 278.855469 338.601562 C 275.714844 340.433594 272.527344 342.171875 269.289062 343.8125 C 266.050781 345.457031 262.765625 347.003906 259.4375 348.457031 C 256.105469 349.90625 252.738281 351.257812 249.328125 352.511719 C 245.917969 353.765625 242.476562 354.921875 239 355.972656 C 235.523438 357.023438 232.019531 357.976562 228.488281 358.820312 C 224.957031 359.667969 221.402344 360.410156 217.828125 361.050781 C 214.25 361.691406 210.660156 362.222656 207.054688 362.652344 C 203.445312 363.082031 199.832031 363.402344 196.207031 363.621094 C 192.578125 363.839844 188.949219 363.949219 185.320312 363.953125 C 181.6875 363.957031 178.058594 363.855469 174.429688 363.648438 C 170.804688 363.441406 167.1875 363.125 163.582031 362.707031 C 159.972656 362.285156 156.378906 361.761719 152.804688 361.128906 C 149.226562 360.5 145.671875 359.765625 142.136719 358.929688 C 138.601562 358.089844 135.097656 357.148438 131.617188 356.105469 C 128.136719 355.0625 124.691406 353.917969 121.28125 352.671875 C 117.867188 351.425781 114.496094 350.082031 111.164062 348.636719 C 107.828125 347.195312 104.542969 345.65625 101.296875 344.019531 C 98.054688 342.386719 94.863281 340.65625 91.722656 338.832031 C 88.578125 337.011719 85.492188 335.097656 82.464844 333.09375 C 79.433594 331.089844 76.464844 329 73.558594 326.824219 C 70.652344 324.648438 67.808594 322.386719 65.035156 320.042969 C 62.257812 317.699219 59.554688 315.277344 56.921875 312.777344 C 54.289062 310.273438 51.730469 307.699219 49.25 305.046875 C 46.765625 302.394531 44.363281 299.671875 42.039062 296.882812 C 39.71875 294.089844 37.476562 291.230469 35.324219 288.308594 L 68.699219 263.699219 C 70.375 265.96875 72.113281 268.191406 73.917969 270.359375 C 75.722656 272.53125 77.589844 274.644531 79.519531 276.707031 C 81.449219 278.765625 83.4375 280.769531 85.484375 282.714844 C 87.53125 284.65625 89.632812 286.539062 91.789062 288.359375 C 93.945312 290.183594 96.152344 291.9375 98.414062 293.628906 C 100.671875 295.324219 102.980469 296.945312 105.335938 298.503906 C 107.6875 300.058594 110.085938 301.546875 112.527344 302.964844 C 114.96875 304.378906 117.449219 305.722656 119.972656 306.996094 C 122.492188 308.265625 125.046875 309.460938 127.636719 310.582031 C 130.226562 311.703125 132.847656 312.75 135.5 313.71875 C 138.152344 314.683594 140.828125 315.574219 143.535156 316.386719 C 146.238281 317.195312 148.960938 317.929688 151.707031 318.578125 C 154.453125 319.230469 157.21875 319.800781 160 320.292969 C 162.777344 320.78125 165.570312 321.1875 168.375 321.515625 C 171.175781 321.84375 173.988281 322.085938 176.804688 322.246094 C 179.625 322.410156 182.445312 322.488281 185.269531 322.484375 C 188.089844 322.480469 190.910156 322.394531 193.726562 322.226562 C 196.546875 322.058594 199.355469 321.808594 202.160156 321.472656 C 204.960938 321.140625 207.753906 320.726562 210.53125 320.230469 C 213.308594 319.734375 216.070312 319.15625 218.816406 318.496094 C 221.5625 317.839844 224.285156 317.101562 226.988281 316.28125 C 229.6875 315.464844 232.363281 314.570312 235.011719 313.59375 C 237.664062 312.621094 240.28125 311.570312 242.867188 310.441406 C 245.457031 309.3125 248.007812 308.109375 250.527344 306.832031 C 253.042969 305.554688 255.519531 304.207031 257.957031 302.785156 C 260.398438 301.363281 262.792969 299.871094 265.140625 298.308594 C 267.492188 296.746094 269.796875 295.113281 272.050781 293.417969 C 274.304688 291.71875 276.511719 289.957031 278.664062 288.132812 C 280.816406 286.304688 282.910156 284.417969 284.953125 282.46875 C 286.996094 280.519531 288.976562 278.511719 290.902344 276.445312 C 292.824219 274.378906 294.6875 272.261719 296.488281 270.085938 C 298.289062 267.910156 300.023438 265.6875 301.691406 263.410156 Z M 335.128906 287.9375 " fill-opacity="1" fill-rule="nonzero"/><g fill="#e80c0c" fill-opacity="1"><g transform="translate(47.650131, 289.128192)"><g><path d="M 16.640625 -11.484375 L 22 -5.546875 C 23.6875 -3.679688 24.550781 -1.835938 24.59375 -0.015625 C 24.632812 1.804688 23.847656 3.445312 22.234375 4.90625 C 20.546875 6.4375 18.773438 7.109375 16.921875 6.921875 C 15.066406 6.734375 13.296875 5.707031 11.609375 3.84375 L 8.515625 0.421875 L 4.03125 4.46875 L 1.765625 1.953125 Z M 16.65625 -6.9375 L 10.765625 -1.625 L 13.765625 1.6875 C 15.929688 4.082031 18.015625 4.378906 20.015625 2.578125 C 21.941406 0.835938 21.820312 -1.226562 19.65625 -3.625 Z M 16.65625 -6.9375 "/></g></g></g><g fill="#e80c0c" fill-opacity="1"><g transform="translate(79.994509, 319.827327)"><g><path d="M 4.921875 3.453125 L 2.15625 1.515625 L 13.6875 -14.875 L 16.453125 -12.9375 Z M 4.921875 3.453125 "/></g></g></g><g fill="#e80c0c" fill-opacity="1"><g transform="translate(109.065771, 337.531825)"><g><path d="M 23.203125 -9.484375 L 6.375 -0.65625 L 17.78125 4.046875 L 16.625 6.84375 L 0.984375 0.40625 L 1.90625 -1.84375 L 18.78125 -10.671875 L 7.8125 -15.1875 L 8.953125 -17.984375 L 24.125 -11.734375 Z M 23.203125 -9.484375 "/></g></g></g><g fill="#e80c0c" fill-opacity="1"><g transform="translate(151.598804, 351.513288)"><g><path d="M 20.078125 -15 L 6 -2.234375 L 18.21875 -0.546875 L 17.8125 2.453125 L 1.046875 0.140625 L 1.375 -2.28125 L 15.484375 -15.046875 L 3.734375 -16.65625 L 4.15625 -19.65625 L 20.40625 -17.421875 Z M 20.078125 -15 "/></g></g></g><g fill="#e80c0c" fill-opacity="1"><g transform="translate(196.269558, 354.355161)"><g><path d="M 14.875 -18.875 L 4 -17.609375 L 4.625 -12.21875 L 14.359375 -13.359375 L 14.703125 -10.34375 L 4.96875 -9.203125 L 5.609375 -3.71875 L 16.828125 -5.03125 L 17.1875 -2.015625 L 2.625 -0.3125 L 0.296875 -20.21875 L 14.515625 -21.875 Z M 14.875 -18.875 "/></g></g></g><g fill="#e80c0c" fill-opacity="1"><g transform="translate(240.022776, 346.016622)"><g><path d="M 14.28125 -5.609375 L 8.65625 -9.9375 C 8.476562 -9.84375 8.191406 -9.71875 7.796875 -9.5625 L 3.375 -7.828125 L 5.59375 -2.203125 L 2.453125 -0.96875 L -4.875 -19.625 L 2.6875 -22.59375 C 5.070312 -23.53125 7.140625 -23.703125 8.890625 -23.109375 C 10.640625 -22.515625 11.910156 -21.203125 12.703125 -19.171875 C 13.285156 -17.679688 13.445312 -16.289062 13.1875 -15 C 12.9375 -13.707031 12.28125 -12.578125 11.21875 -11.609375 L 17.859375 -7.015625 Z M 2.28125 -10.65625 L 6.703125 -12.390625 C 9.734375 -13.578125 10.753906 -15.425781 9.765625 -17.9375 C 8.816406 -20.351562 6.828125 -20.96875 3.796875 -19.78125 L -0.625 -18.046875 Z M 2.28125 -10.65625 "/></g></g></g><g fill="#e80c0c" fill-opacity="1"><g transform="translate(281.465628, 325.902133)"><g><path d="M 4.953125 -3.40625 L 2.171875 -1.5 L -9.171875 -18.03125 L -6.390625 -19.9375 Z M 4.953125 -3.40625 "/></g></g></g><g fill="#e80c0c" fill-opacity="1"><g transform="translate(308.287243, 304.817271)"><g><path d="M 7.171875 -14.5625 L 0.34375 -7.09375 L 2.390625 -2.625 L 0.015625 -0.015625 L -8.8125 -20.078125 L -6.46875 -22.640625 L 14.234375 -15.578125 L 11.8125 -12.921875 Z M 4.078125 -15.625 L -5.046875 -18.859375 L -1.015625 -10.046875 Z M 4.078125 -15.625 "/></g></g></g></svg>