<svg xmlns="http://www.w3.org/2000/svg" xmlns:xlink="http://www.w3.org/1999/xlink" width="500" zoomAndPan="magnify" viewBox="0 0 375 374.999991" height="500" preserveAspectRatio="xMidYMid meet" version="1.0"><defs><g/><clipPath id="a3c061aeee"><path d="M 76.777344 73 L 298.027344 73 L 298.027344 302 L 76.777344 302 Z M 76.777344 73 " clip-rule="nonzero"/></clipPath><clipPath id="aff2989bdb"><path d="M 159 100.3125 L 215.851562 100.3125 L 215.851562 156.5625 L 159 156.5625 Z M 159 100.3125 " clip-rule="nonzero"/></clipPath></defs><g clip-path="url(#a3c061aeee)"><path fill="#3d3b3a" d="M 159.660156 76.703125 C 161.453125 76.253906 163.257812 75.847656 165.070312 75.484375 C 166.882812 75.121094 168.703125 74.804688 170.535156 74.53125 C 172.363281 74.257812 174.199219 74.027344 176.039062 73.84375 C 177.878906 73.65625 179.722656 73.519531 181.566406 73.421875 C 183.414062 73.328125 185.261719 73.277344 187.113281 73.273438 C 188.960938 73.265625 190.808594 73.304688 192.65625 73.390625 C 194.503906 73.476562 196.347656 73.605469 198.191406 73.777344 C 200.03125 73.953125 201.867188 74.171875 203.699219 74.433594 C 205.527344 74.699219 207.351562 75.007812 209.167969 75.359375 C 210.980469 75.710938 212.789062 76.105469 214.585938 76.546875 C 216.378906 76.984375 218.164062 77.46875 219.9375 77.996094 C 221.710938 78.519531 223.46875 79.089844 225.214844 79.703125 C 226.960938 80.3125 228.6875 80.96875 230.402344 81.664062 C 232.117188 82.359375 233.8125 83.097656 235.488281 83.875 C 237.167969 84.652344 238.824219 85.472656 240.460938 86.328125 C 242.101562 87.1875 243.714844 88.085938 245.308594 89.023438 C 246.90625 89.960938 248.476562 90.9375 250.023438 91.949219 C 251.570312 92.964844 253.089844 94.015625 254.585938 95.101562 C 256.082031 96.191406 257.550781 97.3125 258.992188 98.472656 C 260.433594 99.628906 261.84375 100.824219 263.226562 102.050781 C 264.609375 103.277344 265.964844 104.539062 267.285156 105.832031 C 268.605469 107.125 269.898438 108.449219 271.152344 109.804688 C 272.410156 111.164062 273.636719 112.546875 274.824219 113.964844 C 276.015625 115.378906 277.171875 116.820312 278.292969 118.292969 C 279.410156 119.765625 280.496094 121.261719 281.542969 122.789062 C 282.589844 124.3125 283.597656 125.859375 284.570312 127.433594 C 285.542969 129.007812 286.476562 130.601562 287.371094 132.222656 C 288.265625 133.839844 289.121094 135.480469 289.9375 137.140625 C 290.75 138.800781 291.523438 140.476562 292.257812 142.175781 C 292.992188 143.875 293.683594 145.589844 294.332031 147.320312 C 294.984375 149.050781 295.589844 150.796875 296.15625 152.558594 C 296.722656 154.320312 297.242188 156.09375 297.722656 157.878906 C 297.898438 158.539062 298.074219 159.210938 298.242188 159.894531 L 296.496094 160.503906 C 296.316406 159.785156 296.136719 159.070312 295.941406 158.351562 C 295.46875 156.582031 294.949219 154.824219 294.390625 153.078125 C 293.832031 151.335938 293.226562 149.605469 292.582031 147.886719 C 291.9375 146.171875 291.25 144.472656 290.523438 142.792969 C 289.792969 141.109375 289.023438 139.445312 288.214844 137.800781 C 287.40625 136.15625 286.554688 134.535156 285.667969 132.929688 C 284.777344 131.328125 283.851562 129.75 282.882812 128.191406 C 281.917969 126.632812 280.914062 125.101562 279.871094 123.59375 C 278.828125 122.085938 277.75 120.601562 276.636719 119.148438 C 275.523438 117.691406 274.375 116.265625 273.191406 114.867188 C 272.007812 113.464844 270.789062 112.097656 269.539062 110.757812 C 268.285156 109.417969 267.003906 108.109375 265.6875 106.832031 C 264.371094 105.554688 263.027344 104.3125 261.652344 103.101562 C 260.273438 101.890625 258.871094 100.714844 257.4375 99.574219 C 256.003906 98.429688 254.542969 97.324219 253.054688 96.253906 C 251.566406 95.183594 250.054688 94.148438 248.515625 93.152344 C 246.976562 92.15625 245.414062 91.199219 243.828125 90.277344 C 242.242188 89.359375 240.636719 88.480469 239.007812 87.636719 C 237.378906 86.796875 235.730469 85.996094 234.0625 85.234375 C 232.398438 84.472656 230.710938 83.753906 229.007812 83.078125 C 227.304688 82.398438 225.585938 81.761719 223.851562 81.167969 C 222.117188 80.574219 220.371094 80.023438 218.609375 79.515625 C 216.847656 79.007812 215.078125 78.542969 213.292969 78.121094 C 211.507812 77.699219 209.714844 77.320312 207.914062 76.988281 C 206.113281 76.652344 204.300781 76.363281 202.484375 76.121094 C 200.667969 75.875 198.847656 75.675781 197.023438 75.519531 C 195.195312 75.363281 193.367188 75.25 191.535156 75.183594 C 189.703125 75.117188 187.871094 75.097656 186.039062 75.121094 C 184.207031 75.144531 182.375 75.210938 180.546875 75.324219 C 178.714844 75.4375 176.890625 75.59375 175.070312 75.796875 C 173.246094 76 171.429688 76.246094 169.621094 76.539062 C 167.8125 76.828125 166.011719 77.164062 164.21875 77.542969 C 162.425781 77.921875 160.640625 78.347656 158.867188 78.8125 C 159.144531 78.117188 159.414062 77.417969 159.660156 76.707031 Z M 78.523438 214.730469 C 78.671875 215.320312 78.820312 215.902344 78.976562 216.488281 C 79.453125 218.265625 79.972656 220.027344 80.535156 221.777344 C 81.097656 223.527344 81.703125 225.261719 82.347656 226.980469 C 82.996094 228.699219 83.683594 230.402344 84.414062 232.089844 C 85.148438 233.773438 85.917969 235.441406 86.730469 237.089844 C 87.542969 238.738281 88.394531 240.363281 89.289062 241.972656 C 90.179688 243.578125 91.113281 245.160156 92.082031 246.722656 C 93.054688 248.28125 94.0625 249.816406 95.105469 251.328125 C 96.152344 252.839844 97.234375 254.324219 98.351562 255.78125 C 99.472656 257.238281 100.625 258.667969 101.8125 260.070312 C 103.003906 261.472656 104.222656 262.84375 105.480469 264.183594 C 106.734375 265.527344 108.023438 266.835938 109.34375 268.113281 C 110.664062 269.390625 112.015625 270.636719 113.398438 271.847656 C 114.777344 273.058594 116.1875 274.238281 117.628906 275.378906 C 119.066406 276.523438 120.53125 277.628906 122.027344 278.699219 C 123.519531 279.769531 125.039062 280.804688 126.582031 281.800781 C 128.125 282.796875 129.695312 283.753906 131.285156 284.671875 C 132.875 285.59375 134.488281 286.472656 136.125 287.3125 C 137.757812 288.152344 139.410156 288.949219 141.085938 289.710938 C 142.757812 290.46875 144.449219 291.1875 146.160156 291.863281 C 147.867188 292.539062 149.589844 293.171875 151.332031 293.761719 C 153.070312 294.351562 154.824219 294.902344 156.589844 295.40625 C 158.359375 295.910156 160.136719 296.375 161.925781 296.792969 C 163.714844 297.207031 165.511719 297.582031 167.320312 297.914062 C 169.128906 298.242188 170.945312 298.527344 172.765625 298.765625 C 174.585938 299.007812 176.414062 299.203125 178.246094 299.355469 C 180.078125 299.503906 181.910156 299.609375 183.746094 299.671875 C 185.582031 299.734375 187.421875 299.75 189.257812 299.71875 C 191.09375 299.691406 192.929688 299.617188 194.765625 299.496094 C 196.597656 299.375 198.425781 299.210938 200.253906 299.003906 C 202.078125 298.792969 203.898438 298.539062 205.710938 298.242188 C 207.523438 297.941406 209.328125 297.601562 211.125 297.214844 C 212.921875 296.828125 214.707031 296.394531 216.480469 295.921875 C 216.195312 296.617188 215.917969 297.320312 215.660156 298.03125 C 213.863281 298.488281 212.058594 298.902344 210.242188 299.273438 C 208.425781 299.640625 206.601562 299.964844 204.769531 300.246094 C 202.9375 300.527344 201.101562 300.765625 199.257812 300.953125 C 197.414062 301.144531 195.566406 301.292969 193.714844 301.394531 C 191.863281 301.496094 190.011719 301.550781 188.15625 301.5625 C 186.304688 301.574219 184.453125 301.539062 182.597656 301.460938 C 180.746094 301.378906 178.898438 301.257812 177.054688 301.085938 C 175.207031 300.917969 173.367188 300.703125 171.53125 300.445312 C 169.695312 300.1875 167.867188 299.882812 166.046875 299.535156 C 164.226562 299.1875 162.414062 298.792969 160.613281 298.359375 C 158.8125 297.921875 157.023438 297.441406 155.246094 296.917969 C 153.464844 296.394531 151.703125 295.828125 149.953125 295.21875 C 148.199219 294.609375 146.464844 293.960938 144.746094 293.265625 C 143.027344 292.570312 141.328125 291.835938 139.644531 291.058594 C 137.960938 290.285156 136.296875 289.46875 134.65625 288.609375 C 133.011719 287.75 131.390625 286.855469 129.789062 285.917969 C 128.191406 284.980469 126.613281 284.007812 125.0625 282.992188 C 123.511719 281.980469 121.984375 280.929688 120.484375 279.84375 C 118.984375 278.753906 117.507812 277.632812 116.0625 276.472656 C 114.617188 275.3125 113.199219 274.117188 111.8125 272.890625 C 110.421875 271.660156 109.066406 270.398438 107.738281 269.105469 C 106.414062 267.8125 105.117188 266.484375 103.855469 265.128906 C 102.59375 263.769531 101.367188 262.382812 100.171875 260.964844 C 98.976562 259.546875 97.816406 258.101562 96.695312 256.628906 C 95.570312 255.15625 94.480469 253.65625 93.429688 252.128906 C 92.378906 250.601562 91.367188 249.050781 90.390625 247.472656 C 89.414062 245.898438 88.480469 244.296875 87.582031 242.675781 C 86.683594 241.054688 85.828125 239.414062 85.007812 237.75 C 84.191406 236.085938 83.414062 234.402344 82.679688 232.703125 C 81.941406 231 81.25 229.28125 80.597656 227.546875 C 79.945312 225.8125 79.335938 224.0625 78.769531 222.296875 C 78.203125 220.53125 77.679688 218.753906 77.199219 216.964844 C 77.054688 216.425781 76.917969 215.882812 76.777344 215.34375 Z M 78.523438 214.730469 " fill-opacity="1" fill-rule="evenodd"/></g><g clip-path="url(#aff2989bdb)"><path fill="#000000" d="M 186.289062 100.320312 C 185.238281 100.300781 184.171875 100.34375 183.105469 100.453125 C 170.972656 101.683594 161.191406 111.394531 159.847656 123.550781 C 159.007812 131.136719 161.304688 138.421875 166.332031 144.054688 C 171.292969 149.625 178.382812 152.8125 185.8125 152.8125 C 188.558594 152.8125 191.234375 152.390625 193.761719 151.574219 C 195.964844 154.59375 199.53125 156.5625 203.542969 156.5625 C 210.238281 156.5625 215.675781 151.097656 215.675781 144.375 C 215.675781 137.652344 210.238281 132.1875 203.542969 132.1875 C 196.851562 132.1875 191.410156 137.652344 191.410156 144.375 L 191.410156 144.449219 C 189.617188 145.023438 187.734375 145.3125 185.8125 145.3125 C 180.632812 145.3125 175.816406 143.230469 172.25 139.453125 C 168.695312 135.671875 166.894531 130.714844 167.175781 125.503906 C 167.703125 115.714844 175.78125 107.945312 185.5625 107.8125 C 191.132812 107.746094 196.535156 110.242188 200.117188 114.550781 L 197.542969 115.894531 C 196.808594 116.269531 196.414062 117.074219 196.554688 117.878906 C 196.703125 118.695312 197.347656 119.316406 198.160156 119.417969 L 209.703125 120.878906 C 210.28125 120.945312 210.851562 120.757812 211.261719 120.347656 C 211.675781 119.933594 211.859375 119.363281 211.796875 118.78125 L 210.339844 107.210938 C 210.234375 106.394531 209.621094 105.738281 208.808594 105.601562 C 207.996094 105.460938 207.203125 105.863281 206.828125 106.605469 L 205.46875 109.277344 C 200.59375 103.675781 193.660156 100.457031 186.289062 100.320312 Z M 185.78125 102.1875 C 193.230469 102.1875 200.242188 105.558594 204.886719 111.503906 C 205.058594 111.71875 205.296875 111.84375 205.5625 111.863281 C 205.824219 111.875 206.09375 111.785156 206.277344 111.597656 L 206.390625 111.488281 C 206.464844 111.414062 206.523438 111.328125 206.566406 111.242188 L 208.492188 107.445312 L 209.9375 119.015625 L 198.394531 117.554688 L 201.976562 115.707031 C 202.222656 115.574219 202.394531 115.347656 202.460938 115.089844 C 202.515625 114.8125 202.460938 114.53125 202.304688 114.316406 C 198.382812 108.984375 192.136719 105.890625 185.53125 105.9375 C 174.78125 106.085938 165.894531 114.636719 165.308594 125.402344 C 165 131.136719 166.980469 136.582031 170.898438 140.738281 C 174.816406 144.898438 180.109375 147.1875 185.8125 147.1875 C 187.78125 147.1875 189.714844 146.917969 191.574219 146.351562 C 191.777344 147.621094 192.175781 148.816406 192.746094 149.925781 C 190.527344 150.589844 188.191406 150.9375 185.8125 150.9375 C 178.914062 150.9375 172.328125 147.976562 167.726562 142.808594 C 163.054688 137.566406 160.917969 130.808594 161.707031 123.761719 C 162.957031 112.46875 172.039062 103.453125 183.292969 102.320312 C 184.125 102.234375 184.964844 102.1875 185.78125 102.1875 Z M 185.8125 110.625 C 185.296875 110.625 184.878906 111.042969 184.878906 111.5625 L 184.878906 113.4375 C 184.878906 113.957031 185.296875 114.375 185.8125 114.375 C 186.328125 114.375 186.746094 113.957031 186.746094 113.4375 L 186.746094 111.5625 C 186.746094 111.042969 186.328125 110.625 185.8125 110.625 Z M 180.234375 111.71875 C 180.113281 111.714844 179.988281 111.738281 179.871094 111.785156 C 179.390625 111.980469 179.160156 112.527344 179.351562 113.003906 L 180.050781 114.746094 C 180.199219 115.109375 180.546875 115.332031 180.917969 115.332031 C 181.03125 115.332031 181.152344 115.308594 181.265625 115.265625 C 181.746094 115.070312 181.976562 114.519531 181.785156 114.042969 L 181.082031 112.304688 C 180.9375 111.945312 180.597656 111.722656 180.234375 111.71875 Z M 191.902344 111.917969 C 191.539062 111.910156 191.191406 112.121094 191.03125 112.476562 L 190.273438 114.191406 C 190.0625 114.664062 190.273438 115.21875 190.746094 115.429688 C 190.867188 115.484375 191 115.511719 191.125 115.511719 C 191.484375 115.511719 191.824219 115.300781 191.980469 114.949219 L 192.738281 113.238281 C 192.949219 112.765625 192.734375 112.214844 192.265625 112 C 192.148438 111.949219 192.023438 111.921875 191.902344 111.917969 Z M 175.453125 114.835938 C 175.214844 114.832031 174.972656 114.917969 174.789062 115.097656 C 174.417969 115.457031 174.410156 116.050781 174.765625 116.425781 L 176.0625 117.773438 C 176.246094 117.960938 176.492188 118.058594 176.734375 118.058594 C 176.96875 118.058594 177.203125 117.972656 177.382812 117.800781 C 177.753906 117.4375 177.765625 116.84375 177.410156 116.46875 L 176.109375 115.121094 C 175.933594 114.933594 175.695312 114.839844 175.453125 114.835938 Z M 172.1875 119.523438 C 171.824219 119.515625 171.476562 119.726562 171.316406 120.085938 C 171.109375 120.554688 171.320312 121.109375 171.792969 121.316406 L 173.496094 122.078125 C 173.621094 122.136719 173.75 122.164062 173.875 122.164062 C 174.234375 122.164062 174.574219 121.957031 174.730469 121.609375 C 174.9375 121.132812 174.726562 120.578125 174.253906 120.367188 L 172.550781 119.605469 C 172.433594 119.554688 172.308594 119.527344 172.1875 119.523438 Z M 170.878906 125.625 C 170.367188 125.625 169.945312 126.042969 169.945312 126.5625 C 169.945312 127.082031 170.367188 127.5 170.878906 127.5 L 172.746094 127.5 C 173.261719 127.5 173.679688 127.082031 173.679688 126.5625 C 173.679688 126.042969 173.261719 125.625 172.746094 125.625 Z M 173.710938 130.542969 C 173.59375 130.539062 173.46875 130.5625 173.347656 130.609375 L 171.621094 131.3125 C 171.136719 131.507812 170.910156 132.050781 171.101562 132.535156 C 171.246094 132.898438 171.597656 133.121094 171.96875 133.121094 C 172.085938 133.121094 172.203125 133.097656 172.320312 133.050781 L 174.046875 132.347656 C 174.523438 132.15625 174.753906 131.609375 174.566406 131.128906 C 174.417969 130.765625 174.078125 130.546875 173.710938 130.542969 Z M 203.542969 134.0625 C 209.210938 134.0625 213.8125 138.683594 213.8125 144.375 C 213.8125 150.066406 209.210938 154.6875 203.542969 154.6875 C 200.34375 154.6875 197.488281 153.214844 195.601562 150.90625 C 195.199219 150.414062 194.835938 149.878906 194.535156 149.316406 C 193.941406 148.226562 193.53125 147.019531 193.371094 145.734375 C 193.308594 145.28125 193.277344 144.832031 193.277344 144.375 C 193.277344 144.160156 193.285156 143.941406 193.296875 143.730469 C 193.632812 138.339844 198.09375 134.0625 203.542969 134.0625 Z M 176.433594 134.742188 C 176.191406 134.738281 175.949219 134.824219 175.765625 135.003906 L 174.421875 136.308594 C 174.050781 136.667969 174.039062 137.257812 174.398438 137.632812 C 174.582031 137.824219 174.824219 137.917969 175.070312 137.917969 C 175.300781 137.917969 175.539062 137.832031 175.722656 137.65625 L 177.0625 136.355469 C 177.429688 135.996094 177.441406 135.402344 177.085938 135.027344 C 176.90625 134.84375 176.667969 134.746094 176.433594 134.742188 Z M 180.515625 137.613281 C 180.152344 137.605469 179.804688 137.816406 179.644531 138.175781 L 178.886719 139.886719 C 178.675781 140.359375 178.890625 140.910156 179.359375 141.121094 C 179.484375 141.179688 179.609375 141.203125 179.738281 141.203125 C 180.097656 141.203125 180.4375 140.996094 180.589844 140.648438 L 181.351562 138.933594 C 181.5625 138.460938 181.351562 137.90625 180.878906 137.695312 C 180.757812 137.644531 180.636719 137.617188 180.515625 137.613281 Z M 185.8125 138.75 C 185.296875 138.75 184.878906 139.167969 184.878906 139.6875 L 184.878906 141.5625 C 184.878906 142.082031 185.296875 142.5 185.8125 142.5 C 186.328125 142.5 186.746094 142.082031 186.746094 141.5625 L 186.746094 139.6875 C 186.746094 139.167969 186.328125 138.75 185.8125 138.75 Z M 209.144531 139.6875 C 208.90625 139.6875 208.667969 139.777344 208.484375 139.960938 L 201.679688 146.800781 L 198.605469 143.710938 C 198.242188 143.347656 197.648438 143.347656 197.285156 143.710938 C 196.921875 144.078125 196.921875 144.671875 197.285156 145.039062 L 201.019531 148.789062 C 201.199219 148.972656 201.4375 149.0625 201.679688 149.0625 C 201.917969 149.0625 202.15625 148.972656 202.339844 148.789062 L 209.804688 141.289062 C 210.167969 140.921875 210.167969 140.328125 209.804688 139.960938 C 209.621094 139.777344 209.382812 139.6875 209.144531 139.6875 Z M 209.144531 139.6875 " fill-opacity="1" fill-rule="nonzero"/></g><g fill="#000000" fill-opacity="1"><g transform="translate(53.274424, 197.821191)"><g><path d="M 7.453125 -9 C 7.453125 -8.226562 7.679688 -7.488281 8.140625 -6.78125 C 8.609375 -6.070312 9.226562 -5.5 10 -5.0625 C 10.769531 -4.625 11.59375 -4.40625 12.46875 -4.40625 C 13.425781 -4.40625 14.300781 -4.625 15.09375 -5.0625 C 15.882812 -5.5 16.503906 -6.070312 16.953125 -6.78125 C 17.410156 -7.488281 17.640625 -8.226562 17.640625 -9 L 17.640625 -24.359375 L 22.375 -24.359375 L 22.375 -8.90625 C 22.375 -7.15625 21.929688 -5.578125 21.046875 -4.171875 C 20.160156 -2.773438 18.960938 -1.6875 17.453125 -0.90625 C 15.941406 -0.125 14.28125 0.265625 12.46875 0.265625 C 10.664062 0.265625 9.015625 -0.125 7.515625 -0.90625 C 6.015625 -1.6875 4.828125 -2.773438 3.953125 -4.171875 C 3.078125 -5.578125 2.640625 -7.15625 2.640625 -8.90625 L 2.640625 -24.359375 L 7.453125 -24.359375 Z M 7.453125 -9 "/></g></g></g><g fill="#000000" fill-opacity="1"><g transform="translate(104.768178, 197.821191)"><g><path d="M 10.53125 -24.359375 C 13.5 -24.359375 15.800781 -23.625 17.4375 -22.15625 C 19.070312 -20.6875 19.890625 -18.6875 19.890625 -16.15625 C 19.890625 -14.695312 19.609375 -13.332031 19.046875 -12.0625 C 18.484375 -10.789062 17.566406 -9.742188 16.296875 -8.921875 C 15.023438 -8.109375 13.390625 -7.703125 11.390625 -7.703125 L 7.9375 -7.703125 L 7.9375 0 L 3.140625 0 L 3.140625 -24.359375 Z M 11.34375 -12.375 C 12.25 -12.375 12.976562 -12.578125 13.53125 -12.984375 C 14.082031 -13.390625 14.476562 -13.867188 14.71875 -14.421875 C 14.96875 -14.972656 15.09375 -15.503906 15.09375 -16.015625 C 15.09375 -16.878906 14.835938 -17.710938 14.328125 -18.515625 C 13.816406 -19.316406 12.835938 -19.71875 11.390625 -19.71875 L 7.9375 -19.71875 L 7.9375 -12.375 Z M 11.34375 -12.375 "/></g></g></g><g fill="#000000" fill-opacity="1"><g transform="translate(152.290683, 197.821191)"><g><path d="M 3.140625 -24.359375 L 10.421875 -24.359375 C 13.535156 -24.359375 16.09375 -23.753906 18.09375 -22.546875 C 20.101562 -21.347656 21.566406 -19.796875 22.484375 -17.890625 C 23.398438 -15.984375 23.859375 -13.9375 23.859375 -11.75 C 23.859375 -9.40625 23.304688 -7.335938 22.203125 -5.546875 C 21.097656 -3.765625 19.613281 -2.394531 17.75 -1.4375 C 15.882812 -0.476562 13.835938 0 11.609375 0 L 3.140625 0 Z M 10.78125 -4.640625 C 13.28125 -4.640625 15.253906 -5.273438 16.703125 -6.546875 C 18.160156 -7.828125 18.890625 -9.671875 18.890625 -12.078125 C 18.890625 -14.015625 18.488281 -15.554688 17.6875 -16.703125 C 16.882812 -17.859375 15.945312 -18.65625 14.875 -19.09375 C 13.800781 -19.53125 12.789062 -19.75 11.84375 -19.75 L 7.9375 -19.75 L 7.9375 -4.640625 Z M 10.78125 -4.640625 "/></g></g></g><g fill="#000000" fill-opacity="1"><g transform="translate(204.280829, 197.821191)"><g><path d="M 15.1875 -4.765625 L 7.109375 -4.765625 L 5.125 0 L 0.390625 0 L 11.390625 -25.3125 L 11.65625 -25.3125 L 22.640625 0 L 17.078125 0 Z M 13.59375 -8.796875 L 11.25 -14.734375 L 8.796875 -8.796875 Z M 13.59375 -8.796875 "/></g></g></g><g fill="#000000" fill-opacity="1"><g transform="translate(253.788958, 197.821191)"><g><path d="M 17.90625 -24.359375 L 17.90625 -19.71875 L 11.984375 -19.71875 L 11.984375 0 L 7.1875 0 L 7.1875 -19.71875 L 1.484375 -19.71875 L 1.484375 -24.359375 Z M 17.90625 -24.359375 "/></g></g></g><g fill="#000000" fill-opacity="1"><g transform="translate(299.656798, 197.821191)"><g><path d="M 19.75 -24.359375 L 19.75 -19.71875 L 7.9375 -19.71875 L 7.9375 -14.53125 L 18.40625 -14.53125 L 18.40625 -9.890625 L 7.9375 -9.890625 L 7.9375 -4.640625 L 20.21875 -4.640625 L 20.21875 0 L 3.140625 0 L 3.140625 -24.359375 Z M 19.75 -24.359375 "/></g></g></g><g fill="#000000" fill-opacity="1"><g transform="translate(164.496542, 226.574878)"><g><path d="M 7.515625 -8.03125 L 4.5 -2.609375 L 4.5 0 L 3.21875 0 L 3.21875 -2.609375 L 0.25 -8.03125 L 1.828125 -8.03125 L 3.90625 -4.078125 L 5.9375 -8.03125 Z M 7.515625 -8.03125 "/></g></g></g><g fill="#000000" fill-opacity="1"><g transform="translate(176.675072, 226.574878)"><g><path d="M 0.609375 -4 C 0.609375 -4.738281 0.789062 -5.421875 1.15625 -6.046875 C 1.519531 -6.679688 2.015625 -7.1875 2.640625 -7.5625 C 3.273438 -7.9375 3.960938 -8.125 4.703125 -8.125 C 5.441406 -8.125 6.125 -7.9375 6.75 -7.5625 C 7.382812 -7.1875 7.890625 -6.679688 8.265625 -6.046875 C 8.640625 -5.410156 8.828125 -4.726562 8.828125 -4 C 8.828125 -3.257812 8.640625 -2.578125 8.265625 -1.953125 C 7.890625 -1.328125 7.382812 -0.828125 6.75 -0.453125 C 6.125 -0.0859375 5.441406 0.09375 4.703125 0.09375 C 3.960938 0.09375 3.273438 -0.0859375 2.640625 -0.453125 C 2.015625 -0.816406 1.519531 -1.3125 1.15625 -1.9375 C 0.789062 -2.5625 0.609375 -3.25 0.609375 -4 Z M 1.9375 -4 C 1.9375 -3.476562 2.0625 -3 2.3125 -2.5625 C 2.5625 -2.132812 2.898438 -1.789062 3.328125 -1.53125 C 3.753906 -1.269531 4.226562 -1.140625 4.75 -1.140625 C 5.25 -1.140625 5.707031 -1.265625 6.125 -1.515625 C 6.550781 -1.773438 6.882812 -2.125 7.125 -2.5625 C 7.375 -3 7.5 -3.476562 7.5 -4 C 7.5 -4.519531 7.375 -5 7.125 -5.4375 C 6.875 -5.882812 6.535156 -6.238281 6.109375 -6.5 C 5.679688 -6.757812 5.210938 -6.890625 4.703125 -6.890625 C 4.191406 -6.890625 3.722656 -6.757812 3.296875 -6.5 C 2.878906 -6.238281 2.546875 -5.882812 2.296875 -5.4375 C 2.054688 -5 1.9375 -4.519531 1.9375 -4 Z M 1.9375 -4 "/></g></g></g><g fill="#000000" fill-opacity="1"><g transform="translate(190.519328, 226.574878)"><g><path d="M 2.265625 -2.890625 C 2.265625 -2.578125 2.34375 -2.285156 2.5 -2.015625 C 2.664062 -1.753906 2.882812 -1.546875 3.15625 -1.390625 C 3.4375 -1.234375 3.742188 -1.15625 4.078125 -1.15625 C 4.421875 -1.15625 4.734375 -1.234375 5.015625 -1.390625 C 5.304688 -1.546875 5.53125 -1.753906 5.6875 -2.015625 C 5.851562 -2.285156 5.9375 -2.578125 5.9375 -2.890625 L 5.9375 -8.03125 L 7.203125 -8.03125 L 7.203125 -2.859375 C 7.203125 -2.285156 7.0625 -1.773438 6.78125 -1.328125 C 6.507812 -0.878906 6.132812 -0.53125 5.65625 -0.28125 C 5.175781 -0.03125 4.648438 0.09375 4.078125 0.09375 C 3.503906 0.09375 2.976562 -0.03125 2.5 -0.28125 C 2.03125 -0.53125 1.660156 -0.878906 1.390625 -1.328125 C 1.117188 -1.773438 0.984375 -2.285156 0.984375 -2.859375 L 0.984375 -8.03125 L 2.265625 -8.03125 Z M 2.265625 -2.890625 "/></g></g></g><g fill="#000000" fill-opacity="1"><g transform="translate(203.106014, 226.574878)"><g><path d="M 5.5 0 L 3.6875 -2.796875 L 2.390625 -2.796875 L 2.390625 0 L 1.109375 0 L 1.109375 -8.03125 L 3.359375 -8.03125 C 4.253906 -8.03125 4.972656 -7.800781 5.515625 -7.34375 C 6.054688 -6.882812 6.328125 -6.253906 6.328125 -5.453125 C 6.328125 -4.953125 6.222656 -4.488281 6.015625 -4.0625 C 5.804688 -3.644531 5.476562 -3.320312 5.03125 -3.09375 L 6.984375 0 Z M 2.390625 -4.03125 L 3.546875 -4.03125 C 4.054688 -4.03125 4.425781 -4.171875 4.65625 -4.453125 C 4.894531 -4.734375 5.015625 -5.050781 5.015625 -5.40625 C 5.015625 -5.613281 4.96875 -5.820312 4.875 -6.03125 C 4.789062 -6.238281 4.640625 -6.414062 4.421875 -6.5625 C 4.210938 -6.71875 3.929688 -6.796875 3.578125 -6.796875 L 2.390625 -6.796875 Z M 2.390625 -4.03125 "/></g></g></g><g fill="#000000" fill-opacity="1"><g transform="translate(214.9127, 226.574878)"><g/></g></g><g fill="#000000" fill-opacity="1"><g transform="translate(126.662282, 249.809166)"><g><path d="M 3.46875 -1.25 L 1.53125 -1.25 L 1.015625 0 L 0.171875 0 L 2.53125 -5.546875 L 2.59375 -5.546875 L 4.953125 0 L 3.96875 0 Z M 3.1875 -1.984375 L 2.515625 -3.671875 L 1.828125 -1.984375 Z M 3.1875 -1.984375 "/></g></g></g><g fill="#000000" fill-opacity="1"><g transform="translate(134.713407, 249.809166)"><g><path d="M 6.125 -5.53125 L 6.125 0 L 5.265625 0 L 5.265625 -3.078125 L 3.40625 -0.4375 L 3.390625 -0.4375 L 1.5625 -2.953125 L 1.5625 0 L 0.734375 0 L 0.734375 -5.53125 L 3.40625 -1.765625 L 6.109375 -5.53125 Z M 6.125 -5.53125 "/></g></g></g><g fill="#000000" fill-opacity="1"><g transform="translate(144.493438, 249.809166)"><g><path d="M 3.46875 -1.25 L 1.53125 -1.25 L 1.015625 0 L 0.171875 0 L 2.53125 -5.546875 L 2.59375 -5.546875 L 4.953125 0 L 3.96875 0 Z M 3.1875 -1.984375 L 2.515625 -3.671875 L 1.828125 -1.984375 Z M 3.1875 -1.984375 "/></g></g></g><g fill="#000000" fill-opacity="1"><g transform="translate(152.544563, 249.809166)"><g><path d="M 4.859375 -0.828125 L 4.859375 0 L 0.359375 0 C 0.410156 -0.0820312 0.878906 -0.800781 1.765625 -2.15625 C 2.515625 -3.3125 3.03125 -4.097656 3.3125 -4.515625 L 1.328125 -4.515625 C 1.171875 -4.515625 1.023438 -4.5625 0.890625 -4.65625 C 0.753906 -4.75 0.6875 -4.863281 0.6875 -5 L 0.6875 -5.609375 L 1.484375 -5.609375 L 1.484375 -5.5 C 1.484375 -5.414062 1.492188 -5.363281 1.515625 -5.34375 C 1.546875 -5.332031 1.609375 -5.328125 1.703125 -5.328125 L 4.8125 -5.328125 L 1.8125 -0.828125 Z M 4.859375 -0.828125 "/></g></g></g><g fill="#000000" fill-opacity="1"><g transform="translate(160.720224, 249.809166)"><g><path d="M 1.59375 -5.328125 L 1.59375 0 L 0.734375 0 L 0.734375 -5.328125 Z M 1.59375 -5.328125 "/></g></g></g><g fill="#000000" fill-opacity="1"><g transform="translate(165.972866, 249.809166)"><g><path d="M 5.4375 -5.328125 L 5.4375 0.1875 L 5.421875 0.1875 L 1.578125 -3.546875 L 1.59375 0 L 0.734375 0 L 0.734375 -5.515625 L 0.78125 -5.515625 L 4.609375 -1.75 L 4.59375 -5.328125 Z M 5.4375 -5.328125 "/></g></g></g><g fill="#000000" fill-opacity="1"><g transform="translate(175.086242, 249.809166)"><g><path d="M 4.96875 -0.484375 C 4.820312 -0.347656 4.566406 -0.222656 4.203125 -0.109375 C 3.835938 0.00390625 3.503906 0.0625 3.203125 0.0625 C 2.640625 0.0625 2.144531 -0.046875 1.71875 -0.265625 C 1.300781 -0.492188 0.976562 -0.804688 0.75 -1.203125 C 0.519531 -1.597656 0.40625 -2.046875 0.40625 -2.546875 C 0.40625 -3.140625 0.523438 -3.648438 0.765625 -4.078125 C 1.015625 -4.515625 1.347656 -4.84375 1.765625 -5.0625 C 2.179688 -5.28125 2.640625 -5.390625 3.140625 -5.390625 C 3.453125 -5.390625 3.742188 -5.351562 4.015625 -5.28125 C 4.296875 -5.21875 4.539062 -5.125 4.75 -5 L 4.46875 -4.21875 C 4.320312 -4.300781 4.128906 -4.375 3.890625 -4.4375 C 3.648438 -4.5 3.4375 -4.53125 3.25 -4.53125 C 2.644531 -4.53125 2.164062 -4.363281 1.8125 -4.03125 C 1.457031 -3.695312 1.28125 -3.222656 1.28125 -2.609375 C 1.28125 -2.253906 1.359375 -1.9375 1.515625 -1.65625 C 1.679688 -1.382812 1.910156 -1.171875 2.203125 -1.015625 C 2.503906 -0.867188 2.847656 -0.796875 3.234375 -0.796875 C 3.398438 -0.796875 3.5625 -0.8125 3.71875 -0.84375 C 3.875 -0.875 4.007812 -0.914062 4.125 -0.96875 L 4.125 -1.859375 L 3.109375 -1.859375 L 3.109375 -2.6875 L 4.96875 -2.6875 Z M 4.96875 -0.484375 "/></g></g></g><g fill="#000000" fill-opacity="1"><g transform="translate(183.554945, 249.809166)"><g/></g></g><g fill="#000000" fill-opacity="1"><g transform="translate(188.829562, 249.809166)"><g><path d="M 4.6875 -0.421875 C 4.53125 -0.304688 4.3125 -0.195312 4.03125 -0.09375 C 3.757812 0.0078125 3.460938 0.0625 3.140625 0.0625 C 2.585938 0.0625 2.101562 -0.0546875 1.6875 -0.296875 C 1.269531 -0.546875 0.953125 -0.875 0.734375 -1.28125 C 0.515625 -1.6875 0.40625 -2.132812 0.40625 -2.625 C 0.40625 -3.15625 0.515625 -3.628906 0.734375 -4.046875 C 0.953125 -4.472656 1.257812 -4.800781 1.65625 -5.03125 C 2.0625 -5.269531 2.519531 -5.390625 3.03125 -5.390625 C 3.34375 -5.390625 3.628906 -5.347656 3.890625 -5.265625 C 4.160156 -5.179688 4.398438 -5.078125 4.609375 -4.953125 L 4.265625 -4.15625 C 3.867188 -4.4375 3.46875 -4.578125 3.0625 -4.578125 C 2.75 -4.578125 2.453125 -4.488281 2.171875 -4.3125 C 1.898438 -4.144531 1.6875 -3.914062 1.53125 -3.625 C 1.375 -3.332031 1.296875 -3.015625 1.296875 -2.671875 C 1.296875 -2.304688 1.367188 -1.976562 1.515625 -1.6875 C 1.660156 -1.394531 1.867188 -1.164062 2.140625 -1 C 2.421875 -0.84375 2.742188 -0.765625 3.109375 -0.765625 C 3.367188 -0.765625 3.601562 -0.800781 3.8125 -0.875 C 4.019531 -0.957031 4.191406 -1.0625 4.328125 -1.1875 Z M 4.6875 -0.421875 "/></g></g></g><g fill="#000000" fill-opacity="1"><g transform="translate(196.851383, 249.809166)"><g><path d="M 3.65625 0 L 2.453125 -1.859375 L 1.59375 -1.859375 L 1.59375 0 L 0.734375 0 L 0.734375 -5.328125 L 2.234375 -5.328125 C 2.828125 -5.328125 3.300781 -5.175781 3.65625 -4.875 C 4.019531 -4.570312 4.203125 -4.15625 4.203125 -3.625 C 4.203125 -3.289062 4.128906 -2.984375 3.984375 -2.703125 C 3.847656 -2.421875 3.632812 -2.207031 3.34375 -2.0625 L 4.640625 0 Z M 1.59375 -2.671875 L 2.359375 -2.671875 C 2.691406 -2.671875 2.9375 -2.765625 3.09375 -2.953125 C 3.25 -3.140625 3.328125 -3.351562 3.328125 -3.59375 C 3.328125 -3.726562 3.296875 -3.863281 3.234375 -4 C 3.179688 -4.144531 3.082031 -4.265625 2.9375 -4.359375 C 2.789062 -4.460938 2.601562 -4.515625 2.375 -4.515625 L 1.59375 -4.515625 Z M 1.59375 -2.671875 "/></g></g></g><g fill="#000000" fill-opacity="1"><g transform="translate(204.690057, 249.809166)"><g><path d="M 4.265625 -5.328125 L 4.265625 -4.515625 L 1.59375 -4.515625 L 1.59375 -3.09375 L 3.984375 -3.09375 L 3.984375 -2.265625 L 1.59375 -2.265625 L 1.59375 -0.828125 L 4.375 -0.828125 L 4.375 0 L 0.734375 0 L 0.734375 -5.328125 Z M 4.265625 -5.328125 "/></g></g></g><g fill="#000000" fill-opacity="1"><g transform="translate(212.440823, 249.809166)"><g><path d="M 3.46875 -1.25 L 1.53125 -1.25 L 1.015625 0 L 0.171875 0 L 2.53125 -5.546875 L 2.59375 -5.546875 L 4.953125 0 L 3.96875 0 Z M 3.1875 -1.984375 L 2.515625 -3.671875 L 1.828125 -1.984375 Z M 3.1875 -1.984375 "/></g></g></g><g fill="#000000" fill-opacity="1"><g transform="translate(220.49195, 249.809166)"><g><path d="M 3.921875 -5.328125 L 3.921875 -4.515625 L 2.546875 -4.515625 L 2.546875 0 L 1.6875 0 L 1.6875 -4.515625 L 0.359375 -4.515625 L 0.359375 -5.328125 Z M 3.921875 -5.328125 "/></g></g></g><g fill="#000000" fill-opacity="1"><g transform="translate(227.693273, 249.809166)"><g><path d="M 1.59375 -5.328125 L 1.59375 0 L 0.734375 0 L 0.734375 -5.328125 Z M 1.59375 -5.328125 "/></g></g></g><g fill="#000000" fill-opacity="1"><g transform="translate(232.945915, 249.809166)"><g><path d="M 0.40625 -2.65625 C 0.40625 -3.144531 0.523438 -3.597656 0.765625 -4.015625 C 1.015625 -4.429688 1.347656 -4.765625 1.765625 -5.015625 C 2.179688 -5.265625 2.632812 -5.390625 3.125 -5.390625 C 3.613281 -5.390625 4.066406 -5.265625 4.484375 -5.015625 C 4.898438 -4.765625 5.234375 -4.429688 5.484375 -4.015625 C 5.734375 -3.597656 5.859375 -3.144531 5.859375 -2.65625 C 5.859375 -2.164062 5.734375 -1.710938 5.484375 -1.296875 C 5.242188 -0.878906 4.910156 -0.546875 4.484375 -0.296875 C 4.066406 -0.0546875 3.613281 0.0625 3.125 0.0625 C 2.632812 0.0625 2.179688 -0.0546875 1.765625 -0.296875 C 1.347656 -0.546875 1.015625 -0.875 0.765625 -1.28125 C 0.523438 -1.695312 0.40625 -2.15625 0.40625 -2.65625 Z M 1.28125 -2.65625 C 1.28125 -2.3125 1.363281 -1.992188 1.53125 -1.703125 C 1.695312 -1.421875 1.921875 -1.191406 2.203125 -1.015625 C 2.492188 -0.847656 2.8125 -0.765625 3.15625 -0.765625 C 3.488281 -0.765625 3.789062 -0.847656 4.0625 -1.015625 C 4.34375 -1.179688 4.566406 -1.410156 4.734375 -1.703125 C 4.898438 -1.992188 4.984375 -2.3125 4.984375 -2.65625 C 4.984375 -3.007812 4.898438 -3.332031 4.734375 -3.625 C 4.566406 -3.914062 4.34375 -4.144531 4.0625 -4.3125 C 3.78125 -4.488281 3.46875 -4.578125 3.125 -4.578125 C 2.78125 -4.578125 2.46875 -4.488281 2.1875 -4.3125 C 1.90625 -4.144531 1.679688 -3.914062 1.515625 -3.625 C 1.359375 -3.332031 1.28125 -3.007812 1.28125 -2.65625 Z M 1.28125 -2.65625 "/></g></g></g><g fill="#000000" fill-opacity="1"><g transform="translate(242.139878, 249.809166)"><g><path d="M 5.4375 -5.328125 L 5.4375 0.1875 L 5.421875 0.1875 L 1.578125 -3.546875 L 1.59375 0 L 0.734375 0 L 0.734375 -5.515625 L 0.78125 -5.515625 L 4.609375 -1.75 L 4.59375 -5.328125 Z M 5.4375 -5.328125 "/></g></g></g></svg>