<svg xmlns="http://www.w3.org/2000/svg" xmlns:xlink="http://www.w3.org/1999/xlink" width="500" zoomAndPan="magnify" viewBox="0 0 375 374.999991" height="500" preserveAspectRatio="xMidYMid meet" version="1.0"><defs><g/><clipPath id="a262cf3666"><path d="M 56.25 113 L 313 113 L 313 370 L 56.25 370 Z M 56.25 113 " clip-rule="nonzero"/></clipPath></defs><g clip-path="url(#a262cf3666)"><path fill="#000000" d="M 280.503906 166.304688 C 278.652344 164.734375 276.230469 164.363281 273.988281 165.3125 L 261.042969 170.804688 C 252.785156 155.636719 241.066406 142.707031 227.003906 133.003906 C 207.746094 119.726562 184.152344 112.480469 159.085938 113.84375 C 139.054688 114.925781 120.554688 121.351562 104.90625 131.664062 C 95.046875 138.160156 86.3125 146.242188 79.035156 155.542969 C 75.609375 159.914062 76.324219 166.253906 80.640625 169.753906 L 89.09375 176.617188 C 91.292969 178.40625 93.835938 179.148438 96.660156 178.835938 C 99.480469 178.519531 101.792969 177.230469 103.546875 175.003906 C 108.757812 168.382812 115.046875 162.585938 122.179688 157.882812 C 133.304688 150.554688 146.484375 145.984375 160.785156 145.207031 C 178.742188 144.234375 195.574219 149.375 209.234375 158.789062 C 218.445312 165.148438 226.246094 173.433594 232.019531 183.097656 L 218.828125 188.695312 C 216.644531 189.613281 215.246094 191.519531 215.019531 193.882812 C 214.796875 196.234375 215.808594 198.371094 217.777344 199.691406 L 260.375 228.265625 C 262.128906 229.449219 264.179688 229.671875 266.148438 228.902344 C 268.121094 228.136719 269.480469 226.585938 269.980469 224.527344 L 282.546875 172.574219 C 283.125 170.207031 282.363281 167.882812 280.503906 166.304688 Z M 260.476562 242.613281 C 225.757812 236.070312 192.308594 258.917969 185.769531 293.636719 C 179.230469 328.355469 202.074219 361.804688 236.792969 368.34375 C 271.511719 374.882812 304.960938 352.039062 311.5 317.320312 C 318.039062 282.601562 295.195312 249.152344 260.476562 242.613281 Z M 289.15625 289.027344 L 244.636719 333.523438 L 240.089844 338.074219 C 238.65625 339.503906 236.339844 339.515625 234.890625 338.109375 L 230.277344 333.628906 L 207.429688 311.445312 C 205.808594 309.871094 205.769531 307.269531 207.347656 305.644531 L 215.878906 296.851562 C 217.457031 295.230469 220.058594 295.195312 221.679688 296.769531 L 237.296875 311.933594 L 274.691406 274.566406 C 276.285156 272.972656 278.890625 272.972656 280.488281 274.566406 L 289.15625 283.230469 C 290.75 284.824219 290.75 287.433594 289.15625 289.027344 Z M 167.792969 300.933594 C 154.828125 301.429688 142.285156 298.675781 131.128906 293.285156 C 121.050781 288.417969 112.074219 281.417969 104.890625 272.75 L 117.074219 265.203125 C 119.085938 263.957031 120.179688 261.859375 120.039062 259.492188 C 119.898438 257.128906 118.574219 255.175781 116.429688 254.171875 L 69.957031 232.457031 C 68.042969 231.554688 65.992188 231.648438 64.15625 232.707031 C 62.324219 233.773438 61.21875 235.503906 61.039062 237.617188 L 56.566406 290.882812 C 56.363281 293.308594 57.46875 295.496094 59.546875 296.769531 C 61.625 298.035156 64.066406 298.035156 66.136719 296.75 L 78.089844 289.339844 C 88.574219 303.058594 102.132812 314.046875 117.515625 321.480469 C 134.105469 329.503906 152.796875 333.328125 171.996094 332.082031 C 169.589844 325.078125 168.070312 317.636719 167.695312 309.871094 C 167.554688 306.855469 167.605469 303.878906 167.792969 300.933594 Z M 167.792969 300.933594 " fill-opacity="1" fill-rule="nonzero"/></g><g fill="#000000" fill-opacity="1"><g transform="translate(54.498049, 92.399877)"><g><path d="M 18.1875 -43.46875 L 16.578125 -43.59375 C 15.203125 -43.59375 14.269531 -42.84375 13.78125 -41.34375 C 13.351562 -40.019531 13.140625 -37.726562 13.140625 -34.46875 L 13.140625 -17.828125 C 13.140625 -14.703125 13.363281 -12.457031 13.8125 -11.09375 C 14.257812 -9.738281 14.894531 -8.5 15.71875 -7.375 C 16.539062 -6.25 17.5 -5.296875 18.59375 -4.515625 C 20.820312 -2.941406 23.332031 -2.15625 26.125 -2.15625 C 28.925781 -2.15625 31.234375 -2.484375 33.046875 -3.140625 C 34.867188 -3.804688 36.316406 -4.800781 37.390625 -6.125 C 39.390625 -8.550781 40.390625 -12.503906 40.390625 -17.984375 L 40.328125 -34.46875 C 40.328125 -37.769531 40.171875 -39.929688 39.859375 -40.953125 C 39.546875 -41.972656 39.171875 -42.664062 38.734375 -43.03125 C 38.296875 -43.40625 37.726562 -43.59375 37.03125 -43.59375 L 35.375 -43.46875 C 34.5625 -43.46875 34.15625 -43.789062 34.15625 -44.4375 C 34.15625 -45.269531 34.773438 -45.6875 36.015625 -45.6875 C 37.253906 -45.6875 38.332031 -45.59375 39.25 -45.40625 C 40.164062 -45.226562 41.128906 -45.140625 42.140625 -45.140625 L 47.703125 -45.6875 C 49.140625 -45.6875 49.859375 -45.269531 49.859375 -44.4375 C 49.859375 -43.789062 49.457031 -43.46875 48.65625 -43.46875 L 47.03125 -43.59375 C 45.664062 -43.59375 44.753906 -42.84375 44.296875 -41.34375 C 43.921875 -40.039062 43.734375 -37.75 43.734375 -34.46875 L 43.671875 -16.265625 C 43.671875 -11.265625 42.070312 -7.164062 38.875 -3.96875 C 35.664062 -0.757812 31.390625 0.84375 26.046875 0.84375 C 20.222656 0.84375 15.628906 -0.757812 12.265625 -3.96875 C 8.828125 -7.300781 7.109375 -11.921875 7.109375 -17.828125 L 7.109375 -34.46875 C 7.109375 -37.726562 6.9375 -39.878906 6.59375 -40.921875 C 6.257812 -41.960938 5.867188 -42.664062 5.421875 -43.03125 C 4.972656 -43.40625 4.390625 -43.59375 3.671875 -43.59375 L 2.015625 -43.46875 C 1.210938 -43.46875 0.8125 -43.789062 0.8125 -44.4375 C 0.8125 -45.269531 1.429688 -45.6875 2.671875 -45.6875 C 3.921875 -45.6875 5.140625 -45.59375 6.328125 -45.40625 C 7.523438 -45.226562 8.78125 -45.140625 10.09375 -45.140625 C 11.40625 -45.140625 12.671875 -45.226562 13.890625 -45.40625 C 15.117188 -45.59375 16.34375 -45.6875 17.5625 -45.6875 C 18.789062 -45.6875 19.40625 -45.269531 19.40625 -44.4375 C 19.40625 -43.789062 19 -43.46875 18.1875 -43.46875 Z M 18.1875 -43.46875 "/></g></g></g><g fill="#000000" fill-opacity="1"><g transform="translate(105.228686, 92.399877)"><g><path d="M 4.484375 0.5 C 3.023438 0.5 2.296875 0.0859375 2.296875 -0.734375 C 2.296875 -1.390625 2.695312 -1.71875 3.5 -1.71875 L 5.15625 -1.546875 C 6.5 -1.546875 7.410156 -2.300781 7.890625 -3.8125 C 8.265625 -5.09375 8.453125 -7.382812 8.453125 -10.6875 L 8.453125 -34.46875 C 8.453125 -37.769531 8.296875 -39.929688 7.984375 -40.953125 C 7.671875 -41.972656 7.296875 -42.664062 6.859375 -43.03125 C 6.421875 -43.40625 5.851562 -43.59375 5.15625 -43.59375 L 3.5 -43.46875 C 2.695312 -43.46875 2.296875 -43.789062 2.296875 -44.4375 C 2.296875 -45.269531 2.910156 -45.6875 4.140625 -45.6875 C 5.378906 -45.6875 6.550781 -45.59375 7.65625 -45.40625 C 8.769531 -45.226562 10.003906 -45.140625 11.359375 -45.140625 C 12.722656 -45.140625 13.925781 -45.226562 14.96875 -45.40625 C 16.019531 -45.59375 16.9375 -45.6875 17.71875 -45.6875 C 22.53125 -45.6875 26.414062 -44.226562 29.375 -41.3125 C 32.070312 -38.632812 33.421875 -35.410156 33.421875 -31.640625 C 33.421875 -28.160156 32.070312 -25.128906 29.375 -22.546875 C 26.726562 -20.023438 23.695312 -18.765625 20.28125 -18.765625 C 17.65625 -18.765625 15.859375 -19.28125 14.890625 -20.3125 C 14.597656 -20.625 14.453125 -20.96875 14.453125 -21.34375 C 14.453125 -21.71875 14.554688 -22 14.765625 -22.1875 C 14.984375 -22.375 15.25 -22.46875 15.5625 -22.46875 C 15.875 -22.46875 16.3125 -22.253906 16.875 -21.828125 C 17.75 -21.203125 18.835938 -20.890625 20.140625 -20.890625 C 21.453125 -20.890625 22.5625 -21.140625 23.46875 -21.640625 C 24.375 -22.148438 25.144531 -22.863281 25.78125 -23.78125 C 27.082031 -25.695312 27.734375 -28.269531 27.734375 -31.5 C 27.734375 -35.132812 26.722656 -38.03125 24.703125 -40.1875 C 22.742188 -42.28125 20.203125 -43.328125 17.078125 -43.328125 C 15.929688 -43.328125 15.085938 -43.171875 14.546875 -42.859375 C 14.015625 -42.546875 13.75 -42.003906 13.75 -41.234375 L 13.75 -10.6875 C 13.75 -7.289062 13.898438 -5.101562 14.203125 -4.125 C 14.503906 -3.144531 14.875 -2.46875 15.3125 -2.09375 C 15.75 -1.726562 16.328125 -1.546875 17.046875 -1.546875 L 18.671875 -1.71875 C 19.472656 -1.71875 19.875 -1.390625 19.875 -0.734375 C 19.875 0.0859375 19.15625 0.5 17.71875 0.5 C 16.976562 0.5 16.191406 0.429688 15.359375 0.296875 C 12.671875 -0.128906 10.363281 -0.203125 8.4375 0.078125 C 6.519531 0.359375 5.203125 0.5 4.484375 0.5 Z M 4.484375 0.5 "/></g></g></g><g fill="#000000" fill-opacity="1"><g transform="translate(141.339737, 92.399877)"><g><path d="M 4.484375 0.5 C 3.023438 0.5 2.296875 0.0859375 2.296875 -0.734375 C 2.296875 -1.390625 2.695312 -1.71875 3.5 -1.71875 L 5.15625 -1.546875 C 6.5 -1.546875 7.410156 -2.300781 7.890625 -3.8125 C 8.265625 -5.09375 8.453125 -7.382812 8.453125 -10.6875 L 8.453125 -34.46875 C 8.453125 -37.769531 8.296875 -39.929688 7.984375 -40.953125 C 7.671875 -41.972656 7.296875 -42.664062 6.859375 -43.03125 C 6.421875 -43.40625 5.851562 -43.59375 5.15625 -43.59375 L 3.5 -43.46875 C 2.695312 -43.46875 2.296875 -43.789062 2.296875 -44.4375 C 2.296875 -45.269531 2.910156 -45.6875 4.140625 -45.6875 C 5.378906 -45.6875 6.457031 -45.59375 7.375 -45.40625 C 8.300781 -45.226562 9.210938 -45.140625 10.109375 -45.140625 C 12.484375 -45.140625 14.457031 -45.253906 16.03125 -45.484375 C 18.414062 -45.816406 21.148438 -45.984375 24.234375 -45.984375 C 27.328125 -45.984375 30.40625 -45.429688 33.46875 -44.328125 C 36.539062 -43.234375 39.175781 -41.675781 41.375 -39.65625 C 46.070312 -35.363281 48.421875 -29.722656 48.421875 -22.734375 C 48.421875 -16.109375 46.117188 -10.597656 41.515625 -6.203125 C 36.742188 -1.617188 30.5 0.671875 22.78125 0.671875 C 20.914062 0.671875 19.101562 0.59375 17.34375 0.4375 C 14.09375 0.144531 11.738281 0 10.28125 0 Z M 13.75 -15.53125 C 13.75 -11.53125 13.847656 -7.8125 14.046875 -4.375 C 17.035156 -2.832031 20.394531 -2.0625 24.125 -2.0625 C 26.84375 -2.0625 29.660156 -2.695312 32.578125 -3.96875 C 37.203125 -6 40.222656 -9.617188 41.640625 -14.828125 C 42.160156 -16.671875 42.421875 -19.054688 42.421875 -21.984375 C 42.421875 -24.910156 41.921875 -27.75 40.921875 -30.5 C 39.921875 -33.257812 38.519531 -35.582031 36.71875 -37.46875 C 33.0625 -41.351562 28.132812 -43.296875 21.9375 -43.296875 C 17.507812 -43.296875 14.96875 -42.710938 14.3125 -41.546875 C 13.976562 -40.910156 13.800781 -40.191406 13.78125 -39.390625 C 13.757812 -38.597656 13.75 -37.820312 13.75 -37.0625 Z M 13.75 -15.53125 "/></g></g></g><g fill="#000000" fill-opacity="1"><g transform="translate(193.114636, 92.399877)"><g><path d="M 7.515625 0 C 6.367188 0 5.296875 0.0820312 4.296875 0.25 C 3.296875 0.414062 2.21875 0.5 1.0625 0.5 C -0.09375 0.5 -0.671875 0.125 -0.671875 -0.625 C -0.671875 -1.375 -0.144531 -1.75 0.90625 -1.75 C 2.007812 -1.75 2.796875 -1.953125 3.265625 -2.359375 C 4.023438 -3.054688 4.773438 -4.191406 5.515625 -5.765625 C 6.265625 -7.335938 6.957031 -8.804688 7.59375 -10.171875 C 8.238281 -11.546875 8.972656 -13.144531 9.796875 -14.96875 C 10.628906 -16.800781 11.546875 -18.847656 12.546875 -21.109375 C 13.546875 -23.367188 14.597656 -25.765625 15.703125 -28.296875 C 18.578125 -34.972656 20.472656 -39.460938 21.390625 -41.765625 C 22.316406 -44.066406 22.828125 -45.335938 22.921875 -45.578125 C 23.023438 -45.828125 23.132812 -46.054688 23.25 -46.265625 C 23.539062 -46.734375 23.785156 -46.96875 23.984375 -46.96875 C 24.191406 -46.96875 24.363281 -46.9375 24.5 -46.875 C 24.632812 -46.820312 24.78125 -46.71875 24.9375 -46.5625 C 25.269531 -46.132812 25.601562 -45.5 25.9375 -44.65625 C 26.28125 -43.8125 26.738281 -42.671875 27.3125 -41.234375 C 27.882812 -39.796875 28.539062 -38.164062 29.28125 -36.34375 C 30.019531 -34.53125 30.804688 -32.578125 31.640625 -30.484375 C 32.472656 -28.398438 33.304688 -26.316406 34.140625 -24.234375 C 34.984375 -22.160156 35.800781 -20.144531 36.59375 -18.1875 C 37.394531 -16.238281 38.113281 -14.476562 38.75 -12.90625 C 40.675781 -8.207031 41.910156 -5.394531 42.453125 -4.46875 C 42.992188 -3.550781 43.441406 -2.914062 43.796875 -2.5625 C 44.359375 -2.019531 45.1875 -1.75 46.28125 -1.75 C 47.382812 -1.75 47.9375 -1.375 47.9375 -0.625 C 47.9375 0.125 47.234375 0.5 45.828125 0.5 C 45.210938 0.5 44.6875 0.472656 44.25 0.421875 C 43.8125 0.367188 43.367188 0.316406 42.921875 0.265625 C 41.617188 0.0859375 40.460938 0 39.453125 0 L 32.953125 0.5 C 31.492188 0.5 30.765625 0.0859375 30.765625 -0.734375 C 30.765625 -1.410156 31.164062 -1.75 31.96875 -1.75 L 34 -1.515625 C 34.851562 -1.515625 35.410156 -1.695312 35.671875 -2.0625 C 35.941406 -2.4375 36.078125 -2.90625 36.078125 -3.46875 C 36.078125 -4.519531 35.628906 -6.160156 34.734375 -8.390625 L 31.9375 -15.390625 L 13.234375 -15.390625 C 12.703125 -14.046875 12.203125 -12.8125 11.734375 -11.6875 C 11.273438 -10.5625 10.859375 -9.472656 10.484375 -8.421875 C 9.867188 -6.710938 9.5625 -5.367188 9.5625 -4.390625 C 9.5625 -3.421875 9.734375 -2.703125 10.078125 -2.234375 C 10.429688 -1.773438 11.09375 -1.546875 12.0625 -1.546875 L 14.078125 -1.71875 C 14.890625 -1.71875 15.296875 -1.390625 15.296875 -0.734375 C 15.296875 0.0859375 14.566406 0.5 13.109375 0.5 Z M 30.796875 -18.265625 L 22.78125 -38.34375 C 21.226562 -34.40625 18.453125 -27.710938 14.453125 -18.265625 Z M 30.796875 -18.265625 "/></g></g></g><g fill="#000000" fill-opacity="1"><g transform="translate(240.71251, 92.399877)"><g><path d="M 13.8125 0.5 C 12.351562 0.5 11.625 0.0859375 11.625 -0.734375 C 11.625 -1.390625 12.03125 -1.71875 12.84375 -1.71875 L 14.484375 -1.546875 C 15.835938 -1.546875 16.738281 -2.300781 17.1875 -3.8125 C 17.59375 -5.09375 17.796875 -7.382812 17.796875 -10.6875 L 17.796875 -42.1875 L 16.875 -42.1875 C 12.945312 -42.1875 9.816406 -41.78125 7.484375 -40.96875 C 5.859375 -40.382812 4.753906 -39.382812 4.171875 -37.96875 C 3.742188 -36.9375 3.296875 -36.421875 2.828125 -36.421875 C 2.179688 -36.421875 1.859375 -36.800781 1.859375 -37.5625 C 1.859375 -37.789062 1.90625 -38.050781 2 -38.34375 C 2.101562 -38.632812 2.222656 -38.984375 2.359375 -39.390625 C 2.710938 -40.460938 2.921875 -41.582031 2.984375 -42.75 C 3.054688 -43.914062 3.1875 -44.695312 3.375 -45.09375 C 3.570312 -45.488281 3.835938 -45.6875 4.171875 -45.6875 C 4.515625 -45.6875 4.816406 -45.65625 5.078125 -45.59375 C 5.347656 -45.539062 5.742188 -45.484375 6.265625 -45.421875 C 7.609375 -45.234375 9.304688 -45.140625 11.359375 -45.140625 L 32.71875 -45.140625 C 34.375 -45.140625 35.578125 -45.226562 36.328125 -45.40625 C 37.085938 -45.59375 37.632812 -45.6875 37.96875 -45.6875 C 38.707031 -45.6875 39.078125 -45.335938 39.078125 -44.640625 C 39.078125 -44.285156 39.007812 -43.859375 38.875 -43.359375 C 38.539062 -42.253906 38.320312 -41.300781 38.21875 -40.5 C 38.125 -39.707031 38.03125 -39.054688 37.9375 -38.546875 C 37.84375 -38.046875 37.742188 -37.648438 37.640625 -37.359375 C 37.453125 -36.867188 37.175781 -36.625 36.8125 -36.625 C 36.457031 -36.625 36.226562 -36.75 36.125 -37 C 36.03125 -37.257812 35.925781 -37.757812 35.8125 -38.5 C 35.695312 -39.25 35.503906 -39.859375 35.234375 -40.328125 C 34.972656 -40.796875 34.613281 -41.164062 34.15625 -41.4375 C 33.375 -41.9375 32.097656 -42.1875 30.328125 -42.1875 L 23.078125 -42.1875 L 23.078125 -10.6875 C 23.078125 -7.289062 23.226562 -5.101562 23.53125 -4.125 C 23.832031 -3.144531 24.203125 -2.46875 24.640625 -2.09375 C 25.078125 -1.726562 25.65625 -1.546875 26.375 -1.546875 L 28 -1.71875 C 28.800781 -1.71875 29.203125 -1.390625 29.203125 -0.734375 C 29.203125 0.0859375 28.484375 0.5 27.046875 0.5 C 26.304688 0.5 25.523438 0.429688 24.703125 0.296875 C 22.003906 -0.128906 19.691406 -0.203125 17.765625 0.078125 C 15.847656 0.359375 14.53125 0.5 13.8125 0.5 Z M 13.8125 0.5 "/></g></g></g><g fill="#000000" fill-opacity="1"><g transform="translate(281.64062, 92.399877)"><g><path d="M 4.046875 0.5 C 2.804688 0.5 2.1875 0.0859375 2.1875 -0.734375 C 2.1875 -1.390625 2.59375 -1.71875 3.40625 -1.71875 L 5.046875 -1.546875 C 6.304688 -1.546875 7.160156 -2.085938 7.609375 -3.171875 C 8.109375 -4.398438 8.359375 -6.867188 8.359375 -10.578125 L 8.359375 -34.46875 C 8.359375 -38.144531 8.179688 -40.460938 7.828125 -41.421875 C 7.484375 -42.378906 7.097656 -42.976562 6.671875 -43.21875 C 6.242188 -43.46875 5.703125 -43.59375 5.046875 -43.59375 L 3.40625 -43.46875 C 2.59375 -43.46875 2.1875 -43.789062 2.1875 -44.4375 C 2.1875 -45.269531 2.785156 -45.6875 3.984375 -45.6875 C 5.191406 -45.6875 6.179688 -45.65625 6.953125 -45.59375 C 7.734375 -45.539062 8.515625 -45.484375 9.296875 -45.421875 C 11.390625 -45.234375 13.035156 -45.140625 14.234375 -45.140625 C 15.429688 -45.140625 16.703125 -45.164062 18.046875 -45.21875 C 19.398438 -45.28125 20.910156 -45.347656 22.578125 -45.421875 C 26.953125 -45.597656 29.988281 -45.6875 31.6875 -45.6875 C 33.382812 -45.6875 34.328125 -45.582031 34.515625 -45.375 C 34.703125 -45.175781 34.796875 -44.898438 34.796875 -44.546875 C 34.796875 -44.203125 34.789062 -43.875 34.78125 -43.5625 C 34.769531 -43.25 34.753906 -42.898438 34.734375 -42.515625 C 34.710938 -42.003906 34.644531 -41.234375 34.53125 -40.203125 C 34.414062 -39.179688 34.28125 -38.5 34.125 -38.15625 C 33.96875 -37.8125 33.742188 -37.640625 33.453125 -37.640625 C 33.160156 -37.640625 32.957031 -37.710938 32.84375 -37.859375 C 32.738281 -38.003906 32.585938 -38.335938 32.390625 -38.859375 C 32.203125 -39.390625 31.863281 -39.894531 31.375 -40.375 C 30.894531 -40.863281 30.140625 -41.265625 29.109375 -41.578125 C 27.085938 -42.179688 23.347656 -42.484375 17.890625 -42.484375 L 14.890625 -42.484375 C 14.347656 -42.484375 14.003906 -42.40625 13.859375 -42.25 C 13.710938 -42.09375 13.640625 -41.734375 13.640625 -41.171875 L 13.640625 -26.984375 C 16.316406 -26.671875 18.535156 -26.515625 20.296875 -26.515625 C 22.054688 -26.515625 23.3125 -26.523438 24.0625 -26.546875 C 24.820312 -26.566406 25.445312 -26.632812 25.9375 -26.75 C 26.8125 -26.90625 27.441406 -27.300781 27.828125 -27.9375 C 28.585938 -29.125 29.207031 -29.71875 29.6875 -29.71875 C 30.289062 -29.71875 30.59375 -29.398438 30.59375 -28.765625 L 29.40625 -23.984375 L 29.546875 -21.421875 C 29.546875 -19.804688 29.164062 -19 28.40625 -19 C 27.75 -19 27.421875 -19.429688 27.421875 -20.296875 C 27.421875 -21.160156 27.367188 -21.804688 27.265625 -22.234375 C 27.171875 -22.660156 26.890625 -23 26.421875 -23.25 C 25.703125 -23.601562 23.945312 -23.78125 21.15625 -23.78125 C 18.375 -23.78125 15.867188 -23.660156 13.640625 -23.421875 L 13.640625 -15.4375 C 13.640625 -10.46875 13.753906 -6.367188 13.984375 -3.140625 C 15.804688 -2.734375 17.78125 -2.53125 19.90625 -2.53125 C 22.039062 -2.53125 23.863281 -2.582031 25.375 -2.6875 C 26.894531 -2.800781 28.207031 -3.03125 29.3125 -3.375 C 31.488281 -4.019531 33.09375 -5.265625 34.125 -7.109375 C 34.570312 -7.921875 35.019531 -8.328125 35.46875 -8.328125 C 35.925781 -8.328125 36.15625 -8 36.15625 -7.34375 C 36.15625 -7.070312 36.078125 -6.722656 35.921875 -6.296875 C 35.734375 -5.710938 35.472656 -4.84375 35.140625 -3.6875 C 34.804688 -2.53125 34.546875 -1.691406 34.359375 -1.171875 C 34.179688 -0.660156 33.984375 -0.269531 33.765625 0 C 33.421875 0.445312 32.753906 0.671875 31.765625 0.671875 C 30.773438 0.671875 29.820312 0.664062 28.90625 0.65625 C 27.988281 0.644531 27.023438 0.628906 26.015625 0.609375 C 24.847656 0.566406 23.035156 0.476562 20.578125 0.34375 C 14.472656 0.0507812 10.890625 -0.0507812 9.828125 0.03125 C 8.773438 0.125 7.976562 0.195312 7.4375 0.25 C 6.90625 0.3125 6.378906 0.367188 5.859375 0.421875 C 5.347656 0.472656 4.742188 0.5 4.046875 0.5 Z M 4.046875 0.5 "/></g></g></g></svg>