<svg xmlns="http://www.w3.org/2000/svg" xmlns:xlink="http://www.w3.org/1999/xlink" width="500" zoomAndPan="magnify" viewBox="0 0 375 374.999991" height="500" preserveAspectRatio="xMidYMid meet" version="1.0"><defs><g/></defs><path fill="#000000" d="M 320.363281 76.867188 C 317.714844 74.621094 314.261719 74.09375 311.054688 75.445312 L 292.558594 83.289062 C 280.761719 61.621094 264.023438 43.148438 243.933594 29.292969 C 216.421875 10.324219 182.714844 -0.0234375 146.90625 1.917969 C 118.292969 3.464844 91.867188 12.644531 69.507812 27.375 C 55.425781 36.660156 42.949219 48.203125 32.546875 61.488281 C 27.652344 67.734375 28.679688 76.789062 34.84375 81.792969 L 46.917969 91.597656 C 50.0625 94.152344 53.695312 95.214844 57.730469 94.765625 C 61.757812 94.3125 65.0625 92.472656 67.566406 89.292969 C 75.007812 79.835938 83.996094 71.550781 94.1875 64.835938 C 110.078125 54.367188 128.902344 47.832031 149.335938 46.722656 C 174.988281 45.335938 199.035156 52.675781 218.550781 66.128906 C 231.710938 75.210938 242.851562 87.046875 251.097656 100.855469 L 232.257812 108.851562 C 229.136719 110.164062 227.136719 112.886719 226.816406 116.257812 C 226.496094 119.621094 227.941406 122.671875 230.75 124.558594 L 291.609375 165.378906 C 294.113281 167.070312 297.039062 167.386719 299.855469 166.285156 C 302.671875 165.195312 304.617188 162.980469 305.332031 160.039062 L 323.28125 85.820312 C 324.105469 82.441406 323.019531 79.121094 320.363281 76.867188 Z M 291.75 185.878906 C 242.152344 176.527344 194.371094 209.167969 185.027344 258.765625 C 175.6875 308.367188 208.320312 356.148438 257.917969 365.492188 C 307.515625 374.832031 355.300781 342.199219 364.640625 292.601562 C 373.984375 243 341.351562 195.21875 291.75 185.878906 Z M 332.722656 252.183594 L 269.125 315.75 L 262.625 322.246094 C 260.582031 324.289062 257.269531 324.308594 255.203125 322.296875 L 248.609375 315.898438 L 215.96875 284.210938 C 213.65625 281.957031 213.597656 278.238281 215.851562 275.917969 L 228.042969 263.359375 C 230.296875 261.046875 234.011719 260.996094 236.324219 263.238281 L 258.640625 284.90625 L 312.058594 231.523438 C 314.335938 229.246094 318.058594 229.246094 320.339844 231.523438 L 332.722656 243.902344 C 335.003906 246.179688 335.003906 249.90625 332.722656 252.183594 Z M 159.351562 269.191406 C 140.828125 269.898438 122.910156 265.964844 106.96875 258.261719 C 92.574219 251.308594 79.75 241.3125 69.484375 228.925781 L 86.890625 218.148438 C 89.765625 216.363281 91.328125 213.371094 91.125 209.992188 C 90.925781 206.613281 89.03125 203.820312 85.972656 202.390625 L 19.582031 171.363281 C 16.851562 170.078125 13.914062 170.214844 11.292969 171.726562 C 8.675781 173.25 7.097656 175.71875 6.84375 178.738281 L 0.453125 254.832031 C 0.160156 258.296875 1.742188 261.421875 4.707031 263.238281 C 7.675781 265.046875 11.164062 265.046875 14.125 263.214844 L 31.203125 252.628906 C 46.175781 272.226562 65.550781 287.925781 87.519531 298.546875 C 111.222656 310.003906 137.925781 315.472656 165.351562 313.6875 C 161.914062 303.683594 159.746094 293.054688 159.207031 281.957031 C 159.003906 277.652344 159.082031 273.398438 159.351562 269.191406 Z M 159.351562 269.191406 " fill-opacity="1" fill-rule="nonzero"/><g fill="#000000" fill-opacity="1"><g transform="translate(41.351966, 161.46412)"><g><path d="M 11.921875 -28.46875 L 10.859375 -28.5625 C 9.960938 -28.5625 9.351562 -28.066406 9.03125 -27.078125 C 8.75 -26.210938 8.609375 -24.710938 8.609375 -22.578125 L 8.609375 -11.671875 C 8.609375 -9.628906 8.753906 -8.160156 9.046875 -7.265625 C 9.335938 -6.378906 9.753906 -5.566406 10.296875 -4.828125 C 10.835938 -4.097656 11.46875 -3.472656 12.1875 -2.953125 C 13.644531 -1.921875 15.285156 -1.40625 17.109375 -1.40625 C 18.941406 -1.40625 20.453125 -1.625 21.640625 -2.0625 C 22.835938 -2.5 23.789062 -3.148438 24.5 -4.015625 C 25.8125 -5.609375 26.46875 -8.195312 26.46875 -11.78125 L 26.421875 -22.578125 C 26.421875 -24.742188 26.316406 -26.160156 26.109375 -26.828125 C 25.898438 -27.492188 25.648438 -27.945312 25.359375 -28.1875 C 25.078125 -28.4375 24.707031 -28.5625 24.25 -28.5625 L 23.171875 -28.46875 C 22.640625 -28.46875 22.375 -28.679688 22.375 -29.109375 C 22.375 -29.648438 22.78125 -29.921875 23.59375 -29.921875 C 24.40625 -29.921875 25.113281 -29.863281 25.71875 -29.75 C 26.320312 -29.632812 26.953125 -29.578125 27.609375 -29.578125 L 31.25 -29.921875 C 32.195312 -29.921875 32.671875 -29.648438 32.671875 -29.109375 C 32.671875 -28.679688 32.40625 -28.46875 31.875 -28.46875 L 30.8125 -28.5625 C 29.914062 -28.5625 29.320312 -28.066406 29.03125 -27.078125 C 28.78125 -26.222656 28.65625 -24.722656 28.65625 -22.578125 L 28.609375 -10.65625 C 28.609375 -7.375 27.5625 -4.691406 25.46875 -2.609375 C 23.363281 -0.503906 20.5625 0.546875 17.0625 0.546875 C 13.25 0.546875 10.238281 -0.503906 8.03125 -2.609375 C 5.78125 -4.785156 4.65625 -7.804688 4.65625 -11.671875 L 4.65625 -22.578125 C 4.65625 -24.710938 4.546875 -26.117188 4.328125 -26.796875 C 4.109375 -27.484375 3.847656 -27.945312 3.546875 -28.1875 C 3.253906 -28.4375 2.875 -28.5625 2.40625 -28.5625 L 1.328125 -28.46875 C 0.796875 -28.46875 0.53125 -28.679688 0.53125 -29.109375 C 0.53125 -29.648438 0.9375 -29.921875 1.75 -29.921875 C 2.570312 -29.921875 3.367188 -29.863281 4.140625 -29.75 C 4.921875 -29.632812 5.742188 -29.578125 6.609375 -29.578125 C 7.472656 -29.578125 8.304688 -29.632812 9.109375 -29.75 C 9.910156 -29.863281 10.710938 -29.921875 11.515625 -29.921875 C 12.316406 -29.921875 12.71875 -29.648438 12.71875 -29.109375 C 12.71875 -28.679688 12.453125 -28.46875 11.921875 -28.46875 Z M 11.921875 -28.46875 "/></g></g></g><g fill="#000000" fill-opacity="1"><g transform="translate(74.595809, 161.46412)"><g><path d="M 2.9375 0.328125 C 1.976562 0.328125 1.5 0.0546875 1.5 -0.484375 C 1.5 -0.910156 1.765625 -1.125 2.296875 -1.125 L 3.375 -1.015625 C 4.257812 -1.015625 4.859375 -1.507812 5.171875 -2.5 C 5.421875 -3.332031 5.546875 -4.832031 5.546875 -7 L 5.546875 -22.578125 C 5.546875 -24.742188 5.441406 -26.160156 5.234375 -26.828125 C 5.023438 -27.492188 4.773438 -27.945312 4.484375 -28.1875 C 4.203125 -28.4375 3.832031 -28.5625 3.375 -28.5625 L 2.296875 -28.46875 C 1.765625 -28.46875 1.5 -28.679688 1.5 -29.109375 C 1.5 -29.648438 1.898438 -29.921875 2.703125 -29.921875 C 3.515625 -29.921875 4.285156 -29.863281 5.015625 -29.75 C 5.742188 -29.632812 6.550781 -29.578125 7.4375 -29.578125 C 8.332031 -29.578125 9.125 -29.632812 9.8125 -29.75 C 10.5 -29.863281 11.097656 -29.921875 11.609375 -29.921875 C 14.753906 -29.921875 17.300781 -28.96875 19.25 -27.0625 C 21.007812 -25.3125 21.890625 -23.195312 21.890625 -20.71875 C 21.890625 -18.4375 21.007812 -16.453125 19.25 -14.765625 C 17.507812 -13.117188 15.519531 -12.296875 13.28125 -12.296875 C 11.5625 -12.296875 10.382812 -12.632812 9.75 -13.3125 C 9.5625 -13.519531 9.46875 -13.742188 9.46875 -13.984375 C 9.46875 -14.222656 9.535156 -14.40625 9.671875 -14.53125 C 9.816406 -14.65625 9.992188 -14.71875 10.203125 -14.71875 C 10.398438 -14.71875 10.6875 -14.578125 11.0625 -14.296875 C 11.632812 -13.890625 12.347656 -13.6875 13.203125 -13.6875 C 14.054688 -13.6875 14.78125 -13.847656 15.375 -14.171875 C 15.96875 -14.503906 16.472656 -14.972656 16.890625 -15.578125 C 17.742188 -16.828125 18.171875 -18.515625 18.171875 -20.640625 C 18.171875 -23.023438 17.503906 -24.921875 16.171875 -26.328125 C 14.898438 -27.703125 13.238281 -28.390625 11.1875 -28.390625 C 10.4375 -28.390625 9.882812 -28.285156 9.53125 -28.078125 C 9.175781 -27.867188 9 -27.515625 9 -27.015625 L 9 -7 C 9 -4.769531 9.097656 -3.335938 9.296875 -2.703125 C 9.492188 -2.066406 9.738281 -1.625 10.03125 -1.375 C 10.320312 -1.132812 10.703125 -1.015625 11.171875 -1.015625 L 12.234375 -1.125 C 12.753906 -1.125 13.015625 -0.910156 13.015625 -0.484375 C 13.015625 0.0546875 12.546875 0.328125 11.609375 0.328125 C 11.117188 0.328125 10.601562 0.285156 10.0625 0.203125 C 8.300781 -0.078125 6.789062 -0.128906 5.53125 0.046875 C 4.269531 0.234375 3.40625 0.328125 2.9375 0.328125 Z M 2.9375 0.328125 "/></g></g></g><g fill="#000000" fill-opacity="1"><g transform="translate(98.259421, 161.46412)"><g><path d="M 2.9375 0.328125 C 1.976562 0.328125 1.5 0.0546875 1.5 -0.484375 C 1.5 -0.910156 1.765625 -1.125 2.296875 -1.125 L 3.375 -1.015625 C 4.257812 -1.015625 4.859375 -1.507812 5.171875 -2.5 C 5.421875 -3.332031 5.546875 -4.832031 5.546875 -7 L 5.546875 -22.578125 C 5.546875 -24.742188 5.441406 -26.160156 5.234375 -26.828125 C 5.023438 -27.492188 4.773438 -27.945312 4.484375 -28.1875 C 4.203125 -28.4375 3.832031 -28.5625 3.375 -28.5625 L 2.296875 -28.46875 C 1.765625 -28.46875 1.5 -28.679688 1.5 -29.109375 C 1.5 -29.648438 1.898438 -29.921875 2.703125 -29.921875 C 3.515625 -29.921875 4.222656 -29.863281 4.828125 -29.75 C 5.429688 -29.632812 6.03125 -29.578125 6.625 -29.578125 C 8.1875 -29.578125 9.476562 -29.648438 10.5 -29.796875 C 12.0625 -30.015625 13.851562 -30.125 15.875 -30.125 C 17.90625 -30.125 19.921875 -29.765625 21.921875 -29.046875 C 23.929688 -28.328125 25.660156 -27.304688 27.109375 -25.984375 C 30.179688 -23.171875 31.71875 -19.476562 31.71875 -14.90625 C 31.71875 -10.5625 30.207031 -6.945312 27.1875 -4.0625 C 24.070312 -1.0625 19.984375 0.4375 14.921875 0.4375 C 13.703125 0.4375 12.515625 0.382812 11.359375 0.28125 C 9.234375 0.09375 7.691406 0 6.734375 0 Z M 9 -10.171875 C 9 -7.554688 9.066406 -5.125 9.203125 -2.875 C 11.160156 -1.851562 13.359375 -1.34375 15.796875 -1.34375 C 17.578125 -1.34375 19.425781 -1.765625 21.34375 -2.609375 C 24.375 -3.929688 26.351562 -6.300781 27.28125 -9.71875 C 27.613281 -10.914062 27.78125 -12.472656 27.78125 -14.390625 C 27.78125 -16.316406 27.453125 -18.179688 26.796875 -19.984375 C 26.148438 -21.785156 25.238281 -23.304688 24.0625 -24.546875 C 21.65625 -27.085938 18.425781 -28.359375 14.375 -28.359375 C 11.46875 -28.359375 9.800781 -27.976562 9.375 -27.21875 C 9.15625 -26.800781 9.035156 -26.332031 9.015625 -25.8125 C 9.003906 -25.289062 9 -24.78125 9 -24.28125 Z M 9 -10.171875 "/></g></g></g><g fill="#000000" fill-opacity="1"><g transform="translate(132.187572, 161.46412)"><g><path d="M 4.921875 0 C 4.171875 0 3.46875 0.0507812 2.8125 0.15625 C 2.15625 0.269531 1.445312 0.328125 0.6875 0.328125 C -0.0625 0.328125 -0.4375 0.0820312 -0.4375 -0.40625 C -0.4375 -0.894531 -0.09375 -1.140625 0.59375 -1.140625 C 1.3125 -1.140625 1.828125 -1.273438 2.140625 -1.546875 C 2.640625 -2.003906 3.128906 -2.742188 3.609375 -3.765625 C 4.097656 -4.796875 4.550781 -5.757812 4.96875 -6.65625 C 5.394531 -7.5625 5.878906 -8.613281 6.421875 -9.8125 C 6.960938 -11.007812 7.5625 -12.347656 8.21875 -13.828125 C 8.875 -15.304688 9.5625 -16.878906 10.28125 -18.546875 C 12.164062 -22.910156 13.410156 -25.847656 14.015625 -27.359375 C 14.617188 -28.867188 14.953125 -29.703125 15.015625 -29.859375 C 15.085938 -30.023438 15.160156 -30.171875 15.234375 -30.296875 C 15.421875 -30.609375 15.578125 -30.765625 15.703125 -30.765625 C 15.835938 -30.765625 15.945312 -30.742188 16.03125 -30.703125 C 16.125 -30.671875 16.222656 -30.601562 16.328125 -30.5 C 16.554688 -30.21875 16.78125 -29.800781 17 -29.25 C 17.21875 -28.695312 17.515625 -27.953125 17.890625 -27.015625 C 18.265625 -26.078125 18.691406 -25.007812 19.171875 -23.8125 C 19.660156 -22.625 20.175781 -21.34375 20.71875 -19.96875 C 21.269531 -18.601562 21.820312 -17.238281 22.375 -15.875 C 22.925781 -14.519531 23.460938 -13.203125 23.984375 -11.921875 C 24.503906 -10.640625 24.96875 -9.484375 25.375 -8.453125 C 26.644531 -5.378906 27.457031 -3.539062 27.8125 -2.9375 C 28.164062 -2.332031 28.457031 -1.910156 28.6875 -1.671875 C 29.0625 -1.316406 29.609375 -1.140625 30.328125 -1.140625 C 31.046875 -1.140625 31.40625 -0.894531 31.40625 -0.40625 C 31.40625 0.0820312 30.941406 0.328125 30.015625 0.328125 C 29.617188 0.328125 29.273438 0.304688 28.984375 0.265625 C 28.703125 0.234375 28.414062 0.203125 28.125 0.171875 C 27.269531 0.0546875 26.507812 0 25.84375 0 L 21.59375 0.328125 C 20.632812 0.328125 20.15625 0.0546875 20.15625 -0.484375 C 20.15625 -0.921875 20.421875 -1.140625 20.953125 -1.140625 L 22.265625 -1 C 22.828125 -1 23.195312 -1.117188 23.375 -1.359375 C 23.550781 -1.597656 23.640625 -1.898438 23.640625 -2.265625 C 23.640625 -2.960938 23.34375 -4.039062 22.75 -5.5 L 20.921875 -10.09375 L 8.671875 -10.09375 C 8.316406 -9.207031 7.988281 -8.394531 7.6875 -7.65625 C 7.382812 -6.925781 7.109375 -6.210938 6.859375 -5.515625 C 6.460938 -4.398438 6.265625 -3.519531 6.265625 -2.875 C 6.265625 -2.238281 6.378906 -1.769531 6.609375 -1.46875 C 6.835938 -1.164062 7.269531 -1.015625 7.90625 -1.015625 L 9.21875 -1.125 C 9.75 -1.125 10.015625 -0.910156 10.015625 -0.484375 C 10.015625 0.0546875 9.539062 0.328125 8.59375 0.328125 Z M 20.171875 -11.96875 L 14.921875 -25.125 C 13.898438 -22.539062 12.082031 -18.15625 9.46875 -11.96875 Z M 20.171875 -11.96875 "/></g></g></g><g fill="#000000" fill-opacity="1"><g transform="translate(163.378513, 161.46412)"><g><path d="M 9.046875 0.328125 C 8.085938 0.328125 7.609375 0.0546875 7.609375 -0.484375 C 7.609375 -0.910156 7.875 -1.125 8.40625 -1.125 L 9.484375 -1.015625 C 10.367188 -1.015625 10.957031 -1.507812 11.25 -2.5 C 11.519531 -3.332031 11.65625 -4.832031 11.65625 -7 L 11.65625 -27.640625 L 11.0625 -27.640625 C 8.488281 -27.640625 6.4375 -27.375 4.90625 -26.84375 C 3.84375 -26.457031 3.117188 -25.800781 2.734375 -24.875 C 2.453125 -24.195312 2.160156 -23.859375 1.859375 -23.859375 C 1.429688 -23.859375 1.21875 -24.109375 1.21875 -24.609375 C 1.21875 -24.753906 1.25 -24.921875 1.3125 -25.109375 C 1.375 -25.304688 1.453125 -25.535156 1.546875 -25.796875 C 1.773438 -26.503906 1.910156 -27.238281 1.953125 -28 C 2.003906 -28.769531 2.09375 -29.28125 2.21875 -29.53125 C 2.34375 -29.789062 2.515625 -29.921875 2.734375 -29.921875 C 2.953125 -29.921875 3.148438 -29.898438 3.328125 -29.859375 C 3.503906 -29.828125 3.765625 -29.789062 4.109375 -29.75 C 4.984375 -29.632812 6.09375 -29.578125 7.4375 -29.578125 L 21.4375 -29.578125 C 22.519531 -29.578125 23.304688 -29.632812 23.796875 -29.75 C 24.296875 -29.863281 24.65625 -29.921875 24.875 -29.921875 C 25.363281 -29.921875 25.609375 -29.695312 25.609375 -29.25 C 25.609375 -29.007812 25.5625 -28.726562 25.46875 -28.40625 C 25.25 -27.6875 25.101562 -27.066406 25.03125 -26.546875 C 24.96875 -26.023438 24.90625 -25.597656 24.84375 -25.265625 C 24.789062 -24.929688 24.726562 -24.671875 24.65625 -24.484375 C 24.539062 -24.148438 24.363281 -23.984375 24.125 -23.984375 C 23.882812 -23.984375 23.734375 -24.066406 23.671875 -24.234375 C 23.609375 -24.410156 23.539062 -24.738281 23.46875 -25.21875 C 23.394531 -25.707031 23.269531 -26.109375 23.09375 -26.421875 C 22.914062 -26.734375 22.675781 -26.972656 22.375 -27.140625 C 21.863281 -27.472656 21.023438 -27.640625 19.859375 -27.640625 L 15.125 -27.640625 L 15.125 -7 C 15.125 -4.769531 15.222656 -3.335938 15.421875 -2.703125 C 15.617188 -2.066406 15.859375 -1.625 16.140625 -1.375 C 16.429688 -1.132812 16.8125 -1.015625 17.28125 -1.015625 L 18.34375 -1.125 C 18.875 -1.125 19.140625 -0.910156 19.140625 -0.484375 C 19.140625 0.0546875 18.664062 0.328125 17.71875 0.328125 C 17.238281 0.328125 16.722656 0.285156 16.171875 0.203125 C 14.410156 -0.078125 12.898438 -0.128906 11.640625 0.046875 C 10.378906 0.234375 9.515625 0.328125 9.046875 0.328125 Z M 9.046875 0.328125 "/></g></g></g><g fill="#000000" fill-opacity="1"><g transform="translate(190.19875, 161.46412)"><g><path d="M 2.65625 0.328125 C 1.84375 0.328125 1.4375 0.0546875 1.4375 -0.484375 C 1.4375 -0.910156 1.703125 -1.125 2.234375 -1.125 L 3.3125 -1.015625 C 4.132812 -1.015625 4.691406 -1.367188 4.984375 -2.078125 C 5.304688 -2.878906 5.46875 -4.5 5.46875 -6.9375 L 5.46875 -22.578125 C 5.46875 -24.992188 5.351562 -26.515625 5.125 -27.140625 C 4.90625 -27.765625 4.65625 -28.15625 4.375 -28.3125 C 4.09375 -28.476562 3.738281 -28.5625 3.3125 -28.5625 L 2.234375 -28.46875 C 1.703125 -28.46875 1.4375 -28.679688 1.4375 -29.109375 C 1.4375 -29.648438 1.828125 -29.921875 2.609375 -29.921875 C 3.398438 -29.921875 4.046875 -29.898438 4.546875 -29.859375 C 5.054688 -29.828125 5.570312 -29.789062 6.09375 -29.75 C 7.457031 -29.632812 8.53125 -29.578125 9.3125 -29.578125 C 10.101562 -29.578125 10.941406 -29.59375 11.828125 -29.625 C 12.710938 -29.664062 13.695312 -29.707031 14.78125 -29.75 C 17.65625 -29.863281 19.644531 -29.921875 20.75 -29.921875 C 21.863281 -29.921875 22.484375 -29.851562 22.609375 -29.71875 C 22.734375 -29.59375 22.796875 -29.414062 22.796875 -29.1875 C 22.796875 -28.957031 22.789062 -28.738281 22.78125 -28.53125 C 22.78125 -28.332031 22.769531 -28.109375 22.75 -27.859375 C 22.738281 -27.515625 22.695312 -27.007812 22.625 -26.34375 C 22.550781 -25.675781 22.460938 -25.226562 22.359375 -25 C 22.253906 -24.769531 22.101562 -24.65625 21.90625 -24.65625 C 21.71875 -24.65625 21.585938 -24.703125 21.515625 -24.796875 C 21.441406 -24.890625 21.34375 -25.109375 21.21875 -25.453125 C 21.09375 -25.804688 20.867188 -26.140625 20.546875 -26.453125 C 20.234375 -26.765625 19.738281 -27.023438 19.0625 -27.234375 C 17.738281 -27.628906 15.289062 -27.828125 11.71875 -27.828125 L 9.75 -27.828125 C 9.394531 -27.828125 9.171875 -27.773438 9.078125 -27.671875 C 8.984375 -27.578125 8.9375 -27.34375 8.9375 -26.96875 L 8.9375 -17.671875 C 10.6875 -17.472656 12.140625 -17.375 13.296875 -17.375 C 14.453125 -17.375 15.273438 -17.378906 15.765625 -17.390625 C 16.265625 -17.410156 16.675781 -17.457031 17 -17.53125 C 17.570312 -17.625 17.984375 -17.878906 18.234375 -18.296875 C 18.734375 -19.078125 19.132812 -19.46875 19.4375 -19.46875 C 19.84375 -19.46875 20.046875 -19.257812 20.046875 -18.84375 L 19.265625 -15.71875 L 19.359375 -14.03125 C 19.359375 -12.976562 19.109375 -12.453125 18.609375 -12.453125 C 18.179688 -12.453125 17.96875 -12.734375 17.96875 -13.296875 C 17.96875 -13.859375 17.929688 -14.28125 17.859375 -14.5625 C 17.796875 -14.84375 17.609375 -15.066406 17.296875 -15.234375 C 16.828125 -15.460938 15.679688 -15.578125 13.859375 -15.578125 C 12.035156 -15.578125 10.394531 -15.5 8.9375 -15.34375 L 8.9375 -10.109375 C 8.9375 -6.859375 9.007812 -4.171875 9.15625 -2.046875 C 10.351562 -1.785156 11.648438 -1.65625 13.046875 -1.65625 C 14.441406 -1.65625 15.632812 -1.691406 16.625 -1.765625 C 17.625 -1.835938 18.484375 -1.984375 19.203125 -2.203125 C 20.628906 -2.628906 21.679688 -3.445312 22.359375 -4.65625 C 22.648438 -5.1875 22.941406 -5.453125 23.234375 -5.453125 C 23.535156 -5.453125 23.6875 -5.238281 23.6875 -4.8125 C 23.6875 -4.632812 23.632812 -4.40625 23.53125 -4.125 C 23.414062 -3.738281 23.242188 -3.164062 23.015625 -2.40625 C 22.796875 -1.65625 22.628906 -1.109375 22.515625 -0.765625 C 22.398438 -0.429688 22.265625 -0.175781 22.109375 0 C 21.890625 0.289062 21.457031 0.4375 20.8125 0.4375 C 20.164062 0.4375 19.539062 0.429688 18.9375 0.421875 C 18.332031 0.421875 17.703125 0.410156 17.046875 0.390625 C 16.273438 0.367188 15.085938 0.3125 13.484375 0.21875 C 9.484375 0.03125 7.132812 -0.0351562 6.4375 0.015625 C 5.75 0.078125 5.226562 0.125 4.875 0.15625 C 4.519531 0.195312 4.171875 0.234375 3.828125 0.265625 C 3.492188 0.304688 3.101562 0.328125 2.65625 0.328125 Z M 2.65625 0.328125 "/></g></g></g></svg>